<?xml version="1.0" standalone="no"?>
<!DOCTYPE svg PUBLIC "-//W3C//DTD SVG 20010904//EN"
 "http://www.w3.org/TR/2001/REC-SVG-20010904/DTD/svg10.dtd">
<svg version="1.0" xmlns="http://www.w3.org/2000/svg"
 width="260.000000pt" height="260.000000pt" viewBox="0 0 260.000000 260.000000"
 preserveAspectRatio="xMidYMid meet">
<metadata>
Created by potrace 1.14, written by Peter Selinger 2001-2017
</metadata>
<g transform="translate(0.000000,260.000000) scale(0.100000,-0.100000)"
fill="#000000" stroke="none">
<path d="M905 2593 c-25 -7 -66 -33 -86 -55 -9 -10 -19 -18 -23 -18 -9 0 -96
-88 -96 -98 0 -4 -9 -14 -20 -22 -11 -8 -20 -19 -20 -25 0 -6 -9 -20 -19 -32
-10 -11 -26 -34 -35 -51 -9 -18 -21 -32 -26 -32 -6 0 -10 -8 -10 -18 0 -10 -9
-24 -20 -32 -11 -8 -20 -20 -20 -26 0 -13 -87 -183 -101 -198 -5 -6 -9 -18 -9
-28 0 -10 -4 -18 -10 -18 -5 0 -10 -9 -10 -20 0 -11 -4 -20 -10 -20 -5 0 -10
-11 -10 -25 0 -14 -4 -25 -10 -25 -5 0 -10 -9 -10 -19 0 -11 -4 -23 -10 -26
-5 -3 -10 -17 -10 -31 0 -13 -4 -24 -10 -24 -5 0 -10 -6 -10 -14 0 -14 -41
-121 -61 -158 -5 -10 -9 -29 -9 -43 0 -14 -4 -25 -10 -25 -5 0 -10 -13 -10
-30 0 -16 -4 -30 -10 -30 -5 0 -10 -15 -10 -34 0 -19 -4 -38 -10 -41 -5 -3
-10 -22 -10 -41 0 -19 -4 -34 -9 -34 -5 0 -11 -19 -14 -42 -2 -24 -12 -81 -21
-128 -26 -124 -37 -220 -43 -352 -2 -65 -8 -118 -14 -118 -5 0 -9 -48 -9 -110
0 -67 4 -110 10 -110 6 0 10 -29 10 -67 0 -37 4 -80 9 -97 5 -17 18 -58 28
-91 10 -33 26 -69 36 -79 9 -11 17 -24 17 -29 0 -11 17 -27 55 -52 40 -26 170
-27 209 -2 14 9 32 17 41 17 8 0 15 5 15 10 0 6 9 10 20 10 11 0 20 5 20 10 0
6 9 10 20 10 11 0 20 5 20 10 0 6 7 10 15 10 8 0 15 5 15 10 0 6 9 10 20 10
11 0 20 5 20 10 0 6 7 10 16 10 8 0 22 6 29 13 35 31 45 37 60 37 8 0 15 5 15
10 0 6 7 10 15 10 8 0 15 5 15 10 0 6 9 10 20 10 11 0 20 5 20 10 0 6 8 10 18
10 10 0 24 9 32 20 8 11 19 20 25 20 5 0 30 18 54 40 24 22 47 40 52 40 11 0
79 68 79 79 0 4 14 22 30 39 17 18 30 38 30 46 0 8 4 16 8 18 14 5 72 136 72
160 0 13 -13 45 -30 71 -16 26 -30 52 -30 57 0 6 -4 10 -10 10 -5 0 -10 9 -10
20 0 11 -4 20 -10 20 -5 0 -10 4 -10 9 0 9 -49 92 -85 146 -12 17 -27 42 -35
58 -7 15 -17 27 -22 27 -4 0 -8 9 -8 20 0 11 -4 20 -10 20 -5 0 -10 5 -10 12
0 6 -11 26 -25 44 -14 18 -25 37 -25 43 0 6 -4 11 -9 11 -5 0 -14 14 -21 30
-7 17 -16 30 -21 30 -5 0 -9 9 -9 20 0 11 -4 20 -10 20 -5 0 -10 11 -10 25 0
14 -4 25 -10 25 -5 0 -10 9 -10 20 0 11 -4 20 -10 20 -5 0 -10 8 -10 18 0 10
-4 22 -8 27 -16 19 -34 145 -28 193 8 56 36 153 48 166 4 6 8 17 8 26 0 8 9
22 20 30 11 8 20 18 20 23 0 5 6 14 13 21 6 7 23 27 37 44 14 18 30 32 36 32
5 0 19 8 30 19 33 30 113 71 139 71 14 0 25 5 25 10 0 6 23 10 50 10 28 0 50
3 50 8 0 4 -14 34 -30 67 -17 33 -30 67 -30 77 0 10 -4 18 -10 18 -5 0 -10 6
-10 14 0 8 -3 16 -7 18 -5 2 -21 29 -38 61 -16 31 -33 57 -37 57 -4 0 -8 7 -8
16 0 9 -13 29 -30 44 -16 15 -30 32 -30 38 0 17 -70 26 -115 15z"/>
<path d="M1545 2586 c-41 -18 -75 -50 -75 -70 0 -9 -4 -16 -10 -16 -5 0 -10
-9 -10 -20 0 -11 -4 -20 -10 -20 -5 0 -10 -9 -10 -20 0 -11 -4 -20 -8 -20 -5
0 -14 -16 -22 -35 -8 -19 -17 -35 -20 -35 -4 0 -15 -20 -26 -45 -10 -25 -22
-45 -26 -45 -4 0 -8 -13 -8 -30 0 -16 -4 -30 -10 -30 -5 0 -10 -9 -10 -20 0
-17 7 -20 44 -20 25 0 48 -4 51 -10 3 -5 16 -10 29 -10 12 0 48 -16 80 -35 32
-19 60 -35 62 -35 3 0 24 -20 48 -44 55 -55 116 -142 116 -167 0 -11 5 -19 10
-19 6 0 10 -16 10 -35 0 -19 5 -35 10 -35 6 0 10 -42 10 -105 0 -63 -4 -105
-10 -105 -5 0 -10 -13 -10 -29 0 -17 -4 -33 -10 -36 -5 -3 -10 -15 -10 -26 0
-10 -3 -19 -8 -19 -4 0 -16 -20 -27 -45 -11 -25 -23 -45 -27 -45 -5 0 -8 -8
-8 -18 0 -10 -9 -24 -20 -32 -11 -8 -20 -22 -20 -32 0 -10 -4 -18 -10 -18 -5
0 -10 -9 -10 -20 0 -11 -4 -20 -10 -20 -5 0 -10 -5 -10 -10 0 -10 -6 -19 -36
-53 -5 -7 -17 -27 -25 -44 -7 -18 -17 -33 -21 -33 -5 0 -8 -7 -8 -15 0 -8 -4
-15 -10 -15 -5 0 -10 -7 -10 -15 0 -8 -4 -15 -10 -15 -5 0 -10 -9 -10 -20 0
-11 -4 -20 -10 -20 -5 0 -10 -5 -10 -10 0 -12 -52 -94 -62 -98 -5 -2 -8 -12
-8 -23 0 -10 -4 -19 -10 -19 -5 0 -10 -7 -10 -15 0 -8 -4 -15 -10 -15 -5 0
-10 -9 -10 -20 0 -11 -4 -20 -10 -20 -5 0 -10 -25 -10 -55 0 -30 5 -55 10 -55
6 0 10 -11 10 -25 0 -14 5 -25 10 -25 6 0 10 -7 10 -15 0 -8 5 -15 10 -15 6 0
10 -7 10 -15 0 -8 8 -23 18 -33 27 -29 52 -62 52 -68 0 -8 92 -95 125 -119 15
-11 38 -30 51 -43 13 -12 30 -22 39 -22 8 0 15 -4 15 -10 0 -5 7 -10 15 -10 8
0 15 -4 15 -10 0 -5 9 -10 20 -10 11 0 20 -4 20 -10 0 -5 7 -10 15 -10 9 0 21
-5 28 -10 25 -21 88 -60 97 -60 6 0 10 -4 10 -10 0 -5 9 -10 20 -10 11 0 20
-4 20 -10 0 -5 9 -10 20 -10 11 0 20 -3 20 -8 0 -4 15 -13 33 -21 17 -8 34
-17 37 -20 8 -9 70 -32 118 -43 67 -15 125 -3 169 37 21 19 41 35 46 35 4 0 7
9 7 20 0 11 5 20 10 20 6 0 10 9 10 20 0 11 5 20 10 20 6 0 10 13 10 28 0 15
4 32 9 38 17 18 23 110 23 344 0 260 -9 430 -23 430 -5 0 -9 29 -9 65 0 37 -4
65 -10 65 -5 0 -10 25 -10 55 0 30 -4 55 -10 55 -5 0 -10 11 -10 25 0 13 -6
44 -14 67 -7 24 -19 63 -26 88 -6 25 -16 53 -21 62 -5 10 -9 29 -9 43 0 14 -4
25 -10 25 -5 0 -10 11 -10 25 0 14 -4 25 -10 25 -5 0 -10 16 -10 35 0 19 -4
35 -10 35 -5 0 -10 14 -10 30 0 17 -4 30 -10 30 -5 0 -10 9 -10 20 0 11 -4 20
-10 20 -5 0 -10 8 -10 18 0 10 -7 27 -15 38 -8 10 -15 27 -15 37 0 9 -4 17
-10 17 -5 0 -10 9 -10 20 0 11 -4 20 -10 20 -5 0 -10 11 -10 25 0 14 -4 25
-10 25 -5 0 -10 9 -10 20 0 11 -4 20 -10 20 -5 0 -10 9 -10 20 0 11 -4 20 -10
20 -5 0 -10 9 -10 20 0 11 -3 20 -8 20 -4 0 -16 20 -27 45 -11 25 -23 45 -26
45 -4 0 -12 14 -19 30 -7 17 -16 30 -21 30 -5 0 -9 9 -9 20 0 11 -4 20 -10 20
-5 0 -10 7 -10 15 0 8 -4 15 -9 15 -5 0 -12 8 -16 19 -3 10 -15 29 -26 42 -11
13 -29 34 -40 47 -10 12 -19 25 -19 27 0 8 -68 75 -75 75 -3 0 -15 9 -27 20
-12 11 -28 20 -35 20 -7 0 -13 4 -13 10 0 9 -63 30 -90 30 -8 -1 -28 -7 -45
-14z"/>
<path d="M1300 1985 c0 -14 5 -25 10 -25 6 0 10 7 10 15 0 8 6 15 13 15 8 0 7
4 -3 10 -23 15 -30 12 -30 -15z"/>
<path d="M1137 1986 c-21 -8 -46 -21 -56 -30 -10 -9 -21 -16 -25 -16 -13 0
-96 -92 -96 -107 0 -7 -4 -13 -10 -13 -15 0 -12 -39 4 -56 8 -8 21 -14 29 -14
9 0 17 -6 19 -12 5 -15 38 13 38 31 0 33 135 201 161 201 5 0 9 7 9 15 0 18
-23 18 -73 1z"/>
<path d="M1360 1981 c0 -6 9 -15 21 -21 18 -10 20 -9 17 7 -3 19 -38 32 -38
14z"/>
<path d="M1186 1906 c-31 -30 -56 -56 -56 -59 0 -2 -16 -31 -35 -63 -19 -32
-35 -66 -35 -76 0 -18 84 -68 115 -68 8 0 15 -5 15 -11 0 -6 12 -9 28 -7 24 3
28 9 40 63 8 33 16 77 19 98 3 20 9 37 14 37 5 0 9 18 9 39 0 22 5 41 12 43
17 6 -14 38 -36 38 -9 0 -16 5 -16 10 0 20 -18 9 -74 -44z"/>
<path d="M1360 1900 c0 -11 -4 -20 -10 -20 -5 0 -10 -20 -10 -45 0 -25 -4 -45
-10 -45 -5 0 -10 -18 -10 -40 0 -22 -4 -40 -10 -40 -5 0 -10 -20 -10 -45 0
-25 -4 -45 -10 -45 -5 0 -10 -4 -10 -10 0 -6 42 -10 105 -10 l105 0 0 85 c0
50 -4 85 -10 85 -5 0 -10 16 -10 35 0 19 -4 35 -10 35 -5 0 -10 14 -10 30 0
20 -5 30 -15 30 -8 0 -15 6 -15 13 0 8 -4 7 -11 -3 -8 -11 -12 -12 -16 -2 -8
20 -33 14 -33 -8z"/>
<path d="M1470 1910 c0 -5 5 -10 10 -10 6 0 10 -9 10 -20 0 -11 5 -20 10 -20
6 0 10 -13 10 -28 0 -15 4 -32 10 -38 5 -5 11 -47 12 -92 l3 -82 38 0 c21 0
45 6 53 14 16 16 19 96 4 96 -5 0 -10 14 -10 30 0 17 -4 30 -10 30 -5 0 -10 8
-10 18 0 9 -10 29 -23 44 -12 14 -29 36 -37 47 -15 22 -70 30 -70 11z"/>
<path d="M916 1734 c-9 -23 -7 -154 2 -154 4 0 16 -16 26 -35 11 -19 23 -35
28 -35 4 0 8 25 8 55 0 30 5 55 10 55 15 0 12 60 -4 76 -8 8 -18 14 -22 14 -3
0 -15 9 -24 20 -16 18 -18 18 -24 4z"/>
<path d="M1044 1634 c-3 -11 -10 -29 -15 -42 -5 -13 -9 -50 -9 -82 0 -53 2
-60 20 -60 11 0 20 -4 20 -10 0 -5 7 -10 15 -10 8 0 15 -4 15 -10 0 -5 11 -10
24 -10 14 0 28 -4 31 -10 3 -5 14 -10 24 -10 19 0 20 3 37 103 3 20 10 40 15
43 5 3 9 14 9 25 0 14 -7 19 -30 19 -16 0 -30 5 -30 10 0 6 -11 10 -25 10 -14
0 -25 5 -25 10 0 6 -8 10 -17 10 -9 0 -25 7 -35 16 -16 16 -18 15 -24 -2z"/>
<path d="M1620 1590 c0 -5 -12 -10 -27 -10 -33 -1 -63 -21 -63 -43 0 -9 -4
-19 -10 -22 -5 -3 -10 -19 -10 -36 0 -16 -4 -29 -10 -29 -5 0 -10 -9 -10 -20
0 -11 -4 -20 -10 -20 -5 0 -10 -4 -10 -10 0 -5 9 -10 20 -10 11 0 20 5 20 10
0 6 9 10 20 10 24 0 70 42 70 65 0 8 5 15 10 15 6 0 10 16 10 35 0 19 5 35 10
35 6 0 10 9 10 20 0 11 -4 20 -10 20 -5 0 -10 -4 -10 -10z"/>
<path d="M1276 1552 c-8 -13 -37 -135 -39 -162 -2 -24 0 -25 68 -25 84 0 125
10 125 30 0 8 5 15 10 15 6 0 10 14 10 30 0 17 5 30 10 30 6 0 10 14 10 30 0
17 5 30 10 30 6 0 10 7 10 15 0 12 -18 15 -104 15 -58 0 -107 -4 -110 -8z"/>
<path d="M960 1457 c0 -21 28 -53 38 -43 3 4 2 10 -4 14 -6 4 -16 16 -22 27
-10 18 -11 18 -12 2z"/>
<path d="M1040 1375 c0 -17 39 -55 57 -55 7 0 13 -4 13 -10 0 -5 14 -10 30
-10 22 0 30 5 30 18 0 15 -40 42 -63 42 -5 0 -15 7 -23 15 -20 19 -44 19 -44
0z"/>
<path d="M1431 1318 c0 -13 3 -17 6 -10 2 6 11 12 19 12 8 0 14 5 14 10 0 6
-9 10 -20 10 -14 0 -20 -6 -19 -22z"/>
<path d="M1210 1300 c0 -18 7 -20 66 -20 59 0 94 13 94 34 0 3 -36 6 -80 6
-73 0 -80 -2 -80 -20z"/>
</g>
</svg>
