<svg width="40" height="24" viewBox="0 0 40 24" fill="none" xmlns="http://www.w3.org/2000/svg">
<g clip-path="url(#clip0_1077_18065)">
<path d="M27.3114 6.60554V17.2942H25.4309V12.4695H20.5815V17.2942H18.701V6.60554H20.5815V10.8612H25.4557V6.60554H27.3114ZM16.8206 17.2942H14.9402V6.60554H16.8206V17.2942ZM13.1093 17.2942H11.1299L6.28043 9.42616H6.23094V17.2942H4.4495V6.60554H6.42888L11.3031 14.4736H11.3279V6.60554H13.1093V17.2942V17.2942ZM33.8928 11.9251L27.2866 -0.0253906H2.94022C1.72785 -0.0253906 0.738159 0.9643 0.738159 2.17667V21.6736C0.738159 22.886 1.72785 23.8756 2.94022 23.8756H27.2619L33.8928 11.9251Z" fill="#212B36"/>
<path d="M28.9196 23.8756L35.5505 11.9251L28.9443 -0.0253906H30.602C31.5175 -0.0253906 32.6062 0.617908 33.0515 1.40966L38.8659 11.9004L33.0515 22.4158C32.6062 23.2076 31.5175 23.8509 30.602 23.8509H28.9196V23.8756Z" fill="#20558A"/>
</g>
<defs>
<clipPath id="clip0_1077_18065">
<rect width="39" height="24" fill="white" transform="translate(0.38147)"/>
</clipPath>
</defs>
</svg>
