<?xml version="1.0" standalone="no"?>
<!DOCTYPE svg PUBLIC "-//W3C//DTD SVG 20010904//EN"
 "http://www.w3.org/TR/2001/REC-SVG-20010904/DTD/svg10.dtd">
<svg version="1.0" xmlns="http://www.w3.org/2000/svg"
 width="260.000000pt" height="260.000000pt" viewBox="0 0 260.000000 260.000000"
 preserveAspectRatio="xMidYMid meet">
<metadata>
Created by potrace 1.14, written by Peter Selinger 2001-2017
</metadata>
<g transform="translate(0.000000,260.000000) scale(0.100000,-0.100000)"
fill="#000000" stroke="none">
<path d="M1167 2579 c-200 -20 -405 -94 -574 -206 -366 -243 -586 -661 -578
-1098 8 -391 183 -740 495 -990 245 -196 604 -301 908 -266 321 37 562 151
783 371 172 171 280 357 339 585 38 146 51 356 30 507 -15 115 -75 301 -132
411 -241 463 -753 740 -1271 686z m153 -279 c0 -10 -26 -29 -68 -49 -80 -39
-107 -36 -127 12 -15 38 -30 127 -18 110 11 -15 136 -5 126 10 -4 6 14 -7 40
-28 26 -22 47 -46 47 -55z m-334 4 c112 -26 136 -51 67 -72 -65 -19 -213 -43
-223 -37 -15 9 -12 32 10 75 15 29 24 37 39 33 10 -2 22 0 25 6 9 14 2 14 82
-5z m398 -123 c-1 -99 -8 -108 -95 -127 -102 -21 -99 -23 -99 45 0 41 5 65 18
80 19 23 151 92 167 87 6 -2 10 -38 9 -85z m101 -77 c37 -9 45 -8 48 5 1 9 9
-13 16 -47 7 -35 10 -67 7 -70 -3 -3 -27 -1 -53 4 -62 12 -84 47 -75 119 4 31
8 40 10 25 2 -21 11 -27 47 -36z m-689 -99 c-7 -18 -103 -47 -171 -50 -33 -2
-48 -1 -33 1 15 3 49 27 75 54 27 27 66 62 88 78 l40 29 3 -50 c2 -27 1 -55
-2 -62z m521 9 c-3 -3 -12 -4 -19 -1 -8 3 -5 6 6 6 11 1 17 -2 13 -5z m-51
-13 c-9 -13 107 -20 124 -7 13 10 13 9 1 -6 -7 -10 -38 -32 -68 -49 l-55 -32
-41 30 c-49 34 -55 59 -14 56 15 -1 27 2 27 8 0 5 7 9 16 9 8 0 13 -4 10 -9z
m-141 -27 c-33 -26 -133 -74 -153 -74 -11 0 -26 8 -33 18 -11 14 -11 15 1 5
10 -10 19 -8 39 6 21 15 139 59 161 60 3 0 -4 -7 -15 -15z m-621 -25 c35 -16
38 -29 25 -132 -16 -136 -17 -137 -86 -136 -52 1 -134 15 -107 18 6 0 11 7 11
14 2 22 39 112 71 170 21 38 27 57 19 61 -7 3 -1 3 12 0 16 -4 21 -3 17 5 -9
14 6 14 38 0z m1041 2 c17 -3 30 -13 30 -20 0 -8 -40 -39 -89 -68 -101 -62
-136 -66 -169 -21 -25 33 -18 44 57 88 52 30 101 36 171 21z m116 -67 c10 -12
11 -39 3 -130 -11 -127 -20 -145 -74 -147 -29 -2 -39 5 -82 58 -27 33 -56 72
-64 87 -13 26 -13 29 11 50 35 30 156 98 176 98 9 0 22 -7 30 -16z m-392 -157
c-18 -41 -40 -85 -50 -98 l-18 -24 -58 64 c-32 35 -61 70 -66 77 -10 17 121
57 174 52 21 -2 39 1 39 6 0 5 3 7 6 4 3 -3 -9 -40 -27 -81z m-195 -43 c47
-53 86 -102 86 -108 0 -6 -7 -21 -15 -33 l-16 -22 -52 20 c-111 44 -136 60
-147 98 -5 20 -10 45 -10 56 0 27 36 85 54 85 7 0 52 -43 100 -96z m378 -9
c38 -49 68 -98 68 -107 0 -10 -12 -25 -26 -35 -25 -16 -29 -16 -78 1 -94 33
-156 67 -156 84 0 19 45 118 62 140 26 31 61 9 130 -83z m-1172 -11 c0 -23
-19 -64 -30 -64 -6 0 -3 12 7 26 14 22 15 31 5 58 -10 28 -10 29 3 12 8 -11
15 -25 15 -32z m627 -76 c-3 -7 -5 -2 -5 12 0 14 2 19 5 13 2 -7 2 -19 0 -25z
m836 -34 c64 -40 71 -55 83 -180 6 -68 5 -73 -17 -87 -42 -27 -124 -51 -149
-44 -14 4 -58 38 -97 75 -70 66 -73 70 -73 115 0 38 6 53 32 83 35 39 97 72
138 73 14 1 51 -15 83 -35z m-436 -5 c43 -17 95 -40 117 -51 37 -19 38 -21 33
-60 -3 -22 -8 -42 -11 -46 -9 -8 -194 -41 -238 -42 -40 0 -38 -2 -53 95 -5 33
-1 48 24 88 17 26 35 47 40 47 5 0 45 -14 88 -31z m-1072 -21 c-4 -18 -14 -50
-22 -71 -16 -40 -20 -41 -82 -13 -20 9 -26 18 -26 44 0 31 2 33 60 51 80 25
78 26 70 -11z m766 12 l44 -20 -62 0 c-56 0 -61 2 -56 20 7 25 20 25 74 0z
m-6 -91 c-60 -16 -119 -28 -130 -26 -19 2 -18 4 7 30 26 26 30 27 130 26 l103
-1 -110 -29z m132 -57 c18 -93 2 -145 -53 -168 -34 -14 -39 -13 -132 26 -114
49 -127 59 -118 94 5 21 18 29 75 46 91 27 193 48 208 42 7 -2 16 -20 20 -40z
m-819 -162 c-2 -8 -14 -16 -28 -18 -23 -3 -25 0 -26 43 -1 33 -8 54 -25 74
-13 15 0 3 29 -28 29 -30 51 -62 50 -71z m1218 78 c25 -23 41 -44 35 -46 -6
-2 -11 -8 -11 -13 0 -5 -8 -18 -17 -28 -36 -40 -48 -56 -46 -63 4 -10 -35 -21
-47 -13 -5 3 -10 1 -10 -4 0 -6 -11 -11 -25 -11 -23 0 -25 3 -19 28 15 62 73
192 86 192 4 0 29 -19 54 -42z m-116 22 c0 -15 -45 -131 -69 -178 -12 -23 -28
-42 -35 -42 -8 0 -44 25 -80 56 -67 57 -80 86 -57 123 17 26 241 64 241 41z
m-914 -89 c39 -18 42 -22 48 -70 4 -29 4 -79 0 -112 -6 -55 -10 -63 -53 -99
-39 -34 -47 -37 -51 -22 -3 9 -21 49 -39 87 -83 171 -83 178 -6 218 39 21 51
20 101 -2z m1434 15 c0 -15 -24 -66 -31 -66 -5 0 -9 16 -9 35 0 28 4 35 20 35
11 0 20 -2 20 -4z m-998 -37 c64 -30 68 -34 68 -64 0 -27 -44 -181 -55 -193
-3 -3 -26 8 -52 26 -13 8 -53 184 -53 233 0 16 5 29 12 29 6 0 42 -14 80 -31z
m809 -36 c-10 -21 -26 -47 -34 -57 -13 -18 -15 -17 -21 18 -4 20 -4 41 0 47 7
12 67 40 72 34 2 -2 -6 -20 -17 -42z m-548 -28 c37 -31 67 -62 67 -70 0 -8
-10 -21 -22 -29 -31 -20 -204 -86 -224 -86 -20 0 -17 31 16 138 16 56 27 75
48 86 15 9 32 15 38 16 5 0 40 -25 77 -55z m714 -7 c-3 -7 -5 -2 -5 12 0 14 2
19 5 13 2 -7 2 -19 0 -25z m-253 -32 c18 -62 19 -67 8 -63 -4 1 -20 -10 -34
-26 l-26 -27 -5 32 c-4 28 26 138 38 138 2 0 11 -24 19 -54z m-74 14 c0 -43
-118 -147 -149 -131 -25 14 -71 59 -71 70 0 5 39 22 88 36 48 14 92 28 97 30
19 7 35 5 35 -5z m-214 -128 c47 -42 89 -100 80 -109 -3 -4 -6 -2 -6 4 0 5
-31 2 -72 -9 -40 -10 -81 -17 -90 -14 -12 3 -18 -2 -19 -12 0 -11 -2 -12 -6
-5 -8 20 50 183 65 183 4 -1 25 -18 48 -38z m-451 -94 c8 -8 -32 -168 -47
-185 -24 -30 -49 -14 -78 51 -60 131 -53 150 52 144 37 -2 70 -6 73 -10z
m-161 -141 c27 -67 28 -103 4 -95 -6 2 -24 37 -40 77 -24 58 -27 75 -17 87 16
19 21 12 53 -69z m675 27 c34 -7 45 -27 31 -53 -9 -18 -226 -121 -254 -121 -8
0 -16 17 -20 46 -9 72 -7 98 11 123 16 23 19 24 109 17 51 -3 107 -9 123 -12z
m381 -62 c12 -44 12 -53 3 -50 -5 2 -29 -12 -55 -30 -26 -17 -51 -32 -55 -32
-5 0 -14 -5 -20 -11 -6 -6 -30 -20 -52 -30 -35 -15 -41 -16 -41 -3 0 21 186
208 199 200 6 -4 15 -23 21 -44z"/>
</g>
</svg>
