<svg width="78" height="78" viewBox="0 0 78 78" fill="none" xmlns="http://www.w3.org/2000/svg">
<path d="M38.9904 76.3391C38.7904 76.3591 38.6004 76.3591 38.4004 76.3491C37.4204 76.3291 36.8004 75.8691 36.8204 74.7791C36.8404 73.8791 37.3904 73.3991 38.2004 73.4191C38.5004 73.4191 38.7404 73.4691 39.0404 73.5191L38.9904 76.3391ZM39.9704 73.2591L38.2704 73.2291C37.2004 73.2091 36.3304 73.6991 36.3104 74.9491C36.2904 76.1391 37.1604 76.5091 38.1504 76.5291L39.9104 76.5591V76.3991L39.4504 76.3091L39.5004 73.4891L39.9604 73.4191L39.9704 73.2591Z" fill="black"/>
<path d="M38.9904 76.3391C38.7904 76.3591 38.6004 76.3591 38.4004 76.3491C37.4204 76.3291 36.8004 75.8691 36.8204 74.7791C36.8404 73.8791 37.3904 73.3991 38.2004 73.4191C38.5004 73.4191 38.7404 73.4691 39.0404 73.5191L38.9904 76.3391ZM39.9704 73.2591L38.2704 73.2291C37.2004 73.2091 36.3304 73.6991 36.3104 74.9491C36.2904 76.1391 37.1604 76.5091 38.1504 76.5291L39.9104 76.5591V76.3991L39.4504 76.3091L39.5004 73.4891L39.9604 73.4191L39.9704 73.2591Z" fill="black"/>
<path d="M34.4603 76.0198L33.4203 75.8898L33.3503 75.4099L33.2003 75.3998L33.1803 76.1298L35.3403 76.3998L35.3603 76.2398L34.9103 76.1098L35.2503 73.3098L35.7203 73.2898L35.7403 73.1298L33.3603 72.8398L33.0703 73.6098L33.2403 73.6298L33.4903 73.1398L34.7903 73.2999L34.6303 74.5798L33.7603 74.4698L33.7203 74.0998L33.5803 74.0798C33.5803 74.3398 33.5203 74.7798 33.4603 75.0298L33.6003 75.0499L33.7303 74.7098L34.5903 74.8198L34.4603 76.0198Z" fill="black"/>
<path d="M32.62 72.8801L32.65 72.7202L31.2 72.4102L31.17 72.5702L31.67 72.7602L31.08 75.5602C30.96 75.5502 30.84 75.5302 30.72 75.5002C30.31 75.4102 30.05 75.1402 30.12 74.6402C30.17 74.2702 30.38 73.8102 31.01 73.9402C31.09 73.9602 31.16 73.9901 31.23 74.0201L31.25 74.0002L31.28 73.8702C31.18 73.8302 31.08 73.7901 30.97 73.7701C30.34 73.6301 29.77 73.9901 29.63 74.6301C29.49 75.2701 29.97 75.5402 30.56 75.6602L31.97 75.9602L32 75.7902L31.54 75.6102L32.13 72.8502L32.62 72.8801Z" fill="black"/>
<path d="M27.4203 72.6091L27.3603 71.5491L27.8203 71.6291L27.8703 71.4791L26.5803 71.0391L26.5303 71.1891L26.8803 71.3991L27.0903 74.7791L27.3203 74.8591L29.5103 72.2991L29.9203 72.3591L29.9703 72.2091L28.8503 71.8291L28.8003 71.9791L29.2103 72.2091L28.5503 72.9991L27.4203 72.6091ZM27.5203 74.2391L27.4403 72.8691L28.3903 73.1991L27.5203 74.2391Z" fill="black"/>
<path d="M27.4203 72.6091L27.3603 71.5491L27.8203 71.6291L27.8703 71.4791L26.5803 71.0391L26.5303 71.1891L26.8803 71.3991L27.0903 74.7791L27.3203 74.8591L29.5103 72.2991L29.9203 72.3591L29.9703 72.2091L28.8503 71.8291L28.8003 71.9791L29.2103 72.2091L28.5503 72.9991L27.4203 72.6091ZM27.5203 74.2391L27.4403 72.8691L28.3903 73.1991L27.5203 74.2391Z" fill="black"/>
<path d="M24.0201 73.3784C23.9401 73.3684 23.8601 73.3384 23.7801 73.2984C23.2901 73.0784 23.1701 72.6984 23.3801 72.2184C23.6501 71.6084 23.9101 71.6984 24.4501 71.9384C24.5101 71.9684 24.5801 71.9984 24.6301 72.0184L24.0201 73.3784ZM26.0901 71.0784L26.1501 70.9284L24.8601 70.3484L24.8001 70.4984L25.1901 70.7584L24.7201 71.8184C24.5601 71.7484 24.4001 71.6784 24.2601 71.6284C24.1701 71.1084 24.0401 70.5484 23.8801 70.0184C23.8701 69.9784 23.7201 69.8684 23.6301 69.7984L23.3401 69.5684L23.2401 69.6784C23.4601 69.9084 23.5301 70.2784 23.6001 70.5684L23.8301 71.5584C23.4401 71.6284 23.0601 71.8384 22.8901 72.2084C22.6601 72.7184 22.9701 73.1284 23.4001 73.3184L24.8201 73.9484L24.8801 73.7984L24.4701 73.5284L25.6201 70.9584L26.0901 71.0784Z" fill="black"/>
<path d="M24.0201 73.3784C23.9401 73.3684 23.8601 73.3384 23.7801 73.2984C23.2901 73.0784 23.1701 72.6984 23.3801 72.2184C23.6501 71.6084 23.9101 71.6984 24.4501 71.9384C24.5101 71.9684 24.5801 71.9984 24.6301 72.0184L24.0201 73.3784ZM26.0901 71.0784L26.1501 70.9284L24.8601 70.3484L24.8001 70.4984L25.1901 70.7584L24.7201 71.8184C24.5601 71.7484 24.4001 71.6784 24.2601 71.6284C24.1701 71.1084 24.0401 70.5484 23.8801 70.0184C23.8701 69.9784 23.7201 69.8684 23.6301 69.7984L23.3401 69.5684L23.2401 69.6784C23.4601 69.9084 23.5301 70.2784 23.6001 70.5684L23.8301 71.5584C23.4401 71.6284 23.0601 71.8384 22.8901 72.2084C22.6601 72.7184 22.9701 73.1284 23.4001 73.3184L24.8201 73.9484L24.8801 73.7984L24.4701 73.5284L25.6201 70.9584L26.0901 71.0784Z" fill="black"/>
<path d="M22.2401 69.2789L22.3201 69.1389L21.0101 68.3789L20.9301 68.5189L21.3401 68.8489L19.9401 71.2689L19.4201 70.9689C19.2701 70.8789 19.1301 70.7889 19.0001 70.7089L19.1601 70.1989L19.0101 70.1089L18.6401 70.8289L21.3201 72.3789L21.8101 71.7289L21.6701 71.6489L21.2601 72.0189C21.1301 71.9589 20.9901 71.8889 20.8401 71.7989L20.3301 71.5089L21.7301 69.0889L22.2401 69.2789Z" fill="black"/>
<path d="M14.5802 67.7796L14.4902 67.9096L15.3002 68.4996L17.5602 67.1396L16.9802 69.7196L17.8102 70.3196L17.9002 70.1896L17.5502 69.8296L19.4302 67.7196L19.8002 67.8896L19.9002 67.7596L18.9902 67.1096L18.9002 67.2396L19.2102 67.5596L17.5002 69.4996V69.5096L17.4902 69.4996L18.1602 66.5296L18.1202 66.4996L15.4802 68.1096H15.4702H15.4602L16.8202 65.8196L17.2402 66.0296L17.3302 65.8996L16.2302 65.0996L16.1302 65.2196L16.4402 65.5496L15.0102 67.9896L14.5802 67.7796Z" fill="black"/>
<path d="M13.0402 66.2095L12.3002 65.4695L12.5402 65.0495L12.4402 64.9495L11.9702 65.5095L13.5102 67.0495L13.6202 66.9395L13.3502 66.5595L15.3402 64.5595L15.7202 64.8295L15.8302 64.7195L14.1302 63.0195L13.4202 63.4495L13.5402 63.5695L14.0402 63.3395L14.9702 64.2695L14.0602 65.1795L13.4402 64.5595L13.6402 64.2395L13.5402 64.1395C13.3802 64.3395 13.0702 64.6495 12.8602 64.8095L12.9602 64.9095L13.2702 64.7195L13.8802 65.3395L13.0402 66.2095Z" fill="black"/>
<path d="M13.4703 62.6997L13.5903 62.5997L12.8103 61.6697L12.6903 61.7697L12.9403 62.1897L11.0403 63.7797C11.1403 63.0197 11.4803 60.5797 11.5403 60.1097L11.3903 59.9297L9.03029 61.9197L8.67029 61.6197L8.55029 61.7197L9.32029 62.6397L9.44029 62.5397L9.21029 62.1297L11.0003 60.6297L10.5203 64.0597L11.0803 64.7197L11.2003 64.6197L10.9603 64.2097L13.1203 62.3997L13.4703 62.6997Z" fill="black"/>
<path d="M10.1903 58.6095L10.3203 58.5195L9.47027 57.2695L9.34027 57.3595L9.57027 57.8395L7.25027 59.3995L6.92027 58.8995C6.82027 58.7495 6.73027 58.6095 6.66027 58.4795L7.03027 58.0895L6.93027 57.9395L6.28027 58.4295L8.01027 60.9995L8.74027 60.6295L8.65027 60.4895L8.12027 60.6395C8.03027 60.5295 7.93027 60.3995 7.84027 60.2595L7.51027 59.7695L9.83027 58.2095L10.1903 58.6095Z" fill="black"/>
<path d="M3.98041 54.0701C4.39041 55.0201 5.26041 55.3401 6.26041 54.9201C7.13041 54.5501 7.58041 53.7301 7.11041 52.6201C6.71041 51.6801 5.85041 51.3201 4.97041 51.6901C3.97041 52.1201 3.51041 52.9601 3.98041 54.0701ZM5.86041 54.5401C5.07041 54.8801 4.43041 54.6701 4.15041 54.0201C3.88041 53.3901 4.20041 52.5601 5.11041 52.1701C5.82041 51.8701 6.58041 51.8501 6.92041 52.6601C7.25041 53.4201 6.82041 54.1401 5.86041 54.5401Z" fill="black"/>
<path d="M3.98041 54.0701C4.39041 55.0201 5.26041 55.3401 6.26041 54.9201C7.13041 54.5501 7.58041 53.7301 7.11041 52.6201C6.71041 51.6801 5.85041 51.3201 4.97041 51.6901C3.97041 52.1201 3.51041 52.9601 3.98041 54.0701ZM5.86041 54.5401C5.07041 54.8801 4.43041 54.6701 4.15041 54.0201C3.88041 53.3901 4.20041 52.5601 5.11041 52.1701C5.82041 51.8701 6.58041 51.8501 6.92041 52.6601C7.25041 53.4201 6.82041 54.1401 5.86041 54.5401Z" fill="black"/>
<path d="M4.37006 49.0089L4.33006 48.8789C4.10006 48.9889 3.68006 49.1189 3.42006 49.1689L3.46006 49.2989L3.83006 49.2789L4.12006 50.1789L2.96006 50.5589L2.63006 49.5389L3.06006 49.2789L3.01006 49.1289L2.31006 49.4189L3.01006 51.5689L3.16006 51.5189L3.08006 51.0089L5.76006 50.1389L6.00006 50.5989L6.15006 50.5489L5.69006 49.1389L5.54006 49.1889L5.62006 49.6989L4.35006 50.1089L4.06006 49.1989L4.37006 49.0089Z" fill="black"/>
<path d="M3.07016 45.3288L2.74016 43.4888L4.08016 43.2488L4.24016 43.6888L4.40016 43.6588L4.16016 42.2988L4.00016 42.3188V42.7888L1.23016 43.2788L1.07016 42.8388L0.910156 42.8688L1.15016 44.2388L1.31016 44.2088V43.7388L2.51016 43.5288L2.83016 45.3688L1.63016 45.5788L1.47016 45.1388L1.31016 45.1688L1.55016 46.5388L1.71016 46.5088V46.0388L4.49016 45.5488L4.65016 45.9888L4.80016 45.9588L4.56016 44.5888L4.41016 44.6188V45.0888L3.07016 45.3288Z" fill="black"/>
<path d="M1.1 41.08L1.03 40.04L1.48 39.88L1.47 39.73L0.75 39.85L0.9 42.02L1.06 42.01L1.11 41.54L3.92 41.34L4.03 41.8L4.19 41.79L4.02 39.39L3.21 39.25L3.22 39.42L3.75 39.58L3.84 40.89L2.55 40.98L2.49 40.11L2.85 40L2.84 39.86C2.59 39.91 2.14 39.94 1.89 39.93L1.9 40.07L2.26 40.13L2.31 41L1.1 41.08Z" fill="black"/>
<path d="M2.8502 36.5187L3.8402 36.1287L3.9102 36.5887H4.0702L4.0902 35.2188H3.9302L3.8402 35.6187L0.700195 36.8687V37.1087L3.8002 38.3988L3.8702 38.7987H4.0302L4.0502 37.6187H3.8902L3.8002 38.0788L2.8202 37.7087L2.8502 36.5187ZM1.3302 37.1087L2.6102 36.6087L2.5902 37.6187L1.3302 37.1087Z" fill="black"/>
<path d="M2.8502 36.5187L3.8402 36.1287L3.9102 36.5887H4.0702L4.0902 35.2188H3.9302L3.8402 35.6187L0.700195 36.8687V37.1087L3.8002 38.3988L3.8702 38.7987H4.0302L4.0502 37.6187H3.8902L3.8002 38.0788L2.8202 37.7087L2.8502 36.5187ZM1.3302 37.1087L2.6102 36.6087L2.5902 37.6187L1.3302 37.1087Z" fill="black"/>
<path d="M4.20996 34.7193L4.61996 32.3993L3.73996 32.0293L3.70996 32.1893L4.28996 32.5693L4.08996 33.7493L1.35996 33.2693V32.7993L1.19996 32.7793L0.959961 34.1393L1.11996 34.1693L1.27996 33.7293L4.04996 34.2193V34.6893L4.20996 34.7193Z" fill="black"/>
<path d="M4.65016 31.3794L4.81016 31.4194L5.18016 29.9494L5.02016 29.9094L4.81016 30.3994L2.10016 29.7294L2.24016 29.1494C2.28016 28.9794 2.33016 28.8194 2.38016 28.6694L2.92016 28.6894L2.96016 28.5194L2.16016 28.3594L1.41016 31.3694L2.17016 31.6594L2.21016 31.4994L1.75016 31.1994C1.78016 31.0594 1.80016 30.8994 1.85016 30.7394L1.99016 30.1694L4.70016 30.8494L4.65016 31.3794Z" fill="black"/>
<path d="M4.27035 27.3289L4.88035 25.5589L6.17035 26.0089L6.09035 26.4689L6.25035 26.5189L6.70035 25.2089L6.54035 25.1589L6.32035 25.5689L3.66035 24.6489L3.73035 24.1889L3.58035 24.1289L3.13035 25.4489L3.28035 25.4989L3.50035 25.0889L4.66035 25.4889L4.05035 27.2589L2.89035 26.8589L2.97035 26.3889L2.82035 26.3389L2.36035 27.6589L2.52035 27.7089L2.74035 27.2989L5.41035 28.2089L5.33035 28.6789L5.48035 28.7289L5.94035 27.4189L5.79035 27.3589L5.56035 27.7789L4.27035 27.3289Z" fill="black"/>
<path d="M6.96027 22.3501C6.67027 22.1801 6.55027 21.8601 6.56027 21.5401C7.07027 21.2601 7.59027 20.9901 8.09027 20.7301C8.23027 21.0801 8.28028 21.4601 8.14028 21.8201C7.95028 22.3201 7.46027 22.6401 6.96027 22.3501ZM6.21027 21.2301C6.00027 21.2501 5.86027 21.2701 5.67027 21.1601C5.43027 21.0201 5.33027 20.7901 5.48027 20.5401C5.61027 20.3201 5.88027 20.3601 6.08027 20.4701C6.33027 20.6201 6.44027 20.8301 6.46027 21.1701L6.21027 21.2301ZM6.43027 21.5701C6.39027 21.9301 6.37027 22.5101 6.89027 22.8101C7.37027 23.0901 7.87027 22.8701 8.24027 22.2201C8.51027 21.7401 8.40027 21.1601 8.21027 20.6801C8.51027 20.5801 8.84027 20.5801 9.15027 20.5901L9.46027 19.8901L9.34027 19.8201C9.09027 20.4001 8.62027 20.0201 8.01027 20.3201C7.89027 20.1601 7.75027 20.0001 7.55027 19.8901C7.07027 19.6101 6.70027 19.7801 6.68027 19.8201C6.63027 19.9101 6.58027 20.1401 6.54027 20.2501L6.62027 20.2901C6.70027 20.1001 6.78027 20.0001 6.99027 19.9701C7.31027 19.9201 7.67027 20.0901 7.89027 20.4001C7.72027 20.4801 7.56027 20.5601 7.40027 20.6501L6.57027 21.1001C6.59027 20.7501 6.54027 20.4101 6.21027 20.2201C5.93027 20.0601 5.55027 20.1601 5.39027 20.4301C5.14027 20.8601 5.30027 21.2801 5.67027 21.4901C5.90027 21.6301 6.18027 21.6601 6.43027 21.5701Z" fill="black"/>
<path d="M6.96027 22.3501C6.67027 22.1801 6.55027 21.8601 6.56027 21.5401C7.07027 21.2601 7.59027 20.9901 8.09027 20.7301C8.23027 21.0801 8.28028 21.4601 8.14028 21.8201C7.95028 22.3201 7.46027 22.6401 6.96027 22.3501ZM6.21027 21.2301C6.00027 21.2501 5.86027 21.2701 5.67027 21.1601C5.43027 21.0201 5.33027 20.7901 5.48027 20.5401C5.61027 20.3201 5.88027 20.3601 6.08027 20.4701C6.33027 20.6201 6.44027 20.8301 6.46027 21.1701L6.21027 21.2301ZM6.43027 21.5701C6.39027 21.9301 6.37027 22.5101 6.89027 22.8101C7.37027 23.0901 7.87027 22.8701 8.24027 22.2201C8.51027 21.7401 8.40027 21.1601 8.21027 20.6801C8.51027 20.5801 8.84027 20.5801 9.15027 20.5901L9.46027 19.8901L9.34027 19.8201C9.09027 20.4001 8.62027 20.0201 8.01027 20.3201C7.89027 20.1601 7.75027 20.0001 7.55027 19.8901C7.07027 19.6101 6.70027 19.7801 6.68027 19.8201C6.63027 19.9101 6.58027 20.1401 6.54027 20.2501L6.62027 20.2901C6.70027 20.1001 6.78027 20.0001 6.99027 19.9701C7.31027 19.9201 7.67027 20.0901 7.89027 20.4001C7.72027 20.4801 7.56027 20.5601 7.40027 20.6501L6.57027 21.1001C6.59027 20.7501 6.54027 20.4101 6.21027 20.2201C5.93027 20.0601 5.55027 20.1601 5.39027 20.4301C5.14027 20.8601 5.30027 21.2801 5.67027 21.4901C5.90027 21.6301 6.18027 21.6601 6.43027 21.5701Z" fill="black"/>
<path d="M9.84018 16.6992L10.9902 15.2292L12.0602 16.0692L11.8402 16.4792L11.9702 16.5792L12.8202 15.4792L12.6902 15.3792L12.3502 15.6992L10.1302 13.9692L10.3502 13.5492L10.2202 13.4492L9.37018 14.5492L9.49018 14.6492L9.84018 14.3292L10.8002 15.0792L9.65018 16.5592L8.69018 15.8092L8.91018 15.3892L8.78018 15.2892L7.93018 16.3892L8.06018 16.4892L8.40018 16.1692L10.6202 17.8992L10.4002 18.3192L10.5302 18.4192L11.3802 17.3192L11.2602 17.2192L10.9102 17.5392L9.84018 16.6992Z" fill="black"/>
<path d="M13.6203 10.319L13.5003 10.209L12.5803 11.129L12.7003 11.239L13.0803 10.969L14.2303 12.119C14.4103 12.299 14.7103 12.599 14.7303 12.879C14.7703 13.239 14.5603 13.569 14.3903 13.739C13.8803 14.249 13.3503 14.119 12.8703 13.619L11.6603 12.399L11.9303 12.019L11.8203 11.899L10.8403 12.879L10.9503 12.989L11.3303 12.719L12.6703 14.059C13.1703 14.589 13.8503 14.649 14.5503 13.949C15.3003 13.199 15.1203 12.479 14.4703 11.829L13.3503 10.709L13.6203 10.319Z" fill="black"/>
<path d="M17.7201 7.16906L17.6301 7.03906L16.8201 7.64906L17.4601 10.1991L15.1701 8.88906L14.3501 9.50906L14.4401 9.63906L14.8901 9.39906L16.3601 11.8191L16.0901 12.1291L16.1901 12.2591L17.0801 11.5891L16.9801 11.4591L16.5801 11.6591L15.2201 9.45906V9.44906H15.2301L17.8701 10.9591L17.9101 10.9291L17.1501 7.92906L17.1401 7.91906L17.1501 7.90906L18.9401 9.87906L18.6201 10.2191L18.7201 10.3491L19.8101 9.52906L19.7101 9.39906L19.3101 9.59906L17.3901 7.51906L17.7201 7.16906Z" fill="black"/>
<path d="M21.5702 7.14922L22.4002 7.80922L22.0302 8.09922L22.1102 8.23922L23.3002 7.57922L23.2202 7.43922L22.8302 7.55922L20.1802 5.44922L19.9702 5.56922L20.4102 8.89922L20.1002 9.16922L20.1802 9.30922L21.2102 8.73922L21.1302 8.59922L20.6902 8.74922L20.5202 7.71922L21.5702 7.14922ZM20.2902 6.13922L21.3702 6.99922L20.4902 7.48922L20.2902 6.13922Z" fill="black"/>
<path d="M21.5702 7.14922L22.4002 7.80922L22.0302 8.09922L22.1102 8.23922L23.3002 7.57922L23.2202 7.43922L22.8302 7.55922L20.1802 5.44922L19.9702 5.56922L20.4102 8.89922L20.1002 9.16922L20.1802 9.30922L21.2102 8.73922L21.1302 8.59922L20.6902 8.74922L20.5202 7.71922L21.5702 7.14922ZM20.2902 6.13922L21.3702 6.99922L20.4902 7.48922L20.2902 6.13922Z" fill="black"/>
<path d="M23.6404 7.27961L23.7004 7.42961L24.8204 6.94961L24.7604 6.79961L24.2804 6.91961L23.3104 4.63961C24.0104 4.95961 26.2404 5.98961 26.6704 6.19961L26.9004 6.09961L25.6904 3.25961L26.0904 2.99961L26.0304 2.84961L24.9304 3.31961L24.9904 3.46961L25.4504 3.35961L26.3604 5.50961L23.2204 4.04961L22.4204 4.38961L22.4804 4.53961L22.9404 4.42961L24.0404 7.02961L23.6404 7.27961Z" fill="black"/>
<path d="M30.9902 1.58984C30.7602 1.60984 30.5202 1.57984 30.2902 1.62984C29.6402 1.76984 29.3402 2.23984 29.4402 2.72984C29.6902 3.89984 31.1802 3.31984 31.3502 4.10984C31.4402 4.51984 31.1902 4.76984 30.8002 4.84984C30.6002 4.88984 30.2202 4.86984 30.0802 4.69984C29.9902 4.57984 29.8902 4.39984 29.8002 4.15984L29.6502 4.22984L29.8702 4.98984C30.1402 5.10984 30.5502 5.09984 30.8702 5.02984C31.5502 4.88984 31.8502 4.38984 31.7202 3.80984C31.5202 2.87984 30.0202 3.41984 29.8402 2.53984C29.7602 2.18984 29.9602 1.91984 30.3102 1.84984C30.7002 1.76984 30.9202 2.02984 31.0602 2.34984L31.2102 2.28984L30.9902 1.58984Z" fill="black"/>
<path d="M33.0704 1.41977L34.1104 1.28977L34.3004 1.73977L34.4504 1.71977L34.2904 1.00977L32.1304 1.26977L32.1504 1.42977L32.6204 1.44977L32.9604 4.24977L32.5004 4.38977L32.5204 4.54977L34.9004 4.25977L34.9904 3.43977L34.8204 3.45977L34.7004 3.98977L33.4004 4.14977L33.2404 2.86977L34.1104 2.75977L34.2404 3.10977L34.3804 3.08977C34.3204 2.83977 34.2704 2.39977 34.2604 2.13977L34.1204 2.15977L34.0704 2.51977L33.2104 2.61977L33.0704 1.41977Z" fill="black"/>
<path d="M36.5201 1.00936C36.6001 0.989362 36.6801 0.979362 36.7801 0.979362C37.3101 0.969362 37.5901 1.25936 37.6001 1.78936C37.6101 2.44936 37.3301 2.48936 36.7501 2.49936C36.6801 2.49936 36.6001 2.49936 36.5501 2.49936L36.5201 1.00936ZM35.6201 3.95936V4.11936L37.0301 4.09936V3.93936L36.5701 3.86936L36.5501 2.69936C36.7301 2.69936 36.9001 2.68936 37.0501 2.66936C37.3601 3.09936 37.7001 3.54936 38.0701 3.96936C38.1001 3.99936 38.2801 4.03936 38.3901 4.06936L38.7501 4.14936L38.7901 4.00936C38.4901 3.88936 38.2701 3.58936 38.0901 3.35936L37.4701 2.55936C37.7901 2.32936 38.0601 1.97936 38.0501 1.57936C38.0401 1.01936 37.5901 0.779362 37.1101 0.789362L35.5601 0.819362V0.979362L36.0501 1.04936L36.1001 3.86936L35.6201 3.95936Z" fill="black"/>
<path d="M36.5201 1.00936C36.6001 0.989362 36.6801 0.979362 36.7801 0.979362C37.3101 0.969362 37.5901 1.25936 37.6001 1.78936C37.6101 2.44936 37.3301 2.48936 36.7501 2.49936C36.6801 2.49936 36.6001 2.49936 36.5501 2.49936L36.5201 1.00936ZM35.6201 3.95936V4.11936L37.0301 4.09936V3.93936L36.5701 3.86936L36.5501 2.69936C36.7301 2.69936 36.9001 2.68936 37.0501 2.66936C37.3601 3.09936 37.7001 3.54936 38.0701 3.96936C38.1001 3.99936 38.2801 4.03936 38.3901 4.06936L38.7501 4.14936L38.7901 4.00936C38.4901 3.88936 38.2701 3.58936 38.0901 3.35936L37.4701 2.55936C37.7901 2.32936 38.0601 1.97936 38.0501 1.57936C38.0401 1.01936 37.5901 0.779362 37.1101 0.789362L35.5601 0.819362V0.979362L36.0501 1.04936L36.1001 3.86936L35.6201 3.95936Z" fill="black"/>
<path d="M40.2403 1.00922L40.7103 0.959219L40.7203 0.799219L39.3303 0.699219L39.3203 0.859219L39.7803 0.969219L40.7503 4.13922L40.9403 4.14922C41.3003 3.32922 41.9203 1.93922 42.3203 1.13922L42.6503 1.07922L42.6603 0.919219L41.5703 0.839219L41.5603 0.999219L42.0203 1.10922L40.9903 3.39922L40.2403 1.00922Z" fill="black"/>
<path d="M44.4802 1.34953L44.5002 1.18953L43.1302 1.01953L43.1002 1.17953L43.5602 1.31953L43.2102 4.11953L42.7402 4.13953L42.7202 4.29953L44.1002 4.46953L44.1202 4.30953L43.6702 4.16953L44.0102 1.37953L44.4802 1.34953Z" fill="black"/>
<path d="M48.3301 2.06955C47.9801 1.88955 47.4401 1.69955 47.1101 1.62955C45.9401 1.37955 45.1801 1.85955 44.9601 2.89955C44.7001 4.12955 45.4101 4.78955 46.4601 5.00955C46.7601 5.06955 47.0901 5.09955 47.4401 5.08955L47.9101 4.53955L47.8101 4.41955C47.4701 4.78955 47.0401 4.91955 46.5601 4.81955C45.7001 4.63955 45.2501 3.74955 45.4501 2.79955C45.6301 1.93955 46.2101 1.66955 47.0401 1.83955C47.9201 2.02955 48.0801 2.44955 48.0401 2.87955L48.2001 2.90955L48.3301 2.06955Z" fill="black"/>
<path d="M50.2204 2.85859L51.2104 3.19859L51.1804 3.67859L51.3204 3.72859L51.4904 3.01859L49.4304 2.30859L49.3804 2.45859L49.7904 2.68859L48.8703 5.34859L48.4104 5.26859L48.3604 5.41859L50.6304 6.19859L51.0804 5.49859L50.9203 5.43859L50.5704 5.85859L49.3304 5.42859L49.7504 4.20859L50.5804 4.48859L50.5404 4.89859L50.6703 4.94859C50.7303 4.69859 50.8704 4.27859 50.9804 4.04859L50.8503 3.99859L50.6504 4.30859L49.8304 4.02859L50.2204 2.85859Z" fill="black"/>
<path d="M54.41 4.22842C54.21 4.11842 54.03 3.94842 53.82 3.84842C53.22 3.57842 52.69 3.78842 52.49 4.23842C52 5.33842 53.55 5.73842 53.22 6.47842C53.05 6.85842 52.7 6.91842 52.34 6.74842C52.15 6.66842 51.86 6.41842 51.84 6.19842C51.84 6.04842 51.87 5.83842 51.93 5.59842L51.77 5.56842L51.5 6.31842C51.65 6.56842 51.99 6.80842 52.29 6.93842C52.92 7.21842 53.45 6.99842 53.7 6.44842C54.09 5.57842 52.56 5.13842 52.92 4.30842C53.07 3.97842 53.38 3.88842 53.7 4.02842C54.07 4.18842 54.09 4.52842 54.01 4.87842L54.16 4.91842L54.41 4.22842Z" fill="black"/>
<path d="M55.95 6.89839C56.05 6.68839 55.97 6.43839 55.77 6.33839C55.56 6.22839 55.31 6.30839 55.21 6.51839C55.11 6.72839 55.19 6.97839 55.39 7.07839C55.59 7.18839 55.84 7.09839 55.95 6.89839Z" fill="black"/>
<path d="M61.1202 8.26984L61.2102 8.13984L60.1202 7.42984L60.0302 7.56984L60.3702 7.88984L59.4902 9.24984C59.3502 9.45984 59.1202 9.80984 58.8502 9.89984C58.5102 10.0098 58.1402 9.87984 57.9402 9.74984C57.3302 9.34984 57.3502 8.80984 57.7502 8.22984L58.6802 6.78984L59.1102 6.97984L59.2002 6.84984L58.0402 6.08984L57.9502 6.21984L58.3002 6.53984L57.2702 8.12984C56.8602 8.72984 56.9402 9.40984 57.7702 9.94984C58.6602 10.5298 59.3302 10.1998 59.8302 9.42984L60.6902 8.09984L61.1202 8.26984Z" fill="black"/>
<path d="M63.36 9.98893C63.2 9.82893 63.08 9.61893 62.9 9.46893C62.39 9.03893 61.83 9.08893 61.51 9.47893C60.74 10.3989 62.12 11.2189 61.6 11.8289C61.33 12.1489 60.98 12.1089 60.68 11.8489C60.53 11.7189 60.31 11.3989 60.36 11.1789C60.39 11.0389 60.48 10.8389 60.61 10.6289L60.47 10.5589L60 11.1989C60.07 11.4789 60.34 11.8089 60.58 12.0089C61.11 12.4589 61.68 12.3889 62.07 11.9289C62.68 11.1989 61.33 10.3489 61.91 9.65893C62.14 9.38893 62.47 9.37893 62.74 9.59893C63.05 9.85893 62.98 10.1889 62.81 10.4989L62.94 10.5789L63.36 9.98893Z" fill="black"/>
<path d="M64.3304 13.7198L63.9203 14.6998L63.5404 14.4298L63.4203 14.5498L64.3904 15.5198L64.5004 15.3998L64.2703 15.0598L65.5603 11.9298L65.3904 11.7598L62.3104 13.0998L61.9704 12.8698L61.8604 12.9798L62.7004 13.8198L62.8104 13.6998L62.5404 13.3198L63.4804 12.8698L64.3304 13.7198ZM64.9604 12.2098L64.4304 13.4798L63.7204 12.7698L64.9604 12.2098Z" fill="black"/>
<path d="M64.3304 13.7198L63.9203 14.6998L63.5404 14.4298L63.4203 14.5498L64.3904 15.5198L64.5004 15.3998L64.2703 15.0598L65.5603 11.9298L65.3904 11.7598L62.3104 13.0998L61.9704 12.8698L61.8604 12.9798L62.7004 13.8198L62.8104 13.6998L62.5404 13.3198L63.4804 12.8698L64.3304 13.7198ZM64.9604 12.2098L64.4304 13.4798L63.7204 12.7698L64.9604 12.2098Z" fill="black"/>
<path d="M70.5601 13.6702C71.0701 16.3602 68.9801 18.4102 66.9501 20.0002L59.9201 25.4202C59.9201 25.4202 46.8601 35.4502 46.2701 36.1602C44.2701 38.2202 43.9001 44.0602 42.4601 47.9102C41.1601 50.6602 39.6701 51.0702 34.4301 50.9702H28.3001C27.6301 50.9602 27.3101 51.0602 26.9301 51.8702L26.2901 51.8302C26.1701 50.1102 26.5801 48.6002 28.1201 47.7402C28.9101 47.4002 29.7701 47.4902 30.6401 47.4902C33.2301 47.4902 35.1001 47.4902 37.7901 47.4902C38.5601 47.4302 39.1001 47.2002 39.3501 46.6002C40.6201 41.6802 40.5201 36.0302 45.0701 32.6402L59.4201 21.5002C62.6701 18.6502 67.6701 16.1602 68.6601 11.6602C69.7401 11.8802 70.2301 12.7002 70.5601 13.6702Z" fill="black"/>
<path d="M75.2601 19.1694C75.8401 21.2494 73.3901 23.0494 71.7501 24.4894L63.0201 31.4194L52.3801 39.8494C50.5801 41.4594 50.6001 44.1494 50.1701 46.4794C50.1401 47.2994 51.2101 47.8594 50.6801 48.7694C49.7501 50.3394 48.6801 50.9994 49.2301 51.7294C49.6501 52.2994 52.0801 51.7094 51.0401 53.5594C50.8601 54.5394 52.9301 53.6494 51.8601 54.4494C51.5201 55.0694 51.9301 55.3494 52.3801 55.3894C52.9901 55.6394 51.9501 56.7494 52.5001 57.5194C54.1901 59.6194 60.1501 56.6394 60.5301 60.3294C60.7501 64.4094 52.2601 64.0294 54.4001 69.2894C54.8801 70.3494 55.9701 70.7594 57.0201 70.8694C57.4701 70.8894 57.9201 70.8294 58.7001 70.6994L58.8901 71.1094C58.8901 71.1094 58.6301 71.3694 57.8801 71.8594C56.3501 72.8094 53.5501 73.7894 51.8001 72.6394C50.6401 71.7794 50.1101 70.6894 50.0801 69.3594C50.2101 65.9094 54.2801 65.4994 55.9001 62.8394C56.2001 62.3794 56.1301 61.5694 55.8001 61.1294C54.5401 59.3394 52.1301 59.7694 50.0801 59.8194C49.1901 59.7894 48.4901 59.3994 48.3701 58.5094C48.2701 57.6094 48.7701 57.1294 48.4501 56.7294C48.1401 56.3994 47.6001 56.4294 47.4601 55.9994C47.3901 55.7794 47.4501 55.6394 47.7301 55.3494C48.5301 54.8394 46.2001 55.2294 47.0201 54.0194C47.2501 53.8394 47.3201 53.5894 47.2601 53.2894C46.7801 52.3894 45.3401 53.2894 45.0101 52.2394C44.7601 50.9694 48.3501 49.2194 46.4301 47.1894C46.4401 47.1294 46.3901 47.0194 46.3801 46.9494C46.3601 45.8494 47.3001 41.5394 48.3601 39.1394C48.9701 37.8594 50.4601 36.8894 51.5701 35.9294L69.2401 22.0794C71.0501 20.6194 72.9601 19.2094 73.2601 16.8594C74.4001 17.2294 75.0301 18.2094 75.2601 19.1694Z" fill="black"/>
<path d="M72.3402 28.7099C72.7102 29.9799 72.6202 31.8099 71.5102 32.8299L69.7502 34.3299L58.0902 43.4599C56.9102 44.6499 56.8802 46.4899 57.2102 48.0699C57.8302 49.0699 56.1102 50.1899 56.8902 50.6899C57.1602 50.8199 57.6502 50.6799 57.8302 51.0299C58.1502 51.4799 57.5202 51.9699 58.1002 52.1899C58.3202 52.2199 58.4802 52.2199 58.6102 52.1799C59.1002 52.2299 58.0102 52.7099 58.5802 53.1899C60.4602 53.3999 58.2902 55.6899 61.0102 55.0999C63.6802 54.4999 66.2802 53.1099 69.2402 53.7899C71.8502 54.2899 74.1502 55.8399 77.0702 55.2999L77.4302 55.1999C77.4402 55.2699 77.2702 55.4999 77.2702 55.4999C75.4702 57.8599 73.2702 59.5199 69.8602 58.6799C67.6302 58.1299 65.5702 55.2699 62.0102 56.3099C60.1902 56.8299 57.3102 57.3599 56.0902 56.6099C55.1602 55.9899 55.9802 55.1999 55.7102 54.5399C55.5202 54.0799 55.2102 54.4699 54.9902 54.0799C54.8102 53.7499 55.5002 53.4699 55.1102 53.2899C54.9102 53.2299 54.5802 53.2099 54.4702 53.1099C54.0202 52.6999 55.1402 51.8499 53.9602 51.6699C53.4102 51.5499 52.6602 51.4899 52.5902 51.0799C52.2302 50.3299 54.5802 49.2199 53.4702 47.3799C53.2002 46.9399 53.5602 43.7699 54.7802 41.9699C55.6402 40.6899 57.7402 39.3499 57.7402 39.3499L70.1402 29.7099C70.9902 28.9999 71.3902 28.6899 71.7502 27.9999C71.9802 27.5399 72.3002 28.5499 72.3402 28.7099Z" fill="black"/>
<path d="M35.8201 55.5597C40.2901 57.2797 45.5901 59.5597 50.0601 62.3397C50.9201 62.9197 51.3001 64.0097 50.9601 65.0497C49.7201 67.8997 44.5401 68.8897 46.1401 72.8797C46.6901 74.2997 48.0101 75.3997 49.5501 75.4897C49.8601 75.5297 50.2601 75.4597 50.8801 75.2597L51.2601 75.7997C50.5201 76.4397 50.1801 76.6497 49.7801 76.9097C48.8601 77.5097 47.4301 78.1197 45.4401 77.7897C44.2801 77.5097 43.1601 76.8897 42.4301 75.7797C41.7301 74.7197 41.6101 73.0097 42.2301 71.8597C43.3801 69.5997 46.7101 68.3097 47.0501 66.4397C47.2201 65.3997 46.1901 64.4697 45.3401 63.9297C38.8801 60.1997 32.0001 57.4997 24.8601 55.4097C23.9601 55.1597 22.5601 54.7097 21.5801 56.0297L21.1001 55.6597C21.1701 54.4597 21.8201 53.2997 22.9301 52.7197C24.8801 51.8397 27.5701 52.8497 29.0701 53.2997L35.8201 55.5597Z" fill="black"/>
<path fill-rule="evenodd" clip-rule="evenodd" d="M38.9904 76.3391C38.7904 76.3591 38.6004 76.3591 38.4004 76.3491C37.4204 76.3291 36.8004 75.8691 36.8204 74.7791C36.8404 73.8791 37.3904 73.3991 38.2004 73.4191C38.5004 73.4191 38.7404 73.4691 39.0404 73.5191L38.9904 76.3391ZM39.9704 73.2591L38.2704 73.2291C37.2004 73.2091 36.3304 73.6991 36.3104 74.9491C36.2904 76.1391 37.1604 76.5091 38.1504 76.5291L39.9104 76.5591V76.3991L39.4504 76.3091L39.5004 73.4891L39.9604 73.4191L39.9704 73.2591Z" fill="black"/>
<path d="M38.9904 76.3391C38.7904 76.3591 38.6004 76.3591 38.4004 76.3491C37.4204 76.3291 36.8004 75.8691 36.8204 74.7791C36.8404 73.8791 37.3904 73.3991 38.2004 73.4191C38.5004 73.4191 38.7404 73.4691 39.0404 73.5191L38.9904 76.3391ZM39.9704 73.2591L38.2704 73.2291C37.2004 73.2091 36.3304 73.6991 36.3104 74.9491C36.2904 76.1391 37.1604 76.5091 38.1504 76.5291L39.9104 76.5591V76.3991L39.4504 76.3091L39.5004 73.4891L39.9604 73.4191L39.9704 73.2591Z" fill="black"/>
<path d="M38.9904 76.3391C38.7904 76.3591 38.6004 76.3591 38.4004 76.3491C37.4204 76.3291 36.8004 75.8691 36.8204 74.7791C36.8404 73.8791 37.3904 73.3991 38.2004 73.4191C38.5004 73.4191 38.7404 73.4691 39.0404 73.5191L38.9904 76.3391ZM39.9704 73.2591L38.2704 73.2291C37.2004 73.2091 36.3304 73.6991 36.3104 74.9491C36.2904 76.1391 37.1604 76.5091 38.1504 76.5291L39.9104 76.5591V76.3991L39.4504 76.3091L39.5004 73.4891L39.9604 73.4191L39.9704 73.2591Z" fill="black"/>
<path d="M34.4603 76.0198L33.4203 75.8898L33.3503 75.4099L33.2003 75.3998L33.1803 76.1298L35.3403 76.3998L35.3603 76.2398L34.9103 76.1098L35.2503 73.3098L35.7203 73.2898L35.7403 73.1298L33.3603 72.8398L33.0703 73.6098L33.2403 73.6298L33.4903 73.1398L34.7903 73.2999L34.6303 74.5798L33.7603 74.4698L33.7203 74.0998L33.5803 74.0798C33.5803 74.3398 33.5203 74.7798 33.4603 75.0298L33.6003 75.0499L33.7303 74.7098L34.5903 74.8198L34.4603 76.0198Z" fill="black"/>
<path d="M34.4603 76.0198L33.4203 75.8898L33.3503 75.4099L33.2003 75.3998L33.1803 76.1298L35.3403 76.3998L35.3603 76.2398L34.9103 76.1098L35.2503 73.3098L35.7203 73.2898L35.7403 73.1298L33.3603 72.8398L33.0703 73.6098L33.2403 73.6298L33.4903 73.1398L34.7903 73.2999L34.6303 74.5798L33.7603 74.4698L33.7203 74.0998L33.5803 74.0798C33.5803 74.3398 33.5203 74.7798 33.4603 75.0298L33.6003 75.0499L33.7303 74.7098L34.5903 74.8198L34.4603 76.0198Z" fill="black"/>
<path d="M32.62 72.8801L32.65 72.7202L31.2 72.4102L31.17 72.5702L31.67 72.7602L31.08 75.5602C30.96 75.5502 30.84 75.5302 30.72 75.5002C30.31 75.4102 30.05 75.1402 30.12 74.6402C30.17 74.2702 30.38 73.8102 31.01 73.9402C31.09 73.9602 31.16 73.9901 31.23 74.0201L31.25 74.0002L31.28 73.8702C31.18 73.8302 31.08 73.7901 30.97 73.7701C30.34 73.6301 29.77 73.9901 29.63 74.6301C29.49 75.2701 29.97 75.5402 30.56 75.6602L31.97 75.9602L32 75.7902L31.54 75.6102L32.13 72.8502L32.62 72.8801Z" fill="black"/>
<path d="M32.62 72.8801L32.65 72.7202L31.2 72.4102L31.17 72.5702L31.67 72.7602L31.08 75.5602C30.96 75.5502 30.84 75.5302 30.72 75.5002C30.31 75.4102 30.05 75.1402 30.12 74.6402C30.17 74.2702 30.38 73.8102 31.01 73.9402C31.09 73.9602 31.16 73.9901 31.23 74.0201L31.25 74.0002L31.28 73.8702C31.18 73.8302 31.08 73.7901 30.97 73.7701C30.34 73.6301 29.77 73.9901 29.63 74.6301C29.49 75.2701 29.97 75.5402 30.56 75.6602L31.97 75.9602L32 75.7902L31.54 75.6102L32.13 72.8502L32.62 72.8801Z" fill="black"/>
<path fill-rule="evenodd" clip-rule="evenodd" d="M27.4203 72.6091L27.3603 71.5491L27.8203 71.6291L27.8703 71.4791L26.5803 71.0391L26.5303 71.1891L26.8803 71.3991L27.0903 74.7791L27.3203 74.8591L29.5103 72.2991L29.9203 72.3591L29.9703 72.2091L28.8503 71.8291L28.8003 71.9791L29.2103 72.2091L28.5503 72.9991L27.4203 72.6091ZM27.5203 74.2391L27.4403 72.8691L28.3903 73.1991L27.5203 74.2391Z" fill="black"/>
<path d="M27.4203 72.6091L27.3603 71.5491L27.8203 71.6291L27.8703 71.4791L26.5803 71.0391L26.5303 71.1891L26.8803 71.3991L27.0903 74.7791L27.3203 74.8591L29.5103 72.2991L29.9203 72.3591L29.9703 72.2091L28.8503 71.8291L28.8003 71.9791L29.2103 72.2091L28.5503 72.9991L27.4203 72.6091ZM27.5203 74.2391L27.4403 72.8691L28.3903 73.1991L27.5203 74.2391Z" fill="black"/>
<path d="M27.4203 72.6091L27.3603 71.5491L27.8203 71.6291L27.8703 71.4791L26.5803 71.0391L26.5303 71.1891L26.8803 71.3991L27.0903 74.7791L27.3203 74.8591L29.5103 72.2991L29.9203 72.3591L29.9703 72.2091L28.8503 71.8291L28.8003 71.9791L29.2103 72.2091L28.5503 72.9991L27.4203 72.6091ZM27.5203 74.2391L27.4403 72.8691L28.3903 73.1991L27.5203 74.2391Z" fill="black"/>
<path fill-rule="evenodd" clip-rule="evenodd" d="M24.0201 73.3784C23.9401 73.3684 23.8601 73.3384 23.7801 73.2984C23.2901 73.0784 23.1701 72.6984 23.3801 72.2184C23.6501 71.6084 23.9101 71.6984 24.4501 71.9384C24.5101 71.9684 24.5801 71.9984 24.6301 72.0184L24.0201 73.3784ZM26.0901 71.0784L26.1501 70.9284L24.8601 70.3484L24.8001 70.4984L25.1901 70.7584L24.7201 71.8184C24.5601 71.7484 24.4001 71.6784 24.2601 71.6284C24.1701 71.1084 24.0401 70.5484 23.8801 70.0184C23.8701 69.9784 23.7201 69.8684 23.6301 69.7984L23.3401 69.5684L23.2401 69.6784C23.4601 69.9084 23.5301 70.2784 23.6001 70.5684L23.8301 71.5584C23.4401 71.6284 23.0601 71.8384 22.8901 72.2084C22.6601 72.7184 22.9701 73.1284 23.4001 73.3184L24.8201 73.9484L24.8801 73.7984L24.4701 73.5284L25.6201 70.9584L26.0901 71.0784Z" fill="black"/>
<path d="M24.0201 73.3784C23.9401 73.3684 23.8601 73.3384 23.7801 73.2984C23.2901 73.0784 23.1701 72.6984 23.3801 72.2184C23.6501 71.6084 23.9101 71.6984 24.4501 71.9384C24.5101 71.9684 24.5801 71.9984 24.6301 72.0184L24.0201 73.3784ZM26.0901 71.0784L26.1501 70.9284L24.8601 70.3484L24.8001 70.4984L25.1901 70.7584L24.7201 71.8184C24.5601 71.7484 24.4001 71.6784 24.2601 71.6284C24.1701 71.1084 24.0401 70.5484 23.8801 70.0184C23.8701 69.9784 23.7201 69.8684 23.6301 69.7984L23.3401 69.5684L23.2401 69.6784C23.4601 69.9084 23.5301 70.2784 23.6001 70.5684L23.8301 71.5584C23.4401 71.6284 23.0601 71.8384 22.8901 72.2084C22.6601 72.7184 22.9701 73.1284 23.4001 73.3184L24.8201 73.9484L24.8801 73.7984L24.4701 73.5284L25.6201 70.9584L26.0901 71.0784Z" fill="black"/>
<path d="M24.0201 73.3784C23.9401 73.3684 23.8601 73.3384 23.7801 73.2984C23.2901 73.0784 23.1701 72.6984 23.3801 72.2184C23.6501 71.6084 23.9101 71.6984 24.4501 71.9384C24.5101 71.9684 24.5801 71.9984 24.6301 72.0184L24.0201 73.3784ZM26.0901 71.0784L26.1501 70.9284L24.8601 70.3484L24.8001 70.4984L25.1901 70.7584L24.7201 71.8184C24.5601 71.7484 24.4001 71.6784 24.2601 71.6284C24.1701 71.1084 24.0401 70.5484 23.8801 70.0184C23.8701 69.9784 23.7201 69.8684 23.6301 69.7984L23.3401 69.5684L23.2401 69.6784C23.4601 69.9084 23.5301 70.2784 23.6001 70.5684L23.8301 71.5584C23.4401 71.6284 23.0601 71.8384 22.8901 72.2084C22.6601 72.7184 22.9701 73.1284 23.4001 73.3184L24.8201 73.9484L24.8801 73.7984L24.4701 73.5284L25.6201 70.9584L26.0901 71.0784Z" fill="black"/>
<path d="M22.2401 69.2789L22.3201 69.1389L21.0101 68.3789L20.9301 68.5189L21.3401 68.8489L19.9401 71.2689L19.4201 70.9689C19.2701 70.8789 19.1301 70.7889 19.0001 70.7089L19.1601 70.1989L19.0101 70.1089L18.6401 70.8289L21.3201 72.3789L21.8101 71.7289L21.6701 71.6489L21.2601 72.0189C21.1301 71.9589 20.9901 71.8889 20.8401 71.7989L20.3301 71.5089L21.7301 69.0889L22.2401 69.2789Z" fill="black"/>
<path d="M22.2401 69.2789L22.3201 69.1389L21.0101 68.3789L20.9301 68.5189L21.3401 68.8489L19.9401 71.2689L19.4201 70.9689C19.2701 70.8789 19.1301 70.7889 19.0001 70.7089L19.1601 70.1989L19.0101 70.1089L18.6401 70.8289L21.3201 72.3789L21.8101 71.7289L21.6701 71.6489L21.2601 72.0189C21.1301 71.9589 20.9901 71.8889 20.8401 71.7989L20.3301 71.5089L21.7301 69.0889L22.2401 69.2789Z" fill="black"/>
<path d="M14.5802 67.7796L14.4902 67.9096L15.3002 68.4996L17.5602 67.1396L16.9802 69.7196L17.8102 70.3196L17.9002 70.1896L17.5502 69.8296L19.4302 67.7196L19.8002 67.8896L19.9002 67.7596L18.9902 67.1096L18.9002 67.2396L19.2102 67.5596L17.5002 69.4996V69.5096L17.4902 69.4996L18.1602 66.5296L18.1202 66.4996L15.4802 68.1096H15.4702H15.4602L16.8202 65.8196L17.2402 66.0296L17.3302 65.8996L16.2302 65.0996L16.1302 65.2196L16.4402 65.5496L15.0102 67.9896L14.5802 67.7796Z" fill="black"/>
<path d="M14.5802 67.7796L14.4902 67.9096L15.3002 68.4996L17.5602 67.1396L16.9802 69.7196L17.8102 70.3196L17.9002 70.1896L17.5502 69.8296L19.4302 67.7196L19.8002 67.8896L19.9002 67.7596L18.9902 67.1096L18.9002 67.2396L19.2102 67.5596L17.5002 69.4996V69.5096L17.4902 69.4996L18.1602 66.5296L18.1202 66.4996L15.4802 68.1096H15.4702H15.4602L16.8202 65.8196L17.2402 66.0296L17.3302 65.8996L16.2302 65.0996L16.1302 65.2196L16.4402 65.5496L15.0102 67.9896L14.5802 67.7796Z" fill="black"/>
<path d="M13.0402 66.2095L12.3002 65.4695L12.5402 65.0495L12.4402 64.9495L11.9702 65.5095L13.5102 67.0495L13.6202 66.9395L13.3502 66.5595L15.3402 64.5595L15.7202 64.8295L15.8302 64.7195L14.1302 63.0195L13.4202 63.4495L13.5402 63.5695L14.0402 63.3395L14.9702 64.2695L14.0602 65.1795L13.4402 64.5595L13.6402 64.2395L13.5402 64.1395C13.3802 64.3395 13.0702 64.6495 12.8602 64.8095L12.9602 64.9095L13.2702 64.7195L13.8802 65.3395L13.0402 66.2095Z" fill="black"/>
<path d="M13.0402 66.2095L12.3002 65.4695L12.5402 65.0495L12.4402 64.9495L11.9702 65.5095L13.5102 67.0495L13.6202 66.9395L13.3502 66.5595L15.3402 64.5595L15.7202 64.8295L15.8302 64.7195L14.1302 63.0195L13.4202 63.4495L13.5402 63.5695L14.0402 63.3395L14.9702 64.2695L14.0602 65.1795L13.4402 64.5595L13.6402 64.2395L13.5402 64.1395C13.3802 64.3395 13.0702 64.6495 12.8602 64.8095L12.9602 64.9095L13.2702 64.7195L13.8802 65.3395L13.0402 66.2095Z" fill="black"/>
<path d="M13.4703 62.6997L13.5903 62.5997L12.8103 61.6697L12.6903 61.7697L12.9403 62.1897L11.0403 63.7797C11.1403 63.0197 11.4803 60.5797 11.5403 60.1097L11.3903 59.9297L9.03029 61.9197L8.67029 61.6197L8.55029 61.7197L9.32029 62.6397L9.44029 62.5397L9.21029 62.1297L11.0003 60.6297L10.5203 64.0597L11.0803 64.7197L11.2003 64.6197L10.9603 64.2097L13.1203 62.3997L13.4703 62.6997Z" fill="black"/>
<path d="M13.4703 62.6997L13.5903 62.5997L12.8103 61.6697L12.6903 61.7697L12.9403 62.1897L11.0403 63.7797C11.1403 63.0197 11.4803 60.5797 11.5403 60.1097L11.3903 59.9297L9.03029 61.9197L8.67029 61.6197L8.55029 61.7197L9.32029 62.6397L9.44029 62.5397L9.21029 62.1297L11.0003 60.6297L10.5203 64.0597L11.0803 64.7197L11.2003 64.6197L10.9603 64.2097L13.1203 62.3997L13.4703 62.6997Z" fill="black"/>
<path d="M10.1903 58.6095L10.3203 58.5195L9.47027 57.2695L9.34027 57.3595L9.57027 57.8395L7.25027 59.3995L6.92027 58.8995C6.82027 58.7495 6.73027 58.6095 6.66027 58.4795L7.03027 58.0895L6.93027 57.9395L6.28027 58.4295L8.01027 60.9995L8.74027 60.6295L8.65027 60.4895L8.12027 60.6395C8.03027 60.5295 7.93027 60.3995 7.84027 60.2595L7.51027 59.7695L9.83027 58.2095L10.1903 58.6095Z" fill="black"/>
<path d="M10.1903 58.6095L10.3203 58.5195L9.47027 57.2695L9.34027 57.3595L9.57027 57.8395L7.25027 59.3995L6.92027 58.8995C6.82027 58.7495 6.73027 58.6095 6.66027 58.4795L7.03027 58.0895L6.93027 57.9395L6.28027 58.4295L8.01027 60.9995L8.74027 60.6295L8.65027 60.4895L8.12027 60.6395C8.03027 60.5295 7.93027 60.3995 7.84027 60.2595L7.51027 59.7695L9.83027 58.2095L10.1903 58.6095Z" fill="black"/>
<path fill-rule="evenodd" clip-rule="evenodd" d="M3.98041 54.0701C4.39041 55.0201 5.26041 55.3401 6.26041 54.9201C7.13041 54.5501 7.58041 53.7301 7.11041 52.6201C6.71041 51.6801 5.85041 51.3201 4.97041 51.6901C3.97041 52.1201 3.51041 52.9601 3.98041 54.0701ZM5.86041 54.5401C5.07041 54.8801 4.43041 54.6701 4.15041 54.0201C3.88041 53.3901 4.20041 52.5601 5.11041 52.1701C5.82041 51.8701 6.58041 51.8501 6.92041 52.6601C7.25041 53.4201 6.82041 54.1401 5.86041 54.5401Z" fill="black"/>
<path d="M3.98041 54.0701C4.39041 55.0201 5.26041 55.3401 6.26041 54.9201C7.13041 54.5501 7.58041 53.7301 7.11041 52.6201C6.71041 51.6801 5.85041 51.3201 4.97041 51.6901C3.97041 52.1201 3.51041 52.9601 3.98041 54.0701ZM5.86041 54.5401C5.07041 54.8801 4.43041 54.6701 4.15041 54.0201C3.88041 53.3901 4.20041 52.5601 5.11041 52.1701C5.82041 51.8701 6.58041 51.8501 6.92041 52.6601C7.25041 53.4201 6.82041 54.1401 5.86041 54.5401Z" fill="black"/>
<path d="M3.98041 54.0701C4.39041 55.0201 5.26041 55.3401 6.26041 54.9201C7.13041 54.5501 7.58041 53.7301 7.11041 52.6201C6.71041 51.6801 5.85041 51.3201 4.97041 51.6901C3.97041 52.1201 3.51041 52.9601 3.98041 54.0701ZM5.86041 54.5401C5.07041 54.8801 4.43041 54.6701 4.15041 54.0201C3.88041 53.3901 4.20041 52.5601 5.11041 52.1701C5.82041 51.8701 6.58041 51.8501 6.92041 52.6601C7.25041 53.4201 6.82041 54.1401 5.86041 54.5401Z" fill="black"/>
<path d="M4.37006 49.0089L4.33006 48.8789C4.10006 48.9889 3.68006 49.1189 3.42006 49.1689L3.46006 49.2989L3.83006 49.2789L4.12006 50.1789L2.96006 50.5589L2.63006 49.5389L3.06006 49.2789L3.01006 49.1289L2.31006 49.4189L3.01006 51.5689L3.16006 51.5189L3.08006 51.0089L5.76006 50.1389L6.00006 50.5989L6.15006 50.5489L5.69006 49.1389L5.54006 49.1889L5.62006 49.6989L4.35006 50.1089L4.06006 49.1989L4.37006 49.0089Z" fill="black"/>
<path d="M4.37006 49.0089L4.33006 48.8789C4.10006 48.9889 3.68006 49.1189 3.42006 49.1689L3.46006 49.2989L3.83006 49.2789L4.12006 50.1789L2.96006 50.5589L2.63006 49.5389L3.06006 49.2789L3.01006 49.1289L2.31006 49.4189L3.01006 51.5689L3.16006 51.5189L3.08006 51.0089L5.76006 50.1389L6.00006 50.5989L6.15006 50.5489L5.69006 49.1389L5.54006 49.1889L5.62006 49.6989L4.35006 50.1089L4.06006 49.1989L4.37006 49.0089Z" fill="black"/>
<path d="M3.07016 45.3288L2.74016 43.4888L4.08016 43.2488L4.24016 43.6888L4.40016 43.6588L4.16016 42.2988L4.00016 42.3188V42.7888L1.23016 43.2788L1.07016 42.8388L0.910156 42.8688L1.15016 44.2388L1.31016 44.2088V43.7388L2.51016 43.5288L2.83016 45.3688L1.63016 45.5788L1.47016 45.1388L1.31016 45.1688L1.55016 46.5388L1.71016 46.5088V46.0388L4.49016 45.5488L4.65016 45.9888L4.80016 45.9588L4.56016 44.5888L4.41016 44.6188V45.0888L3.07016 45.3288Z" fill="black"/>
<path d="M3.07016 45.3288L2.74016 43.4888L4.08016 43.2488L4.24016 43.6888L4.40016 43.6588L4.16016 42.2988L4.00016 42.3188V42.7888L1.23016 43.2788L1.07016 42.8388L0.910156 42.8688L1.15016 44.2388L1.31016 44.2088V43.7388L2.51016 43.5288L2.83016 45.3688L1.63016 45.5788L1.47016 45.1388L1.31016 45.1688L1.55016 46.5388L1.71016 46.5088V46.0388L4.49016 45.5488L4.65016 45.9888L4.80016 45.9588L4.56016 44.5888L4.41016 44.6188V45.0888L3.07016 45.3288Z" fill="black"/>
<path d="M1.1 41.08L1.03 40.04L1.48 39.88L1.47 39.73L0.75 39.85L0.9 42.02L1.06 42.01L1.11 41.54L3.92 41.34L4.03 41.8L4.19 41.79L4.02 39.39L3.21 39.25L3.22 39.42L3.75 39.58L3.84 40.89L2.55 40.98L2.49 40.11L2.85 40L2.84 39.86C2.59 39.91 2.14 39.94 1.89 39.93L1.9 40.07L2.26 40.13L2.31 41L1.1 41.08Z" fill="black"/>
<path d="M1.1 41.08L1.03 40.04L1.48 39.88L1.47 39.73L0.75 39.85L0.9 42.02L1.06 42.01L1.11 41.54L3.92 41.34L4.03 41.8L4.19 41.79L4.02 39.39L3.21 39.25L3.22 39.42L3.75 39.58L3.84 40.89L2.55 40.98L2.49 40.11L2.85 40L2.84 39.86C2.59 39.91 2.14 39.94 1.89 39.93L1.9 40.07L2.26 40.13L2.31 41L1.1 41.08Z" fill="black"/>
<path fill-rule="evenodd" clip-rule="evenodd" d="M2.8502 36.5187L3.8402 36.1287L3.9102 36.5887H4.0702L4.0902 35.2188H3.9302L3.8402 35.6187L0.700195 36.8687V37.1087L3.8002 38.3988L3.8702 38.7987H4.0302L4.0502 37.6187H3.8902L3.8002 38.0788L2.8202 37.7087L2.8502 36.5187ZM1.3302 37.1087L2.6102 36.6087L2.5902 37.6187L1.3302 37.1087Z" fill="black"/>
<path d="M2.8502 36.5187L3.8402 36.1287L3.9102 36.5887H4.0702L4.0902 35.2188H3.9302L3.8402 35.6187L0.700195 36.8687V37.1087L3.8002 38.3988L3.8702 38.7987H4.0302L4.0502 37.6187H3.8902L3.8002 38.0788L2.8202 37.7087L2.8502 36.5187ZM1.3302 37.1087L2.6102 36.6087L2.5902 37.6187L1.3302 37.1087Z" fill="black"/>
<path d="M2.8502 36.5187L3.8402 36.1287L3.9102 36.5887H4.0702L4.0902 35.2188H3.9302L3.8402 35.6187L0.700195 36.8687V37.1087L3.8002 38.3988L3.8702 38.7987H4.0302L4.0502 37.6187H3.8902L3.8002 38.0788L2.8202 37.7087L2.8502 36.5187ZM1.3302 37.1087L2.6102 36.6087L2.5902 37.6187L1.3302 37.1087Z" fill="black"/>
<path d="M4.20996 34.7193L4.61996 32.3993L3.73996 32.0293L3.70996 32.1893L4.28996 32.5693L4.08996 33.7493L1.35996 33.2693V32.7993L1.19996 32.7793L0.959961 34.1393L1.11996 34.1693L1.27996 33.7293L4.04996 34.2193V34.6893L4.20996 34.7193Z" fill="black"/>
<path d="M4.20996 34.7193L4.61996 32.3993L3.73996 32.0293L3.70996 32.1893L4.28996 32.5693L4.08996 33.7493L1.35996 33.2693V32.7993L1.19996 32.7793L0.959961 34.1393L1.11996 34.1693L1.27996 33.7293L4.04996 34.2193V34.6893L4.20996 34.7193Z" fill="black"/>
<path d="M4.65016 31.3794L4.81016 31.4194L5.18016 29.9494L5.02016 29.9094L4.81016 30.3994L2.10016 29.7294L2.24016 29.1494C2.28016 28.9794 2.33016 28.8194 2.38016 28.6694L2.92016 28.6894L2.96016 28.5194L2.16016 28.3594L1.41016 31.3694L2.17016 31.6594L2.21016 31.4994L1.75016 31.1994C1.78016 31.0594 1.80016 30.8994 1.85016 30.7394L1.99016 30.1694L4.70016 30.8494L4.65016 31.3794Z" fill="black"/>
<path d="M4.65016 31.3794L4.81016 31.4194L5.18016 29.9494L5.02016 29.9094L4.81016 30.3994L2.10016 29.7294L2.24016 29.1494C2.28016 28.9794 2.33016 28.8194 2.38016 28.6694L2.92016 28.6894L2.96016 28.5194L2.16016 28.3594L1.41016 31.3694L2.17016 31.6594L2.21016 31.4994L1.75016 31.1994C1.78016 31.0594 1.80016 30.8994 1.85016 30.7394L1.99016 30.1694L4.70016 30.8494L4.65016 31.3794Z" fill="black"/>
<path d="M4.27035 27.3289L4.88035 25.5589L6.17035 26.0089L6.09035 26.4689L6.25035 26.5189L6.70035 25.2089L6.54035 25.1589L6.32035 25.5689L3.66035 24.6489L3.73035 24.1889L3.58035 24.1289L3.13035 25.4489L3.28035 25.4989L3.50035 25.0889L4.66035 25.4889L4.05035 27.2589L2.89035 26.8589L2.97035 26.3889L2.82035 26.3389L2.36035 27.6589L2.52035 27.7089L2.74035 27.2989L5.41035 28.2089L5.33035 28.6789L5.48035 28.7289L5.94035 27.4189L5.79035 27.3589L5.56035 27.7789L4.27035 27.3289Z" fill="black"/>
<path d="M4.27035 27.3289L4.88035 25.5589L6.17035 26.0089L6.09035 26.4689L6.25035 26.5189L6.70035 25.2089L6.54035 25.1589L6.32035 25.5689L3.66035 24.6489L3.73035 24.1889L3.58035 24.1289L3.13035 25.4489L3.28035 25.4989L3.50035 25.0889L4.66035 25.4889L4.05035 27.2589L2.89035 26.8589L2.97035 26.3889L2.82035 26.3389L2.36035 27.6589L2.52035 27.7089L2.74035 27.2989L5.41035 28.2089L5.33035 28.6789L5.48035 28.7289L5.94035 27.4189L5.79035 27.3589L5.56035 27.7789L4.27035 27.3289Z" fill="black"/>
<path fill-rule="evenodd" clip-rule="evenodd" d="M6.96027 22.3501C6.67027 22.1801 6.55027 21.8601 6.56027 21.5401C7.07027 21.2601 7.59027 20.9901 8.09027 20.7301C8.23027 21.0801 8.28028 21.4601 8.14028 21.8201C7.95028 22.3201 7.46027 22.6401 6.96027 22.3501ZM6.21027 21.2301C6.00027 21.2501 5.86027 21.2701 5.67027 21.1601C5.43027 21.0201 5.33027 20.7901 5.48027 20.5401C5.61027 20.3201 5.88027 20.3601 6.08027 20.4701C6.33027 20.6201 6.44027 20.8301 6.46027 21.1701L6.21027 21.2301ZM6.43027 21.5701C6.39027 21.9301 6.37027 22.5101 6.89027 22.8101C7.37027 23.0901 7.87027 22.8701 8.24027 22.2201C8.51027 21.7401 8.40027 21.1601 8.21027 20.6801C8.51027 20.5801 8.84027 20.5801 9.15027 20.5901L9.46027 19.8901L9.34027 19.8201C9.09027 20.4001 8.62027 20.0201 8.01027 20.3201C7.89027 20.1601 7.75027 20.0001 7.55027 19.8901C7.07027 19.6101 6.70027 19.7801 6.68027 19.8201C6.63027 19.9101 6.58027 20.1401 6.54027 20.2501L6.62027 20.2901C6.70027 20.1001 6.78027 20.0001 6.99027 19.9701C7.31027 19.9201 7.67027 20.0901 7.89027 20.4001C7.72027 20.4801 7.56027 20.5601 7.40027 20.6501L6.57027 21.1001C6.59027 20.7501 6.54027 20.4101 6.21027 20.2201C5.93027 20.0601 5.55027 20.1601 5.39027 20.4301C5.14027 20.8601 5.30027 21.2801 5.67027 21.4901C5.90027 21.6301 6.18027 21.6601 6.43027 21.5701Z" fill="black"/>
<path d="M6.96027 22.3501C6.67027 22.1801 6.55027 21.8601 6.56027 21.5401C7.07027 21.2601 7.59027 20.9901 8.09027 20.7301C8.23027 21.0801 8.28028 21.4601 8.14028 21.8201C7.95028 22.3201 7.46027 22.6401 6.96027 22.3501ZM6.21027 21.2301C6.00027 21.2501 5.86027 21.2701 5.67027 21.1601C5.43027 21.0201 5.33027 20.7901 5.48027 20.5401C5.61027 20.3201 5.88027 20.3601 6.08027 20.4701C6.33027 20.6201 6.44027 20.8301 6.46027 21.1701L6.21027 21.2301ZM6.43027 21.5701C6.39027 21.9301 6.37027 22.5101 6.89027 22.8101C7.37027 23.0901 7.87027 22.8701 8.24027 22.2201C8.51027 21.7401 8.40027 21.1601 8.21027 20.6801C8.51027 20.5801 8.84027 20.5801 9.15027 20.5901L9.46027 19.8901L9.34027 19.8201C9.09027 20.4001 8.62027 20.0201 8.01027 20.3201C7.89027 20.1601 7.75027 20.0001 7.55027 19.8901C7.07027 19.6101 6.70027 19.7801 6.68027 19.8201C6.63027 19.9101 6.58027 20.1401 6.54027 20.2501L6.62027 20.2901C6.70027 20.1001 6.78027 20.0001 6.99027 19.9701C7.31027 19.9201 7.67027 20.0901 7.89027 20.4001C7.72027 20.4801 7.56027 20.5601 7.40027 20.6501L6.57027 21.1001C6.59027 20.7501 6.54027 20.4101 6.21027 20.2201C5.93027 20.0601 5.55027 20.1601 5.39027 20.4301C5.14027 20.8601 5.30027 21.2801 5.67027 21.4901C5.90027 21.6301 6.18027 21.6601 6.43027 21.5701Z" fill="black"/>
<path d="M6.96027 22.3501C6.67027 22.1801 6.55027 21.8601 6.56027 21.5401C7.07027 21.2601 7.59027 20.9901 8.09027 20.7301C8.23027 21.0801 8.28028 21.4601 8.14028 21.8201C7.95028 22.3201 7.46027 22.6401 6.96027 22.3501ZM6.21027 21.2301C6.00027 21.2501 5.86027 21.2701 5.67027 21.1601C5.43027 21.0201 5.33027 20.7901 5.48027 20.5401C5.61027 20.3201 5.88027 20.3601 6.08027 20.4701C6.33027 20.6201 6.44027 20.8301 6.46027 21.1701L6.21027 21.2301ZM6.43027 21.5701C6.39027 21.9301 6.37027 22.5101 6.89027 22.8101C7.37027 23.0901 7.87027 22.8701 8.24027 22.2201C8.51027 21.7401 8.40027 21.1601 8.21027 20.6801C8.51027 20.5801 8.84027 20.5801 9.15027 20.5901L9.46027 19.8901L9.34027 19.8201C9.09027 20.4001 8.62027 20.0201 8.01027 20.3201C7.89027 20.1601 7.75027 20.0001 7.55027 19.8901C7.07027 19.6101 6.70027 19.7801 6.68027 19.8201C6.63027 19.9101 6.58027 20.1401 6.54027 20.2501L6.62027 20.2901C6.70027 20.1001 6.78027 20.0001 6.99027 19.9701C7.31027 19.9201 7.67027 20.0901 7.89027 20.4001C7.72027 20.4801 7.56027 20.5601 7.40027 20.6501L6.57027 21.1001C6.59027 20.7501 6.54027 20.4101 6.21027 20.2201C5.93027 20.0601 5.55027 20.1601 5.39027 20.4301C5.14027 20.8601 5.30027 21.2801 5.67027 21.4901C5.90027 21.6301 6.18027 21.6601 6.43027 21.5701Z" fill="black"/>
<path d="M9.84018 16.6992L10.9902 15.2292L12.0602 16.0692L11.8402 16.4792L11.9702 16.5792L12.8202 15.4792L12.6902 15.3792L12.3502 15.6992L10.1302 13.9692L10.3502 13.5492L10.2202 13.4492L9.37018 14.5492L9.49018 14.6492L9.84018 14.3292L10.8002 15.0792L9.65018 16.5592L8.69018 15.8092L8.91018 15.3892L8.78018 15.2892L7.93018 16.3892L8.06018 16.4892L8.40018 16.1692L10.6202 17.8992L10.4002 18.3192L10.5302 18.4192L11.3802 17.3192L11.2602 17.2192L10.9102 17.5392L9.84018 16.6992Z" fill="black"/>
<path d="M9.84018 16.6992L10.9902 15.2292L12.0602 16.0692L11.8402 16.4792L11.9702 16.5792L12.8202 15.4792L12.6902 15.3792L12.3502 15.6992L10.1302 13.9692L10.3502 13.5492L10.2202 13.4492L9.37018 14.5492L9.49018 14.6492L9.84018 14.3292L10.8002 15.0792L9.65018 16.5592L8.69018 15.8092L8.91018 15.3892L8.78018 15.2892L7.93018 16.3892L8.06018 16.4892L8.40018 16.1692L10.6202 17.8992L10.4002 18.3192L10.5302 18.4192L11.3802 17.3192L11.2602 17.2192L10.9102 17.5392L9.84018 16.6992Z" fill="black"/>
<path d="M13.6203 10.319L13.5003 10.209L12.5803 11.129L12.7003 11.239L13.0803 10.969L14.2303 12.119C14.4103 12.299 14.7103 12.599 14.7303 12.879C14.7703 13.239 14.5603 13.569 14.3903 13.739C13.8803 14.249 13.3503 14.119 12.8703 13.619L11.6603 12.399L11.9303 12.019L11.8203 11.899L10.8403 12.879L10.9503 12.989L11.3303 12.719L12.6703 14.059C13.1703 14.589 13.8503 14.649 14.5503 13.949C15.3003 13.199 15.1203 12.479 14.4703 11.829L13.3503 10.709L13.6203 10.319Z" fill="black"/>
<path d="M13.6203 10.319L13.5003 10.209L12.5803 11.129L12.7003 11.239L13.0803 10.969L14.2303 12.119C14.4103 12.299 14.7103 12.599 14.7303 12.879C14.7703 13.239 14.5603 13.569 14.3903 13.739C13.8803 14.249 13.3503 14.119 12.8703 13.619L11.6603 12.399L11.9303 12.019L11.8203 11.899L10.8403 12.879L10.9503 12.989L11.3303 12.719L12.6703 14.059C13.1703 14.589 13.8503 14.649 14.5503 13.949C15.3003 13.199 15.1203 12.479 14.4703 11.829L13.3503 10.709L13.6203 10.319Z" fill="black"/>
<path d="M17.7201 7.16906L17.6301 7.03906L16.8201 7.64906L17.4601 10.1991L15.1701 8.88906L14.3501 9.50906L14.4401 9.63906L14.8901 9.39906L16.3601 11.8191L16.0901 12.1291L16.1901 12.2591L17.0801 11.5891L16.9801 11.4591L16.5801 11.6591L15.2201 9.45906V9.44906H15.2301L17.8701 10.9591L17.9101 10.9291L17.1501 7.92906L17.1401 7.91906L17.1501 7.90906L18.9401 9.87906L18.6201 10.2191L18.7201 10.3491L19.8101 9.52906L19.7101 9.39906L19.3101 9.59906L17.3901 7.51906L17.7201 7.16906Z" fill="black"/>
<path d="M17.7201 7.16906L17.6301 7.03906L16.8201 7.64906L17.4601 10.1991L15.1701 8.88906L14.3501 9.50906L14.4401 9.63906L14.8901 9.39906L16.3601 11.8191L16.0901 12.1291L16.1901 12.2591L17.0801 11.5891L16.9801 11.4591L16.5801 11.6591L15.2201 9.45906V9.44906H15.2301L17.8701 10.9591L17.9101 10.9291L17.1501 7.92906L17.1401 7.91906L17.1501 7.90906L18.9401 9.87906L18.6201 10.2191L18.7201 10.3491L19.8101 9.52906L19.7101 9.39906L19.3101 9.59906L17.3901 7.51906L17.7201 7.16906Z" fill="black"/>
<path fill-rule="evenodd" clip-rule="evenodd" d="M21.5702 7.14922L22.4002 7.80922L22.0302 8.09922L22.1102 8.23922L23.3002 7.57922L23.2202 7.43922L22.8302 7.55922L20.1802 5.44922L19.9702 5.56922L20.4102 8.89922L20.1002 9.16922L20.1802 9.30922L21.2102 8.73922L21.1302 8.59922L20.6902 8.74922L20.5202 7.71922L21.5702 7.14922ZM20.2902 6.13922L21.3702 6.99922L20.4902 7.48922L20.2902 6.13922Z" fill="black"/>
<path d="M21.5702 7.14922L22.4002 7.80922L22.0302 8.09922L22.1102 8.23922L23.3002 7.57922L23.2202 7.43922L22.8302 7.55922L20.1802 5.44922L19.9702 5.56922L20.4102 8.89922L20.1002 9.16922L20.1802 9.30922L21.2102 8.73922L21.1302 8.59922L20.6902 8.74922L20.5202 7.71922L21.5702 7.14922ZM20.2902 6.13922L21.3702 6.99922L20.4902 7.48922L20.2902 6.13922Z" fill="black"/>
<path d="M21.5702 7.14922L22.4002 7.80922L22.0302 8.09922L22.1102 8.23922L23.3002 7.57922L23.2202 7.43922L22.8302 7.55922L20.1802 5.44922L19.9702 5.56922L20.4102 8.89922L20.1002 9.16922L20.1802 9.30922L21.2102 8.73922L21.1302 8.59922L20.6902 8.74922L20.5202 7.71922L21.5702 7.14922ZM20.2902 6.13922L21.3702 6.99922L20.4902 7.48922L20.2902 6.13922Z" fill="black"/>
<path d="M23.6404 7.27961L23.7004 7.42961L24.8204 6.94961L24.7604 6.79961L24.2804 6.91961L23.3104 4.63961C24.0104 4.95961 26.2404 5.98961 26.6704 6.19961L26.9004 6.09961L25.6904 3.25961L26.0904 2.99961L26.0304 2.84961L24.9304 3.31961L24.9904 3.46961L25.4504 3.35961L26.3604 5.50961L23.2204 4.04961L22.4204 4.38961L22.4804 4.53961L22.9404 4.42961L24.0404 7.02961L23.6404 7.27961Z" fill="black"/>
<path d="M23.6404 7.27961L23.7004 7.42961L24.8204 6.94961L24.7604 6.79961L24.2804 6.91961L23.3104 4.63961C24.0104 4.95961 26.2404 5.98961 26.6704 6.19961L26.9004 6.09961L25.6904 3.25961L26.0904 2.99961L26.0304 2.84961L24.9304 3.31961L24.9904 3.46961L25.4504 3.35961L26.3604 5.50961L23.2204 4.04961L22.4204 4.38961L22.4804 4.53961L22.9404 4.42961L24.0404 7.02961L23.6404 7.27961Z" fill="black"/>
<path d="M30.9902 1.58984C30.7602 1.60984 30.5202 1.57984 30.2902 1.62984C29.6402 1.76984 29.3402 2.23984 29.4402 2.72984C29.6902 3.89984 31.1802 3.31984 31.3502 4.10984C31.4402 4.51984 31.1902 4.76984 30.8002 4.84984C30.6002 4.88984 30.2202 4.86984 30.0802 4.69984C29.9902 4.57984 29.8902 4.39984 29.8002 4.15984L29.6502 4.22984L29.8702 4.98984C30.1402 5.10984 30.5502 5.09984 30.8702 5.02984C31.5502 4.88984 31.8502 4.38984 31.7202 3.80984C31.5202 2.87984 30.0202 3.41984 29.8402 2.53984C29.7602 2.18984 29.9602 1.91984 30.3102 1.84984C30.7002 1.76984 30.9202 2.02984 31.0602 2.34984L31.2102 2.28984L30.9902 1.58984Z" fill="black"/>
<path d="M30.9902 1.58984C30.7602 1.60984 30.5202 1.57984 30.2902 1.62984C29.6402 1.76984 29.3402 2.23984 29.4402 2.72984C29.6902 3.89984 31.1802 3.31984 31.3502 4.10984C31.4402 4.51984 31.1902 4.76984 30.8002 4.84984C30.6002 4.88984 30.2202 4.86984 30.0802 4.69984C29.9902 4.57984 29.8902 4.39984 29.8002 4.15984L29.6502 4.22984L29.8702 4.98984C30.1402 5.10984 30.5502 5.09984 30.8702 5.02984C31.5502 4.88984 31.8502 4.38984 31.7202 3.80984C31.5202 2.87984 30.0202 3.41984 29.8402 2.53984C29.7602 2.18984 29.9602 1.91984 30.3102 1.84984C30.7002 1.76984 30.9202 2.02984 31.0602 2.34984L31.2102 2.28984L30.9902 1.58984Z" fill="black"/>
<path d="M33.0704 1.41977L34.1104 1.28977L34.3004 1.73977L34.4504 1.71977L34.2904 1.00977L32.1304 1.26977L32.1504 1.42977L32.6204 1.44977L32.9604 4.24977L32.5004 4.38977L32.5204 4.54977L34.9004 4.25977L34.9904 3.43977L34.8204 3.45977L34.7004 3.98977L33.4004 4.14977L33.2404 2.86977L34.1104 2.75977L34.2404 3.10977L34.3804 3.08977C34.3204 2.83977 34.2704 2.39977 34.2604 2.13977L34.1204 2.15977L34.0704 2.51977L33.2104 2.61977L33.0704 1.41977Z" fill="black"/>
<path d="M33.0704 1.41977L34.1104 1.28977L34.3004 1.73977L34.4504 1.71977L34.2904 1.00977L32.1304 1.26977L32.1504 1.42977L32.6204 1.44977L32.9604 4.24977L32.5004 4.38977L32.5204 4.54977L34.9004 4.25977L34.9904 3.43977L34.8204 3.45977L34.7004 3.98977L33.4004 4.14977L33.2404 2.86977L34.1104 2.75977L34.2404 3.10977L34.3804 3.08977C34.3204 2.83977 34.2704 2.39977 34.2604 2.13977L34.1204 2.15977L34.0704 2.51977L33.2104 2.61977L33.0704 1.41977Z" fill="black"/>
<path fill-rule="evenodd" clip-rule="evenodd" d="M36.5201 1.00936C36.6001 0.989362 36.6801 0.979362 36.7801 0.979362C37.3101 0.969362 37.5901 1.25936 37.6001 1.78936C37.6101 2.44936 37.3301 2.48936 36.7501 2.49936C36.6801 2.49936 36.6001 2.49936 36.5501 2.49936L36.5201 1.00936ZM35.6201 3.95936V4.11936L37.0301 4.09936V3.93936L36.5701 3.86936L36.5501 2.69936C36.7301 2.69936 36.9001 2.68936 37.0501 2.66936C37.3601 3.09936 37.7001 3.54936 38.0701 3.96936C38.1001 3.99936 38.2801 4.03936 38.3901 4.06936L38.7501 4.14936L38.7901 4.00936C38.4901 3.88936 38.2701 3.58936 38.0901 3.35936L37.4701 2.55936C37.7901 2.32936 38.0601 1.97936 38.0501 1.57936C38.0401 1.01936 37.5901 0.779362 37.1101 0.789362L35.5601 0.819362V0.979362L36.0501 1.04936L36.1001 3.86936L35.6201 3.95936Z" fill="black"/>
<path d="M36.5201 1.00936C36.6001 0.989362 36.6801 0.979362 36.7801 0.979362C37.3101 0.969362 37.5901 1.25936 37.6001 1.78936C37.6101 2.44936 37.3301 2.48936 36.7501 2.49936C36.6801 2.49936 36.6001 2.49936 36.5501 2.49936L36.5201 1.00936ZM35.6201 3.95936V4.11936L37.0301 4.09936V3.93936L36.5701 3.86936L36.5501 2.69936C36.7301 2.69936 36.9001 2.68936 37.0501 2.66936C37.3601 3.09936 37.7001 3.54936 38.0701 3.96936C38.1001 3.99936 38.2801 4.03936 38.3901 4.06936L38.7501 4.14936L38.7901 4.00936C38.4901 3.88936 38.2701 3.58936 38.0901 3.35936L37.4701 2.55936C37.7901 2.32936 38.0601 1.97936 38.0501 1.57936C38.0401 1.01936 37.5901 0.779362 37.1101 0.789362L35.5601 0.819362V0.979362L36.0501 1.04936L36.1001 3.86936L35.6201 3.95936Z" fill="black"/>
<path d="M36.5201 1.00936C36.6001 0.989362 36.6801 0.979362 36.7801 0.979362C37.3101 0.969362 37.5901 1.25936 37.6001 1.78936C37.6101 2.44936 37.3301 2.48936 36.7501 2.49936C36.6801 2.49936 36.6001 2.49936 36.5501 2.49936L36.5201 1.00936ZM35.6201 3.95936V4.11936L37.0301 4.09936V3.93936L36.5701 3.86936L36.5501 2.69936C36.7301 2.69936 36.9001 2.68936 37.0501 2.66936C37.3601 3.09936 37.7001 3.54936 38.0701 3.96936C38.1001 3.99936 38.2801 4.03936 38.3901 4.06936L38.7501 4.14936L38.7901 4.00936C38.4901 3.88936 38.2701 3.58936 38.0901 3.35936L37.4701 2.55936C37.7901 2.32936 38.0601 1.97936 38.0501 1.57936C38.0401 1.01936 37.5901 0.779362 37.1101 0.789362L35.5601 0.819362V0.979362L36.0501 1.04936L36.1001 3.86936L35.6201 3.95936Z" fill="black"/>
<path d="M40.2403 1.00922L40.7103 0.959219L40.7203 0.799219L39.3303 0.699219L39.3203 0.859219L39.7803 0.969219L40.7503 4.13922L40.9403 4.14922C41.3003 3.32922 41.9203 1.93922 42.3203 1.13922L42.6503 1.07922L42.6603 0.919219L41.5703 0.839219L41.5603 0.999219L42.0203 1.10922L40.9903 3.39922L40.2403 1.00922Z" fill="black"/>
<path d="M40.2403 1.00922L40.7103 0.959219L40.7203 0.799219L39.3303 0.699219L39.3203 0.859219L39.7803 0.969219L40.7503 4.13922L40.9403 4.14922C41.3003 3.32922 41.9203 1.93922 42.3203 1.13922L42.6503 1.07922L42.6603 0.919219L41.5703 0.839219L41.5603 0.999219L42.0203 1.10922L40.9903 3.39922L40.2403 1.00922Z" fill="black"/>
<path d="M44.4802 1.34953L44.5002 1.18953L43.1302 1.01953L43.1002 1.17953L43.5602 1.31953L43.2102 4.11953L42.7402 4.13953L42.7202 4.29953L44.1002 4.46953L44.1202 4.30953L43.6702 4.16953L44.0102 1.37953L44.4802 1.34953Z" fill="black"/>
<path d="M44.4802 1.34953L44.5002 1.18953L43.1302 1.01953L43.1002 1.17953L43.5602 1.31953L43.2102 4.11953L42.7402 4.13953L42.7202 4.29953L44.1002 4.46953L44.1202 4.30953L43.6702 4.16953L44.0102 1.37953L44.4802 1.34953Z" fill="black"/>
<path d="M48.3301 2.06955C47.9801 1.88955 47.4401 1.69955 47.1101 1.62955C45.9401 1.37955 45.1801 1.85955 44.9601 2.89955C44.7001 4.12955 45.4101 4.78955 46.4601 5.00955C46.7601 5.06955 47.0901 5.09955 47.4401 5.08955L47.9101 4.53955L47.8101 4.41955C47.4701 4.78955 47.0401 4.91955 46.5601 4.81955C45.7001 4.63955 45.2501 3.74955 45.4501 2.79955C45.6301 1.93955 46.2101 1.66955 47.0401 1.83955C47.9201 2.02955 48.0801 2.44955 48.0401 2.87955L48.2001 2.90955L48.3301 2.06955Z" fill="black"/>
<path d="M48.3301 2.06955C47.9801 1.88955 47.4401 1.69955 47.1101 1.62955C45.9401 1.37955 45.1801 1.85955 44.9601 2.89955C44.7001 4.12955 45.4101 4.78955 46.4601 5.00955C46.7601 5.06955 47.0901 5.09955 47.4401 5.08955L47.9101 4.53955L47.8101 4.41955C47.4701 4.78955 47.0401 4.91955 46.5601 4.81955C45.7001 4.63955 45.2501 3.74955 45.4501 2.79955C45.6301 1.93955 46.2101 1.66955 47.0401 1.83955C47.9201 2.02955 48.0801 2.44955 48.0401 2.87955L48.2001 2.90955L48.3301 2.06955Z" fill="black"/>
<path d="M50.2204 2.85859L51.2104 3.19859L51.1804 3.67859L51.3204 3.72859L51.4904 3.01859L49.4304 2.30859L49.3804 2.45859L49.7904 2.68859L48.8703 5.34859L48.4104 5.26859L48.3604 5.41859L50.6304 6.19859L51.0804 5.49859L50.9203 5.43859L50.5704 5.85859L49.3304 5.42859L49.7504 4.20859L50.5804 4.48859L50.5404 4.89859L50.6703 4.94859C50.7303 4.69859 50.8704 4.27859 50.9804 4.04859L50.8503 3.99859L50.6504 4.30859L49.8304 4.02859L50.2204 2.85859Z" fill="black"/>
<path d="M50.2204 2.85859L51.2104 3.19859L51.1804 3.67859L51.3204 3.72859L51.4904 3.01859L49.4304 2.30859L49.3804 2.45859L49.7904 2.68859L48.8703 5.34859L48.4104 5.26859L48.3604 5.41859L50.6304 6.19859L51.0804 5.49859L50.9203 5.43859L50.5704 5.85859L49.3304 5.42859L49.7504 4.20859L50.5804 4.48859L50.5404 4.89859L50.6703 4.94859C50.7303 4.69859 50.8704 4.27859 50.9804 4.04859L50.8503 3.99859L50.6504 4.30859L49.8304 4.02859L50.2204 2.85859Z" fill="black"/>
<path d="M54.41 4.22842C54.21 4.11842 54.03 3.94842 53.82 3.84842C53.22 3.57842 52.69 3.78842 52.49 4.23842C52 5.33842 53.55 5.73842 53.22 6.47842C53.05 6.85842 52.7 6.91842 52.34 6.74842C52.15 6.66842 51.86 6.41842 51.84 6.19842C51.84 6.04842 51.87 5.83842 51.93 5.59842L51.77 5.56842L51.5 6.31842C51.65 6.56842 51.99 6.80842 52.29 6.93842C52.92 7.21842 53.45 6.99842 53.7 6.44842C54.09 5.57842 52.56 5.13842 52.92 4.30842C53.07 3.97842 53.38 3.88842 53.7 4.02842C54.07 4.18842 54.09 4.52842 54.01 4.87842L54.16 4.91842L54.41 4.22842Z" fill="black"/>
<path d="M54.41 4.22842C54.21 4.11842 54.03 3.94842 53.82 3.84842C53.22 3.57842 52.69 3.78842 52.49 4.23842C52 5.33842 53.55 5.73842 53.22 6.47842C53.05 6.85842 52.7 6.91842 52.34 6.74842C52.15 6.66842 51.86 6.41842 51.84 6.19842C51.84 6.04842 51.87 5.83842 51.93 5.59842L51.77 5.56842L51.5 6.31842C51.65 6.56842 51.99 6.80842 52.29 6.93842C52.92 7.21842 53.45 6.99842 53.7 6.44842C54.09 5.57842 52.56 5.13842 52.92 4.30842C53.07 3.97842 53.38 3.88842 53.7 4.02842C54.07 4.18842 54.09 4.52842 54.01 4.87842L54.16 4.91842L54.41 4.22842Z" fill="black"/>
<path d="M55.95 6.89839C56.05 6.68839 55.97 6.43839 55.77 6.33839C55.56 6.22839 55.31 6.30839 55.21 6.51839C55.11 6.72839 55.19 6.97839 55.39 7.07839C55.59 7.18839 55.84 7.09839 55.95 6.89839Z" fill="black"/>
<path d="M55.95 6.89839C56.05 6.68839 55.97 6.43839 55.77 6.33839C55.56 6.22839 55.31 6.30839 55.21 6.51839C55.11 6.72839 55.19 6.97839 55.39 7.07839C55.59 7.18839 55.84 7.09839 55.95 6.89839Z" fill="black"/>
<path d="M61.1202 8.26984L61.2102 8.13984L60.1202 7.42984L60.0302 7.56984L60.3702 7.88984L59.4902 9.24984C59.3502 9.45984 59.1202 9.80984 58.8502 9.89984C58.5102 10.0098 58.1402 9.87984 57.9402 9.74984C57.3302 9.34984 57.3502 8.80984 57.7502 8.22984L58.6802 6.78984L59.1102 6.97984L59.2002 6.84984L58.0402 6.08984L57.9502 6.21984L58.3002 6.53984L57.2702 8.12984C56.8602 8.72984 56.9402 9.40984 57.7702 9.94984C58.6602 10.5298 59.3302 10.1998 59.8302 9.42984L60.6902 8.09984L61.1202 8.26984Z" fill="black"/>
<path d="M61.1202 8.26984L61.2102 8.13984L60.1202 7.42984L60.0302 7.56984L60.3702 7.88984L59.4902 9.24984C59.3502 9.45984 59.1202 9.80984 58.8502 9.89984C58.5102 10.0098 58.1402 9.87984 57.9402 9.74984C57.3302 9.34984 57.3502 8.80984 57.7502 8.22984L58.6802 6.78984L59.1102 6.97984L59.2002 6.84984L58.0402 6.08984L57.9502 6.21984L58.3002 6.53984L57.2702 8.12984C56.8602 8.72984 56.9402 9.40984 57.7702 9.94984C58.6602 10.5298 59.3302 10.1998 59.8302 9.42984L60.6902 8.09984L61.1202 8.26984Z" fill="black"/>
<path d="M63.36 9.98893C63.2 9.82893 63.08 9.61893 62.9 9.46893C62.39 9.03893 61.83 9.08893 61.51 9.47893C60.74 10.3989 62.12 11.2189 61.6 11.8289C61.33 12.1489 60.98 12.1089 60.68 11.8489C60.53 11.7189 60.31 11.3989 60.36 11.1789C60.39 11.0389 60.48 10.8389 60.61 10.6289L60.47 10.5589L60 11.1989C60.07 11.4789 60.34 11.8089 60.58 12.0089C61.11 12.4589 61.68 12.3889 62.07 11.9289C62.68 11.1989 61.33 10.3489 61.91 9.65893C62.14 9.38893 62.47 9.37893 62.74 9.59893C63.05 9.85893 62.98 10.1889 62.81 10.4989L62.94 10.5789L63.36 9.98893Z" fill="black"/>
<path d="M63.36 9.98893C63.2 9.82893 63.08 9.61893 62.9 9.46893C62.39 9.03893 61.83 9.08893 61.51 9.47893C60.74 10.3989 62.12 11.2189 61.6 11.8289C61.33 12.1489 60.98 12.1089 60.68 11.8489C60.53 11.7189 60.31 11.3989 60.36 11.1789C60.39 11.0389 60.48 10.8389 60.61 10.6289L60.47 10.5589L60 11.1989C60.07 11.4789 60.34 11.8089 60.58 12.0089C61.11 12.4589 61.68 12.3889 62.07 11.9289C62.68 11.1989 61.33 10.3489 61.91 9.65893C62.14 9.38893 62.47 9.37893 62.74 9.59893C63.05 9.85893 62.98 10.1889 62.81 10.4989L62.94 10.5789L63.36 9.98893Z" fill="black"/>
<path fill-rule="evenodd" clip-rule="evenodd" d="M64.3304 13.7198L63.9203 14.6998L63.5404 14.4298L63.4203 14.5498L64.3904 15.5198L64.5004 15.3998L64.2703 15.0598L65.5603 11.9298L65.3904 11.7598L62.3104 13.0998L61.9704 12.8698L61.8604 12.9798L62.7004 13.8198L62.8104 13.6998L62.5404 13.3198L63.4804 12.8698L64.3304 13.7198ZM64.9604 12.2098L64.4304 13.4798L63.7204 12.7698L64.9604 12.2098Z" fill="black"/>
<path d="M64.3304 13.7198L63.9203 14.6998L63.5404 14.4298L63.4203 14.5498L64.3904 15.5198L64.5004 15.3998L64.2703 15.0598L65.5603 11.9298L65.3904 11.7598L62.3104 13.0998L61.9704 12.8698L61.8604 12.9798L62.7004 13.8198L62.8104 13.6998L62.5404 13.3198L63.4804 12.8698L64.3304 13.7198ZM64.9604 12.2098L64.4304 13.4798L63.7204 12.7698L64.9604 12.2098Z" fill="black"/>
<path d="M64.3304 13.7198L63.9203 14.6998L63.5404 14.4298L63.4203 14.5498L64.3904 15.5198L64.5004 15.3998L64.2703 15.0598L65.5603 11.9298L65.3904 11.7598L62.3104 13.0998L61.9704 12.8698L61.8604 12.9798L62.7004 13.8198L62.8104 13.6998L62.5404 13.3198L63.4804 12.8698L64.3304 13.7198ZM64.9604 12.2098L64.4304 13.4798L63.7204 12.7698L64.9604 12.2098Z" fill="black"/>
<path d="M70.5601 13.6702C71.0701 16.3602 68.9801 18.4102 66.9501 20.0002L59.9201 25.4202C59.9201 25.4202 46.8601 35.4502 46.2701 36.1602C44.2701 38.2202 43.9001 44.0602 42.4601 47.9102C41.1601 50.6602 39.6701 51.0702 34.4301 50.9702H28.3001C27.6301 50.9602 27.3101 51.0602 26.9301 51.8702L26.2901 51.8302C26.1701 50.1102 26.5801 48.6002 28.1201 47.7402C28.9101 47.4002 29.7701 47.4902 30.6401 47.4902C33.2301 47.4902 35.1001 47.4902 37.7901 47.4902C38.5601 47.4302 39.1001 47.2002 39.3501 46.6002C40.6201 41.6802 40.5201 36.0302 45.0701 32.6402L59.4201 21.5002C62.6701 18.6502 67.6701 16.1602 68.6601 11.6602C69.7401 11.8802 70.2301 12.7002 70.5601 13.6702Z" fill="black"/>
<path d="M70.5601 13.6702C71.0701 16.3602 68.9801 18.4102 66.9501 20.0002L59.9201 25.4202C59.9201 25.4202 46.8601 35.4502 46.2701 36.1602C44.2701 38.2202 43.9001 44.0602 42.4601 47.9102C41.1601 50.6602 39.6701 51.0702 34.4301 50.9702H28.3001C27.6301 50.9602 27.3101 51.0602 26.9301 51.8702L26.2901 51.8302C26.1701 50.1102 26.5801 48.6002 28.1201 47.7402C28.9101 47.4002 29.7701 47.4902 30.6401 47.4902C33.2301 47.4902 35.1001 47.4902 37.7901 47.4902C38.5601 47.4302 39.1001 47.2002 39.3501 46.6002C40.6201 41.6802 40.5201 36.0302 45.0701 32.6402L59.4201 21.5002C62.6701 18.6502 67.6701 16.1602 68.6601 11.6602C69.7401 11.8802 70.2301 12.7002 70.5601 13.6702Z" fill="black"/>
<path d="M75.2601 19.1694C75.8401 21.2494 73.3901 23.0494 71.7501 24.4894L63.0201 31.4194L52.3801 39.8494C50.5801 41.4594 50.6001 44.1494 50.1701 46.4794C50.1401 47.2994 51.2101 47.8594 50.6801 48.7694C49.7501 50.3394 48.6801 50.9994 49.2301 51.7294C49.6501 52.2994 52.0801 51.7094 51.0401 53.5594C50.8601 54.5394 52.9301 53.6494 51.8601 54.4494C51.5201 55.0694 51.9301 55.3494 52.3801 55.3894C52.9901 55.6394 51.9501 56.7494 52.5001 57.5194C54.1901 59.6194 60.1501 56.6394 60.5301 60.3294C60.7501 64.4094 52.2601 64.0294 54.4001 69.2894C54.8801 70.3494 55.9701 70.7594 57.0201 70.8694C57.4701 70.8894 57.9201 70.8294 58.7001 70.6994L58.8901 71.1094C58.8901 71.1094 58.6301 71.3694 57.8801 71.8594C56.3501 72.8094 53.5501 73.7894 51.8001 72.6394C50.6401 71.7794 50.1101 70.6894 50.0801 69.3594C50.2101 65.9094 54.2801 65.4994 55.9001 62.8394C56.2001 62.3794 56.1301 61.5694 55.8001 61.1294C54.5401 59.3394 52.1301 59.7694 50.0801 59.8194C49.1901 59.7894 48.4901 59.3994 48.3701 58.5094C48.2701 57.6094 48.7701 57.1294 48.4501 56.7294C48.1401 56.3994 47.6001 56.4294 47.4601 55.9994C47.3901 55.7794 47.4501 55.6394 47.7301 55.3494C48.5301 54.8394 46.2001 55.2294 47.0201 54.0194C47.2501 53.8394 47.3201 53.5894 47.2601 53.2894C46.7801 52.3894 45.3401 53.2894 45.0101 52.2394C44.7601 50.9694 48.3501 49.2194 46.4301 47.1894C46.4401 47.1294 46.3901 47.0194 46.3801 46.9494C46.3601 45.8494 47.3001 41.5394 48.3601 39.1394C48.9701 37.8594 50.4601 36.8894 51.5701 35.9294L69.2401 22.0794C71.0501 20.6194 72.9601 19.2094 73.2601 16.8594C74.4001 17.2294 75.0301 18.2094 75.2601 19.1694Z" fill="black"/>
<path d="M75.2601 19.1694C75.8401 21.2494 73.3901 23.0494 71.7501 24.4894L63.0201 31.4194L52.3801 39.8494C50.5801 41.4594 50.6001 44.1494 50.1701 46.4794C50.1401 47.2994 51.2101 47.8594 50.6801 48.7694C49.7501 50.3394 48.6801 50.9994 49.2301 51.7294C49.6501 52.2994 52.0801 51.7094 51.0401 53.5594C50.8601 54.5394 52.9301 53.6494 51.8601 54.4494C51.5201 55.0694 51.9301 55.3494 52.3801 55.3894C52.9901 55.6394 51.9501 56.7494 52.5001 57.5194C54.1901 59.6194 60.1501 56.6394 60.5301 60.3294C60.7501 64.4094 52.2601 64.0294 54.4001 69.2894C54.8801 70.3494 55.9701 70.7594 57.0201 70.8694C57.4701 70.8894 57.9201 70.8294 58.7001 70.6994L58.8901 71.1094C58.8901 71.1094 58.6301 71.3694 57.8801 71.8594C56.3501 72.8094 53.5501 73.7894 51.8001 72.6394C50.6401 71.7794 50.1101 70.6894 50.0801 69.3594C50.2101 65.9094 54.2801 65.4994 55.9001 62.8394C56.2001 62.3794 56.1301 61.5694 55.8001 61.1294C54.5401 59.3394 52.1301 59.7694 50.0801 59.8194C49.1901 59.7894 48.4901 59.3994 48.3701 58.5094C48.2701 57.6094 48.7701 57.1294 48.4501 56.7294C48.1401 56.3994 47.6001 56.4294 47.4601 55.9994C47.3901 55.7794 47.4501 55.6394 47.7301 55.3494C48.5301 54.8394 46.2001 55.2294 47.0201 54.0194C47.2501 53.8394 47.3201 53.5894 47.2601 53.2894C46.7801 52.3894 45.3401 53.2894 45.0101 52.2394C44.7601 50.9694 48.3501 49.2194 46.4301 47.1894C46.4401 47.1294 46.3901 47.0194 46.3801 46.9494C46.3601 45.8494 47.3001 41.5394 48.3601 39.1394C48.9701 37.8594 50.4601 36.8894 51.5701 35.9294L69.2401 22.0794C71.0501 20.6194 72.9601 19.2094 73.2601 16.8594C74.4001 17.2294 75.0301 18.2094 75.2601 19.1694Z" fill="black"/>
<path d="M72.3402 28.7099C72.7102 29.9799 72.6202 31.8099 71.5102 32.8299L69.7502 34.3299L58.0902 43.4599C56.9102 44.6499 56.8802 46.4899 57.2102 48.0699C57.8302 49.0699 56.1102 50.1899 56.8902 50.6899C57.1602 50.8199 57.6502 50.6799 57.8302 51.0299C58.1502 51.4799 57.5202 51.9699 58.1002 52.1899C58.3202 52.2199 58.4802 52.2199 58.6102 52.1799C59.1002 52.2299 58.0102 52.7099 58.5802 53.1899C60.4602 53.3999 58.2902 55.6899 61.0102 55.0999C63.6802 54.4999 66.2802 53.1099 69.2402 53.7899C71.8502 54.2899 74.1502 55.8399 77.0702 55.2999L77.4302 55.1999C77.4402 55.2699 77.2702 55.4999 77.2702 55.4999C75.4702 57.8599 73.2702 59.5199 69.8602 58.6799C67.6302 58.1299 65.5702 55.2699 62.0102 56.3099C60.1902 56.8299 57.3102 57.3599 56.0902 56.6099C55.1602 55.9899 55.9802 55.1999 55.7102 54.5399C55.5202 54.0799 55.2102 54.4699 54.9902 54.0799C54.8102 53.7499 55.5002 53.4699 55.1102 53.2899C54.9102 53.2299 54.5802 53.2099 54.4702 53.1099C54.0202 52.6999 55.1402 51.8499 53.9602 51.6699C53.4102 51.5499 52.6602 51.4899 52.5902 51.0799C52.2302 50.3299 54.5802 49.2199 53.4702 47.3799C53.2002 46.9399 53.5602 43.7699 54.7802 41.9699C55.6402 40.6899 57.7402 39.3499 57.7402 39.3499L70.1402 29.7099C70.9902 28.9999 71.3902 28.6899 71.7502 27.9999C71.9802 27.5399 72.3002 28.5499 72.3402 28.7099Z" fill="black"/>
<path d="M72.3402 28.7099C72.7102 29.9799 72.6202 31.8099 71.5102 32.8299L69.7502 34.3299L58.0902 43.4599C56.9102 44.6499 56.8802 46.4899 57.2102 48.0699C57.8302 49.0699 56.1102 50.1899 56.8902 50.6899C57.1602 50.8199 57.6502 50.6799 57.8302 51.0299C58.1502 51.4799 57.5202 51.9699 58.1002 52.1899C58.3202 52.2199 58.4802 52.2199 58.6102 52.1799C59.1002 52.2299 58.0102 52.7099 58.5802 53.1899C60.4602 53.3999 58.2902 55.6899 61.0102 55.0999C63.6802 54.4999 66.2802 53.1099 69.2402 53.7899C71.8502 54.2899 74.1502 55.8399 77.0702 55.2999L77.4302 55.1999C77.4402 55.2699 77.2702 55.4999 77.2702 55.4999C75.4702 57.8599 73.2702 59.5199 69.8602 58.6799C67.6302 58.1299 65.5702 55.2699 62.0102 56.3099C60.1902 56.8299 57.3102 57.3599 56.0902 56.6099C55.1602 55.9899 55.9802 55.1999 55.7102 54.5399C55.5202 54.0799 55.2102 54.4699 54.9902 54.0799C54.8102 53.7499 55.5002 53.4699 55.1102 53.2899C54.9102 53.2299 54.5802 53.2099 54.4702 53.1099C54.0202 52.6999 55.1402 51.8499 53.9602 51.6699C53.4102 51.5499 52.6602 51.4899 52.5902 51.0799C52.2302 50.3299 54.5802 49.2199 53.4702 47.3799C53.2002 46.9399 53.5602 43.7699 54.7802 41.9699C55.6402 40.6899 57.7402 39.3499 57.7402 39.3499L70.1402 29.7099C70.9902 28.9999 71.3902 28.6899 71.7502 27.9999C71.9802 27.5399 72.3002 28.5499 72.3402 28.7099Z" fill="black"/>
<path d="M35.8201 55.5597C40.2901 57.2797 45.5901 59.5597 50.0601 62.3397C50.9201 62.9197 51.3001 64.0097 50.9601 65.0497C49.7201 67.8997 44.5401 68.8897 46.1401 72.8797C46.6901 74.2997 48.0101 75.3997 49.5501 75.4897C49.8601 75.5297 50.2601 75.4597 50.8801 75.2597L51.2601 75.7997C50.5201 76.4397 50.1801 76.6497 49.7801 76.9097C48.8601 77.5097 47.4301 78.1197 45.4401 77.7897C44.2801 77.5097 43.1601 76.8897 42.4301 75.7797C41.7301 74.7197 41.6101 73.0097 42.2301 71.8597C43.3801 69.5997 46.7101 68.3097 47.0501 66.4397C47.2201 65.3997 46.1901 64.4697 45.3401 63.9297C38.8801 60.1997 32.0001 57.4997 24.8601 55.4097C23.9601 55.1597 22.5601 54.7097 21.5801 56.0297L21.1001 55.6597C21.1701 54.4597 21.8201 53.2997 22.9301 52.7197C24.8801 51.8397 27.5701 52.8497 29.0701 53.2997L35.8201 55.5597Z" fill="black"/>
<path d="M35.8202 55.5592C40.2902 57.2792 45.5902 59.5592 50.0602 62.3392C50.9202 62.9192 51.3002 64.0092 50.9602 65.0492C49.7202 67.8992 44.5402 68.8892 46.1402 72.8792C46.6902 74.2992 48.0102 75.3992 49.5502 75.4892C49.8602 75.5292 50.2602 75.4592 50.8802 75.2592L51.2602 75.7992C50.5202 76.4392 50.1802 76.6492 49.7802 76.9092C48.8602 77.5092 47.4302 78.1192 45.4402 77.7892C44.2802 77.5092 43.1602 76.8892 42.4302 75.7792C41.7302 74.7192 41.6102 73.0092 42.2302 71.8592C43.3802 69.5992 46.7102 68.3092 47.0502 66.4392C47.2202 65.3992 46.1902 64.4692 45.3402 63.9292C38.8802 60.1992 32.0002 57.4992 24.8602 55.4092C23.9602 55.1592 22.5602 54.7092 21.5802 56.0292L21.1002 55.6592C21.1702 54.4592 21.8202 53.2992 22.9302 52.7192C24.8802 51.8392 27.5702 52.8492 29.0702 53.2992L35.8202 55.5592ZM72.3502 28.7092C72.7202 29.9792 72.6302 31.8092 71.5202 32.8292L69.7602 34.3292L58.1002 43.4592C56.9302 44.6492 56.8902 46.4892 57.2202 48.0692C57.8402 49.0692 56.1202 50.1892 56.9002 50.6892C57.1702 50.8192 57.6602 50.6792 57.8402 51.0292C58.1702 51.4792 57.5302 51.9692 58.1102 52.1892C58.3302 52.2192 58.4902 52.2192 58.6202 52.1792C59.1102 52.2292 58.0202 52.7092 58.5902 53.1892C60.4702 53.3992 58.3002 55.6892 61.0202 55.0992C63.6902 54.4992 66.2902 53.1092 69.2502 53.7892C71.8602 54.2892 74.1602 55.8392 77.0802 55.2992L77.4402 55.1992C77.4502 55.2692 77.2902 55.4992 77.2902 55.4992C75.4902 57.8592 73.3002 59.5192 69.8802 58.6792C67.6502 58.1292 65.5902 55.2692 62.0202 56.3092C60.2002 56.8292 57.3202 57.3592 56.1002 56.6092C55.1702 55.9892 55.9902 55.1992 55.7202 54.5392C55.5302 54.0792 55.2202 54.4692 55.0002 54.0792C54.8202 53.7492 55.5202 53.4692 55.1302 53.2892C54.9302 53.2292 54.6002 53.2092 54.4902 53.1092C54.0402 52.6992 55.1502 51.8492 53.9802 51.6792C53.4302 51.5592 52.6902 51.4992 52.6102 51.0892C52.2502 50.3392 54.6002 49.2292 53.4902 47.3892C53.2202 46.9492 53.5802 43.7792 54.8002 41.9792C55.6602 40.6992 57.7602 39.3592 57.7602 39.3592L70.1602 29.7192C70.9802 28.9992 71.3902 28.6992 71.7402 27.9992C71.9802 27.5392 72.3002 28.5492 72.3502 28.7092ZM75.2602 19.1692C75.8402 21.2492 73.3902 23.0492 71.7502 24.4892L63.0202 31.4192L52.3802 39.8492C50.5802 41.4592 50.6002 44.1492 50.1702 46.4792C50.1402 47.2992 51.2102 47.8592 50.6802 48.7692C49.7502 50.3392 48.6802 50.9992 49.2202 51.7292C49.6402 52.2992 52.0702 51.7092 51.0302 53.5592C50.8502 54.5392 52.9202 53.6492 51.8502 54.4492C51.5102 55.0592 51.9202 55.3492 52.3602 55.3892C52.9802 55.6392 51.9302 56.7492 52.4802 57.5192C54.1702 59.6192 60.1302 56.6392 60.5102 60.3292C60.7302 64.4092 52.2402 64.0292 54.3802 69.2892C54.8602 70.3492 55.9602 70.7592 57.0002 70.8692C57.4502 70.8892 57.9002 70.8292 58.6802 70.6992L58.8702 71.1092C58.8702 71.1092 58.6102 71.3692 57.8602 71.8592C56.3302 72.8092 53.5302 73.7892 51.7802 72.6392C50.6302 71.7792 50.0902 70.6892 50.0602 69.3592C50.1902 65.9092 54.2602 65.4992 55.8802 62.8392C56.1802 62.3792 56.1102 61.5692 55.7802 61.1292C54.5202 59.3392 52.1102 59.7692 50.0602 59.8192C49.1702 59.7892 48.4702 59.3992 48.3502 58.5092C48.2502 57.6092 48.7502 57.1292 48.4302 56.7292C48.1202 56.3992 47.5802 56.4292 47.4402 55.9992C47.3702 55.7792 47.4402 55.6392 47.7102 55.3492C48.5102 54.8392 46.1802 55.2292 46.9902 54.0192C47.2202 53.8392 47.2902 53.5892 47.2302 53.2892C46.7502 52.3892 45.3102 53.2892 44.9802 52.2392C44.7302 50.9692 48.3202 49.2192 46.4002 47.1892C46.4102 47.1292 46.3602 47.0192 46.3602 46.9492C46.3402 45.8492 47.2802 41.5392 48.3402 39.1392C48.9402 37.8592 50.4402 36.8892 51.5502 35.9292L69.2202 22.0792C71.0302 20.6192 72.9502 19.2092 73.2402 16.8592C74.4102 17.2292 75.0202 18.2092 75.2602 19.1692ZM70.5602 13.6692C71.0702 16.3592 68.9702 18.4092 66.9402 19.9992L59.9102 25.4192C59.9102 25.4192 46.8502 35.4492 46.2602 36.1592C44.2602 38.2192 43.8902 44.0592 42.4502 47.9092C41.1502 50.6592 39.6602 51.0692 34.4202 50.9692H28.2902C27.6202 50.9592 27.3102 51.0592 26.9202 51.8692L26.2802 51.8292C26.1602 50.1192 26.5702 48.5992 28.1102 47.7492C28.9002 47.4092 29.7602 47.4992 30.6302 47.4992C33.2202 47.4992 35.0902 47.4992 37.7802 47.4992C38.5402 47.4392 39.0802 47.2092 39.3402 46.6092C40.6102 41.6892 40.5102 36.0392 45.0602 32.6492L59.4202 21.4992C62.6702 18.6492 67.6702 16.1592 68.6602 11.6592C69.7402 11.8792 70.2302 12.6992 70.5602 13.6692ZM64.3302 13.7192L63.9202 14.6992L63.5402 14.4292L63.4302 14.5392L64.4002 15.4992L64.5102 15.3892L64.2802 15.0492L65.5702 11.9192L65.4002 11.7492L62.3202 13.0892L61.9802 12.8592L61.8702 12.9792L62.7102 13.8092L62.8202 13.6992L62.5502 13.3092L63.4902 12.8592L64.3302 13.7192ZM64.9602 12.2092L64.4302 13.4792L63.7202 12.7692L64.9602 12.2092ZM64.3302 13.7192L63.9202 14.6992L63.5402 14.4292L63.4302 14.5392L64.4002 15.4992L64.5102 15.3892L64.2802 15.0492L65.5702 11.9192L65.4002 11.7492L62.3202 13.0892L61.9802 12.8592L61.8702 12.9792L62.7102 13.8092L62.8202 13.6992L62.5502 13.3092L63.4902 12.8592L64.3302 13.7192ZM64.9602 12.2092L64.4302 13.4792L63.7202 12.7692L64.9602 12.2092ZM63.3602 9.98922C63.2002 9.82922 63.0802 9.60922 62.9002 9.46922C62.3902 9.03922 61.8302 9.09922 61.5102 9.47922C60.7402 10.3992 62.1102 11.2192 61.5902 11.8392C61.3202 12.1592 60.9702 12.1092 60.6702 11.8592C60.5102 11.7292 60.3002 11.4092 60.3502 11.1892C60.3802 11.0492 60.4702 10.8492 60.6002 10.6392L60.4602 10.5692L60.0002 11.1992C60.0702 11.4792 60.3402 11.7992 60.5802 12.0092C61.1102 12.4592 61.6802 12.3892 62.0702 11.9292C62.6802 11.1992 61.3302 10.3592 61.9102 9.65922C62.1402 9.38922 62.4702 9.37922 62.7402 9.59922C63.0502 9.85922 62.9702 10.1892 62.8102 10.4992L62.9502 10.5792L63.3602 9.98922ZM61.1202 8.26922L61.2102 8.13922L60.1102 7.42922L60.0202 7.55922L60.3602 7.87922L59.4802 9.23922C59.3402 9.44922 59.1102 9.79922 58.8402 9.88922C58.5002 9.99922 58.1302 9.86922 57.9302 9.73922C57.3202 9.34922 57.3402 8.80922 57.7402 8.21922L58.6802 6.77922L59.1102 6.96922L59.2002 6.83922L58.0402 6.07922L57.9502 6.20922L58.2902 6.52922L57.2602 8.11922C56.8502 8.71922 56.9302 9.39922 57.7602 9.93922C58.6502 10.5192 59.3202 10.1892 59.8202 9.41922L60.6802 8.08922L61.1202 8.26922ZM55.9502 6.89922C56.0602 6.69922 55.9702 6.44922 55.7702 6.33922C55.5602 6.23922 55.3102 6.31922 55.2102 6.51922C55.1102 6.72922 55.1902 6.96922 55.3902 7.07922C55.6002 7.18922 55.8502 7.09922 55.9502 6.89922ZM54.4102 4.22922C54.2102 4.11922 54.0302 3.94922 53.8202 3.84922C53.2202 3.57922 52.6902 3.78922 52.4802 4.23922C51.9902 5.33922 53.5402 5.73922 53.2102 6.47922C53.0402 6.85922 52.6902 6.91922 52.3302 6.75922C52.1502 6.67922 51.8502 6.42922 51.8402 6.20922C51.8302 6.05922 51.8602 5.84922 51.9302 5.60922L51.7702 5.57922L51.5002 6.31922C51.6502 6.56922 51.9902 6.80922 52.2902 6.93922C52.9302 7.21922 53.4502 6.99922 53.7002 6.44922C54.0902 5.57922 52.5502 5.13922 52.9202 4.30922C53.0702 3.97922 53.3802 3.88922 53.7002 4.02922C54.0702 4.18922 54.0902 4.52922 54.0202 4.87922L54.1702 4.91922L54.4102 4.22922ZM50.2202 2.85922L51.2102 3.19922L51.1802 3.67922L51.3202 3.72922L51.4902 3.01922L49.4302 2.30922L49.3802 2.45922L49.7902 2.68922L48.8702 5.34922L48.4102 5.26922L48.3602 5.41922L50.6302 6.19922L51.0702 5.50922L50.9102 5.44922L50.5602 5.86922L49.3202 5.43922L49.7402 4.21922L50.5702 4.49922L50.5402 4.89922L50.6702 4.94922C50.7302 4.69922 50.8702 4.27922 50.9802 4.04922L50.8502 3.99922L50.6502 4.30922L49.8302 4.02922L50.2202 2.85922ZM48.3302 2.05922C47.9802 1.88922 47.4402 1.69922 47.1102 1.62922C45.9402 1.37922 45.1802 1.85922 44.9602 2.89922C44.7002 4.11922 45.4102 4.77922 46.4602 5.00922C46.7602 5.06922 47.0902 5.09922 47.4402 5.07922L47.9102 4.52922L47.8102 4.40922C47.4702 4.77922 47.0402 4.90922 46.5602 4.80922C45.7002 4.62922 45.2502 3.73922 45.4502 2.78922C45.6302 1.92922 46.2102 1.65922 47.0402 1.82922C47.9202 2.01922 48.0802 2.43922 48.0402 2.86922L48.2002 2.89922L48.3302 2.05922ZM44.4802 1.34922L44.5002 1.18922L43.1202 1.01922L43.1002 1.17922L43.5502 1.31922L43.2102 4.11922L42.7402 4.13922L42.7202 4.29922L44.1002 4.46922L44.1202 4.30922L43.6702 4.16922L44.0102 1.36922L44.4802 1.34922ZM40.2402 1.00922L40.7102 0.959219L40.7202 0.799219L39.3302 0.699219L39.3202 0.859219L39.7802 0.969219L40.7502 4.13922L40.9402 4.15922C41.3002 3.33922 41.9202 1.94922 42.3202 1.14922L42.6502 1.08922L42.6602 0.929219L41.5702 0.849219L41.5602 1.00922L42.0202 1.11922L40.9902 3.40922L40.2402 1.00922ZM36.5202 1.00922C36.6002 0.989219 36.6802 0.979219 36.7702 0.979219C37.3002 0.969219 37.5802 1.25922 37.5902 1.78922C37.6002 2.44922 37.3202 2.48922 36.7402 2.49922C36.6702 2.49922 36.5902 2.49922 36.5402 2.49922L36.5202 1.00922ZM35.6202 3.95922V4.11922L37.0302 4.09922V3.93922L36.5702 3.86922L36.5502 2.69922C36.7302 2.69922 36.9002 2.68922 37.0502 2.66922C37.3602 3.09922 37.7002 3.54922 38.0702 3.96922C38.1002 3.99922 38.2802 4.03922 38.3902 4.06922L38.7502 4.14922L38.7902 4.00922C38.4902 3.88922 38.2702 3.58922 38.0902 3.35922L37.4702 2.55922C37.7902 2.32922 38.0602 1.97922 38.0502 1.57922C38.0402 1.01922 37.5902 0.789219 37.1102 0.789219L35.5602 0.819219V0.979219L36.0502 1.04922L36.1002 3.86922L35.6202 3.95922ZM36.5202 1.00922C36.6002 0.989219 36.6802 0.979219 36.7702 0.979219C37.3002 0.969219 37.5802 1.25922 37.5902 1.78922C37.6002 2.44922 37.3202 2.48922 36.7402 2.49922C36.6702 2.49922 36.5902 2.49922 36.5402 2.49922L36.5202 1.00922ZM35.6202 3.95922V4.11922L37.0302 4.09922V3.93922L36.5702 3.86922L36.5502 2.69922C36.7302 2.69922 36.9002 2.68922 37.0502 2.66922C37.3602 3.09922 37.7002 3.54922 38.0702 3.96922C38.1002 3.99922 38.2802 4.03922 38.3902 4.06922L38.7502 4.14922L38.7902 4.00922C38.4902 3.88922 38.2702 3.58922 38.0902 3.35922L37.4702 2.55922C37.7902 2.32922 38.0602 1.97922 38.0502 1.57922C38.0402 1.01922 37.5902 0.789219 37.1102 0.789219L35.5602 0.819219V0.979219L36.0502 1.04922L36.1002 3.86922L35.6202 3.95922ZM33.0702 1.41922L34.1102 1.28922L34.2902 1.73922L34.4402 1.71922L34.2902 1.00922L32.1302 1.26922L32.1502 1.42922L32.6202 1.44922L32.9602 4.24922L32.5002 4.38922L32.5202 4.54922L34.9002 4.25922L35.0002 3.42922L34.8302 3.44922L34.7002 3.98922L33.4002 4.14922L33.2402 2.86922L34.1102 2.75922L34.2402 3.10922L34.3802 3.08922C34.3202 2.83922 34.2702 2.39922 34.2602 2.13922L34.1202 2.15922L34.0702 2.51922L33.2102 2.61922L33.0702 1.41922ZM31.0002 1.58922C30.7702 1.60922 30.5302 1.57922 30.3002 1.62922C29.6502 1.76922 29.3502 2.24922 29.4502 2.73922C29.7002 3.90922 31.1902 3.32922 31.3602 4.11922C31.4402 4.52922 31.1902 4.77922 30.8102 4.85922C30.6102 4.89922 30.2302 4.87922 30.0902 4.70922C30.0002 4.58922 29.9002 4.40922 29.8102 4.16922L29.6602 4.23922L29.8702 4.98922C30.1402 5.10922 30.5602 5.09922 30.8702 5.02922C31.5502 4.88922 31.8502 4.38922 31.7202 3.80922C31.5202 2.86922 30.0202 3.41922 29.8402 2.53922C29.7602 2.18922 29.9602 1.91922 30.3102 1.84922C30.7002 1.76922 30.9202 2.02922 31.0602 2.34922L31.2102 2.28922L31.0002 1.58922ZM23.6402 7.27922L23.7002 7.42922L24.8202 6.94922L24.7602 6.79922L24.2802 6.90922L23.3102 4.62922C24.0102 4.94922 26.2402 5.97922 26.6702 6.18922L26.9002 6.09922L25.6902 3.25922L26.0902 2.99922L26.0302 2.84922L24.9302 3.31922L24.9902 3.46922L25.4502 3.35922L26.3602 5.50922L23.2202 4.04922L22.4202 4.38922L22.4802 4.53922L22.9402 4.42922L24.0402 7.01922L23.6402 7.27922ZM21.5702 7.15922L22.4002 7.81922L22.0302 8.10922L22.1102 8.24922L23.3102 7.58922L23.2302 7.44922L22.8402 7.56922L20.1902 5.45922L19.9802 5.57922L20.4202 8.91922L20.1102 9.18922L20.1902 9.32922L21.2202 8.75922L21.1402 8.61922L20.7002 8.76922L20.5302 7.73922L21.5702 7.15922ZM20.2902 6.13922L21.3702 6.99922L20.4902 7.48922L20.2902 6.13922ZM21.5702 7.15922L22.4002 7.81922L22.0302 8.10922L22.1102 8.24922L23.3102 7.58922L23.2302 7.44922L22.8402 7.56922L20.1902 5.45922L19.9802 5.57922L20.4202 8.91922L20.1102 9.18922L20.1902 9.32922L21.2202 8.75922L21.1402 8.61922L20.7002 8.76922L20.5302 7.73922L21.5702 7.15922ZM20.2902 6.13922L21.3702 6.99922L20.4902 7.48922L20.2902 6.13922ZM17.7202 7.16922L17.6202 7.03922L16.8102 7.64922L17.4602 10.1992L15.1702 8.88922L14.3502 9.50922L14.4502 9.63922L14.9002 9.39922L16.3702 11.8192L16.1002 12.1292L16.2002 12.2592L17.0902 11.5892L16.9902 11.4592L16.5902 11.6592L15.2302 9.45922V9.44922L15.2402 9.43922L17.8802 10.9492L17.9202 10.9192L17.1502 7.91922L17.1402 7.90922L17.1502 7.89922L18.9402 9.85922L18.6202 10.1992L18.7202 10.3292L19.8102 9.50922L19.7102 9.37922L19.3102 9.57922L17.3902 7.49922L17.7202 7.16922ZM13.6202 10.3192L13.5102 10.2092L12.5902 11.1292L12.7002 11.2392L13.0802 10.9692L14.2302 12.1192C14.4102 12.2992 14.7102 12.5892 14.7302 12.8792C14.7702 13.2392 14.5602 13.5692 14.4002 13.7392C13.8902 14.2492 13.3602 14.1192 12.8802 13.6092L11.6702 12.3992L11.9402 12.0192L11.8302 11.8992L10.8502 12.8792L10.9602 12.9992L11.3402 12.7292L12.6802 14.0692C13.1902 14.5992 13.8702 14.6592 14.5702 13.9592C15.3202 13.2092 15.1402 12.4892 14.4902 11.8392L13.3702 10.7192L13.6202 10.3192ZM9.8402 16.6992L10.9902 15.2192L12.0602 16.0592L11.8402 16.4692L11.9702 16.5692L12.8202 15.4792L12.6902 15.3792L12.3402 15.6992L10.1202 13.9592L10.3402 13.5492L10.2102 13.4492L9.3602 14.5492L9.4902 14.6492L9.8402 14.3392L10.8002 15.0892L9.6502 16.5692L8.6902 15.7992L8.9102 15.3892L8.7802 15.2892L7.9302 16.3792L8.0602 16.4792L8.4102 16.1592L10.6302 17.8992L10.4102 18.3092L10.5402 18.4092L11.4002 17.3192L11.2702 17.2192L10.9202 17.5392L9.8402 16.6992ZM6.9602 22.3492C6.6702 22.1792 6.5502 21.8692 6.5602 21.5392C7.0702 21.2592 7.5902 20.9892 8.0902 20.7292C8.2302 21.0792 8.2802 21.4592 8.1402 21.8192C7.9502 22.3192 7.4602 22.6392 6.9602 22.3492ZM6.2102 21.2292C6.0002 21.2492 5.8602 21.2592 5.6702 21.1592C5.4302 21.0192 5.3302 20.7892 5.4802 20.5392C5.6102 20.3192 5.8802 20.3592 6.0802 20.4692C6.3302 20.6092 6.4402 20.8192 6.4602 21.1592L6.2102 21.2292ZM6.4302 21.5692C6.3902 21.9292 6.3702 22.5092 6.8902 22.8092C7.3702 23.0892 7.8702 22.8692 8.2402 22.2192C8.5102 21.7392 8.4002 21.1692 8.2102 20.6792C8.5102 20.5692 8.8402 20.5792 9.1602 20.5892L9.4702 19.8892L9.3502 19.8192C9.1002 20.3992 8.6302 20.0192 8.0202 20.3192C7.8902 20.1592 7.7502 19.9992 7.5502 19.8892C7.0702 19.6092 6.7002 19.7792 6.6802 19.8192C6.6302 19.9092 6.5802 20.1392 6.5402 20.2492L6.6202 20.2892C6.7002 20.0992 6.7802 19.9992 6.9902 19.9692C7.3102 19.9192 7.6702 20.0892 7.8902 20.3992C7.7202 20.4792 7.5602 20.5592 7.4002 20.6392L6.5702 21.0992C6.5902 20.7492 6.5402 20.4192 6.2102 20.2192C5.9302 20.0592 5.5502 20.1592 5.3902 20.4292C5.1402 20.8592 5.3102 21.2792 5.6702 21.4792C5.9002 21.6292 6.1802 21.6592 6.4302 21.5692ZM6.9602 22.3492C6.6702 22.1792 6.5502 21.8692 6.5602 21.5392C7.0702 21.2592 7.5902 20.9892 8.0902 20.7292C8.2302 21.0792 8.2802 21.4592 8.1402 21.8192C7.9502 22.3192 7.4602 22.6392 6.9602 22.3492ZM6.2102 21.2292C6.0002 21.2492 5.8602 21.2592 5.6702 21.1592C5.4302 21.0192 5.3302 20.7892 5.4802 20.5392C5.6102 20.3192 5.8802 20.3592 6.0802 20.4692C6.3302 20.6092 6.4402 20.8192 6.4602 21.1592L6.2102 21.2292ZM6.4302 21.5692C6.3902 21.9292 6.3702 22.5092 6.8902 22.8092C7.3702 23.0892 7.8702 22.8692 8.2402 22.2192C8.5102 21.7392 8.4002 21.1692 8.2102 20.6792C8.5102 20.5692 8.8402 20.5792 9.1602 20.5892L9.4702 19.8892L9.3502 19.8192C9.1002 20.3992 8.6302 20.0192 8.0202 20.3192C7.8902 20.1592 7.7502 19.9992 7.5502 19.8892C7.0702 19.6092 6.7002 19.7792 6.6802 19.8192C6.6302 19.9092 6.5802 20.1392 6.5402 20.2492L6.6202 20.2892C6.7002 20.0992 6.7802 19.9992 6.9902 19.9692C7.3102 19.9192 7.6702 20.0892 7.8902 20.3992C7.7202 20.4792 7.5602 20.5592 7.4002 20.6392L6.5702 21.0992C6.5902 20.7492 6.5402 20.4192 6.2102 20.2192C5.9302 20.0592 5.5502 20.1592 5.3902 20.4292C5.1402 20.8592 5.3102 21.2792 5.6702 21.4792C5.9002 21.6292 6.1802 21.6592 6.4302 21.5692ZM4.2702 27.3292L4.8802 25.5592L6.1702 25.9992L6.1002 26.4592L6.2502 26.5092L6.7002 25.1992L6.5502 25.1492L6.3202 25.5592L3.6602 24.6392L3.7302 24.1792L3.5802 24.1292L3.1302 25.4392L3.2802 25.4892L3.5102 25.0792L4.6602 25.4692L4.0502 27.2392L2.9002 26.8392L2.9802 26.3792L2.8302 26.3292L2.3802 27.6392L2.5302 27.6892L2.7602 27.2792L5.4202 28.1992L5.3502 28.6592L5.5002 28.7092L5.9502 27.3992L5.8002 27.3492L5.5702 27.7592L4.2702 27.3292ZM4.6502 31.3792L4.8102 31.4192L5.1702 29.9492L5.0202 29.9092L4.8102 30.3992L2.1002 29.7292L2.2402 29.1492C2.2802 28.9792 2.3302 28.8192 2.3802 28.6692L2.9202 28.6892L2.9602 28.5192L2.1702 28.3692L1.4202 31.3692L2.1802 31.6592L2.2202 31.4992L1.7502 31.1992C1.7802 31.0592 1.8102 30.8992 1.8502 30.7392L1.9902 30.1692L4.7002 30.8492L4.6502 31.3792ZM4.2102 34.7192L4.6202 32.4092L3.7402 32.0392L3.7102 32.1992L4.2902 32.5792L4.0802 33.7592L1.3502 33.2792V32.8092L1.2002 32.7792L0.960195 34.1492L1.1202 34.1792L1.2802 33.7392L4.0602 34.2292V34.6992L4.2102 34.7192ZM2.8502 36.5192L3.8402 36.1292L3.9102 36.5892H4.0702L4.0902 35.2192H3.9302L3.8402 35.6192L0.700195 36.8692V37.1092L3.8002 38.3992L3.8702 38.7992H4.0302L4.0502 37.6192H3.8902L3.8002 38.0792L2.8202 37.7092L2.8502 36.5192ZM1.3302 37.1092L2.6102 36.6092L2.5902 37.6192L1.3302 37.1092ZM2.8502 36.5192L3.8402 36.1292L3.9102 36.5892H4.0702L4.0902 35.2192H3.9302L3.8402 35.6192L0.700195 36.8692V37.1092L3.8002 38.3992L3.8702 38.7992H4.0302L4.0502 37.6192H3.8902L3.8002 38.0792L2.8202 37.7092L2.8502 36.5192ZM1.3302 37.1092L2.6102 36.6092L2.5902 37.6192L1.3302 37.1092ZM1.1002 41.0792L1.0302 40.0392L1.4802 39.8792L1.4702 39.7292L0.750195 39.8492L0.900195 42.0192L1.0602 42.0092L1.1102 41.5392L3.9202 41.3492L4.0302 41.8092L4.1902 41.7992L4.0202 39.3992L3.2102 39.2592L3.2202 39.4292L3.7502 39.5792L3.8402 40.8892L2.5502 40.9792L2.4902 40.1092L2.8502 39.9992L2.8402 39.8592C2.5902 39.8992 2.1402 39.9392 1.8902 39.9192L1.9002 40.0592L2.2602 40.1192L2.3102 40.9992L1.1002 41.0792ZM3.0702 45.3292L2.7402 43.4892L4.0802 43.2492L4.2402 43.6892L4.4002 43.6592L4.1602 42.2992L4.0002 42.3192V42.7892L1.2202 43.2792L1.0602 42.8392L0.900195 42.8692L1.1402 44.2392L1.3002 44.2092V43.7392L2.5002 43.5292L2.8202 45.3692L1.6202 45.5792L1.4602 45.1392L1.3002 45.1692L1.5402 46.5392L1.7002 46.5092V46.0392L4.4702 45.5492L4.6302 45.9892L4.7902 45.9592L4.5502 44.5892L4.4002 44.6192V45.0892L3.0702 45.3292ZM4.3702 49.0092L4.3302 48.8792C4.1002 48.9892 3.6702 49.1192 3.4202 49.1792L3.4602 49.3092L3.8302 49.2892L4.1202 50.1992L2.9602 50.5792L2.6302 49.5592L3.0602 49.2992L3.0102 49.1492L2.3102 49.4392L3.0102 51.5892L3.1602 51.5392L3.0802 51.0292L5.7602 50.1592L6.0002 50.5992L6.1502 50.5492L5.6902 49.1392L5.5402 49.1892L5.6202 49.6992L4.3502 50.1092L4.0602 49.1992L4.3702 49.0092ZM3.9802 54.0692C4.3902 55.0192 5.2602 55.3392 6.2602 54.9192C7.1302 54.5492 7.5802 53.7292 7.1102 52.6192C6.7102 51.6792 5.8402 51.3192 4.9702 51.6892C3.9702 52.1192 3.5102 52.9592 3.9802 54.0692ZM5.8602 54.5392C5.0702 54.8792 4.4302 54.6692 4.1502 54.0192C3.8802 53.3892 4.2002 52.5592 5.1102 52.1692C5.8202 51.8692 6.5802 51.8492 6.9202 52.6592C7.2502 53.4292 6.8202 54.1392 5.8602 54.5392ZM3.9802 54.0692C4.3902 55.0192 5.2602 55.3392 6.2602 54.9192C7.1302 54.5492 7.5802 53.7292 7.1102 52.6192C6.7102 51.6792 5.8402 51.3192 4.9702 51.6892C3.9702 52.1192 3.5102 52.9592 3.9802 54.0692ZM5.8602 54.5392C5.0702 54.8792 4.4302 54.6692 4.1502 54.0192C3.8802 53.3892 4.2002 52.5592 5.1102 52.1692C5.8202 51.8692 6.5802 51.8492 6.9202 52.6592C7.2502 53.4292 6.8202 54.1392 5.8602 54.5392ZM10.1902 58.6092L10.3202 58.5192L9.4802 57.2592L9.3502 57.3492L9.5802 57.8292L7.2502 59.3992L6.9102 58.8992C6.8102 58.7492 6.7202 58.6092 6.6502 58.4792L7.0202 58.0892L6.9202 57.9392L6.2702 58.4292L8.0102 60.9992L8.7402 60.6292L8.6502 60.4892L8.1202 60.6392C8.0302 60.5292 7.9402 60.3992 7.8402 60.2592L7.5102 59.7692L9.8302 58.2092L10.1902 58.6092ZM13.4702 62.6992L13.5902 62.5992L12.8102 61.6692L12.6902 61.7692L12.9402 62.1892L11.0402 63.7792C11.1402 63.0192 11.4802 60.5792 11.5502 60.1092L11.4002 59.9292L9.0402 61.9092L8.6802 61.6092L8.5602 61.7092L9.3302 62.6292L9.4502 62.5292L9.2102 62.1292L11.0002 60.6292L10.5202 64.0592L11.0802 64.7192L11.2002 64.6192L10.9602 64.2092L13.1202 62.3992L13.4702 62.6992ZM13.0402 66.2092L12.3002 65.4692L12.5402 65.0492L12.4402 64.9392L11.9702 65.4992L13.5102 67.0392L13.6202 66.9292L13.3502 66.5392L15.3402 64.5492L15.7202 64.8192L15.8302 64.7092L14.1302 63.0092L13.4202 63.4392L13.5402 63.5592L14.0402 63.3292L14.9602 64.2592L14.0502 65.1692L13.4302 64.5492L13.6302 64.2292L13.5302 64.1292C13.3702 64.3292 13.0602 64.6392 12.8502 64.7992L12.9502 64.8992L13.2602 64.7092L13.8702 65.3292L13.0402 66.2092ZM14.5802 67.7792L14.4902 67.9092L15.3102 68.4992L17.5602 67.1392L16.9802 69.7192L17.8102 70.3292L17.9002 70.1992L17.5402 69.8392L19.4302 67.7292L19.8002 67.8992L19.8902 67.7692L19.0002 67.1092L18.9002 67.2392L19.2102 67.5692L17.5002 69.4992V69.5092H17.4902L18.1602 66.5392L18.1102 66.5092L15.4702 68.1192L15.4602 68.1292H15.4502L16.8002 65.8392L17.2202 66.0492L17.3102 65.9192L16.2102 65.1192L16.1102 65.2492L16.4202 65.5692L14.9902 68.0192L14.5802 67.7792ZM22.2402 69.2792L22.3202 69.1392L21.0102 68.3792L20.9302 68.5192L21.3402 68.8492L19.9402 71.2692L19.4202 70.9692C19.2702 70.8792 19.1202 70.7892 19.0002 70.6992L19.1702 70.1892L19.0202 70.0992L18.6502 70.8192L21.3302 72.3692L21.8202 71.7192L21.6802 71.6392L21.2702 72.0092C21.1402 71.9492 21.0002 71.8792 20.8602 71.7892L20.3502 71.4992L21.7502 69.0792L22.2402 69.2792ZM24.0202 73.3792C23.9402 73.3692 23.8602 73.3392 23.7802 73.2992C23.2902 73.0792 23.1702 72.6992 23.3802 72.2192C23.6502 71.6092 23.9202 71.6992 24.4502 71.9392C24.5102 71.9692 24.5802 71.9992 24.6302 72.0292L24.0202 73.3792ZM26.0902 71.0792L26.1602 70.9292L24.8702 70.3492L24.8102 70.4992L25.2002 70.7592L24.7302 71.8192C24.5702 71.7492 24.4102 71.6792 24.2602 71.6292C24.1702 71.1092 24.0402 70.5492 23.8902 70.0192C23.8802 69.9792 23.7302 69.8692 23.6402 69.7992L23.3502 69.5692L23.2502 69.6792C23.4702 69.9092 23.5402 70.2792 23.6102 70.5592L23.8402 71.5492C23.4502 71.6192 23.0702 71.8292 22.9002 72.1992C22.6702 72.7192 22.9802 73.1192 23.4202 73.3092L24.8402 73.9392L24.9102 73.7892L24.5002 73.5192L25.6502 70.9492L26.0902 71.0792ZM24.0202 73.3792C23.9402 73.3692 23.8602 73.3392 23.7802 73.2992C23.2902 73.0792 23.1702 72.6992 23.3802 72.2192C23.6502 71.6092 23.9202 71.6992 24.4502 71.9392C24.5102 71.9692 24.5802 71.9992 24.6302 72.0292L24.0202 73.3792ZM26.0902 71.0792L26.1602 70.9292L24.8702 70.3492L24.8102 70.4992L25.2002 70.7592L24.7302 71.8192C24.5702 71.7492 24.4102 71.6792 24.2602 71.6292C24.1702 71.1092 24.0402 70.5492 23.8902 70.0192C23.8802 69.9792 23.7302 69.8692 23.6402 69.7992L23.3502 69.5692L23.2502 69.6792C23.4702 69.9092 23.5402 70.2792 23.6102 70.5592L23.8402 71.5492C23.4502 71.6192 23.0702 71.8292 22.9002 72.1992C22.6702 72.7192 22.9802 73.1192 23.4202 73.3092L24.8402 73.9392L24.9102 73.7892L24.5002 73.5192L25.6502 70.9492L26.0902 71.0792ZM27.4202 72.6092L27.3602 71.5492L27.8202 71.6192L27.8702 71.4692L26.5802 71.0292L26.5302 71.1792L26.8802 71.3892L27.0902 74.7692L27.3202 74.8492L29.5102 72.2892L29.9202 72.3392L29.9702 72.1892L28.8502 71.8092L28.8002 71.9592L29.2102 72.1892L28.5502 72.9992L27.4202 72.6092ZM27.5202 74.2392L27.4402 72.8692L28.3902 73.1992L27.5202 74.2392ZM27.4202 72.6092L27.3602 71.5492L27.8202 71.6192L27.8702 71.4692L26.5802 71.0292L26.5302 71.1792L26.8802 71.3892L27.0902 74.7692L27.3202 74.8492L29.5102 72.2892L29.9202 72.3392L29.9702 72.1892L28.8502 71.8092L28.8002 71.9592L29.2102 72.1892L28.5502 72.9992L27.4202 72.6092ZM27.5202 74.2392L27.4402 72.8692L28.3902 73.1992L27.5202 74.2392ZM32.6202 72.8792L32.6502 72.7192L31.2002 72.4092L31.1702 72.5692L31.6702 72.7592L31.0702 75.5592C30.9502 75.5492 30.8302 75.5292 30.7102 75.4992C30.3002 75.4092 30.0402 75.1392 30.1102 74.6392C30.1602 74.2692 30.3702 73.8092 31.0002 73.9392C31.0802 73.9592 31.1502 73.9792 31.2202 74.0192L31.2502 73.9992L31.2802 73.8692C31.1802 73.8192 31.0802 73.7892 30.9702 73.7592C30.3402 73.6292 29.7702 73.9792 29.6302 74.6192C29.4902 75.2592 29.9702 75.5292 30.5502 75.6492L31.9502 75.9492L32.0002 75.7892L31.5402 75.6092L32.1302 72.8592L32.6202 72.8792ZM34.4602 76.0192L33.4202 75.8892L33.3502 75.4092L33.2002 75.3992L33.1802 76.1292L35.3402 76.3892L35.3602 76.2292L34.9102 76.0892L35.2502 73.2892L35.7202 73.2692L35.7402 73.1092L33.3602 72.8192L33.0702 73.5892L33.2402 73.6092L33.4902 73.1192L34.7902 73.2792L34.6302 74.5592L33.7602 74.4492L33.7202 74.0792L33.5802 74.0592C33.5802 74.3192 33.5202 74.7592 33.4602 75.0092L33.6002 75.0292L33.7302 74.6892L34.5902 74.7992L34.4602 76.0192ZM38.9902 76.3392C38.7902 76.3592 38.6002 76.3592 38.4002 76.3592C37.4202 76.3392 36.8002 75.8792 36.8202 74.7892C36.8402 73.8892 37.3902 73.4092 38.2002 73.4292C38.5002 73.4392 38.7402 73.4792 39.0402 73.5292L38.9902 76.3392ZM39.9702 73.2592L38.2702 73.2292C37.2002 73.2092 36.3302 73.6992 36.3102 74.9492C36.2902 76.1392 37.1602 76.5092 38.1502 76.5292L39.9102 76.5592V76.3992L39.4502 76.3092L39.5002 73.4892L39.9602 73.4192L39.9702 73.2592ZM38.9902 76.3392C38.7902 76.3592 38.6002 76.3592 38.4002 76.3592C37.4202 76.3392 36.8002 75.8792 36.8202 74.7892C36.8402 73.8892 37.3902 73.4092 38.2002 73.4292C38.5002 73.4392 38.7402 73.4792 39.0402 73.5292L38.9902 76.3392ZM39.9702 73.2592L38.2702 73.2292C37.2002 73.2092 36.3302 73.6992 36.3102 74.9492C36.2902 76.1392 37.1602 76.5092 38.1502 76.5292L39.9102 76.5592V76.3992L39.4502 76.3092L39.5002 73.4892L39.9602 73.4192L39.9702 73.2592ZM35.8202 55.5592C40.2902 57.2792 45.5902 59.5592 50.0602 62.3392C50.9202 62.9192 51.3002 64.0092 50.9602 65.0492C49.7202 67.8992 44.5402 68.8892 46.1402 72.8792C46.6902 74.2992 48.0102 75.3992 49.5502 75.4892C49.8602 75.5292 50.2602 75.4592 50.8802 75.2592L51.2602 75.7992C50.5202 76.4392 50.1802 76.6492 49.7802 76.9092C48.8602 77.5092 47.4302 78.1192 45.4402 77.7892C44.2802 77.5092 43.1602 76.8892 42.4302 75.7792C41.7302 74.7192 41.6102 73.0092 42.2302 71.8592C43.3802 69.5992 46.7102 68.3092 47.0502 66.4392C47.2202 65.3992 46.1902 64.4692 45.3402 63.9292C38.8802 60.1992 32.0002 57.4992 24.8602 55.4092C23.9602 55.1592 22.5602 54.7092 21.5802 56.0292L21.1002 55.6592C21.1702 54.4592 21.8202 53.2992 22.9302 52.7192C24.8802 51.8392 27.5702 52.8492 29.0702 53.2992L35.8202 55.5592Z" fill="black"/>
</svg>
