<svg width="545" height="368" viewBox="0 0 545 368" fill="none" xmlns="http://www.w3.org/2000/svg">
    <path d="M122 92.4998C122 92.4998 -2.99995 103.7 0.300049 244.3C3.60005 384.9 177.8 367.1 177.8 367.1L434.5 367.8C560.7 366.1 598.6 160.9 441.2 138.2C421.9 -6.10022 194.2 -61.7002 122 92.4998Z" fill="#1B578C"/>
    <path d="M138.6 232.9C138.6 257.3 138.4 281.6 138.7 306C138.8 313.3 136.2 315.4 129.1 315.4C121.7 315.5 119.8 312.7 119.8 305.7C120 267.8 119.9 229.8 119.9 191.9C119.9 187 119.8 182 126.4 180.8C132.6 179.7 136.5 181.9 139.4 187.8C150.7 210.5 162.5 233 174.2 255.6C175.8 258.7 177.5 261.7 181.2 264.6C181.4 261.4 181.8 258.1 181.8 254.9C181.9 233.4 182 211.8 181.7 190.3C181.6 183.4 183.6 180.5 191 180.5C198.1 180.5 200.6 182.7 200.5 189.9C200.2 228.2 200.5 266.4 200.1 304.7C200.1 308.2 197.4 313.4 194.5 314.7C189.1 317.2 185.4 313.6 182.6 308.3C170.6 285.6 158.2 263 145.8 240.5C144.3 237.8 142.6 235.1 141 232.4C140.3 232.5 139.4 232.7 138.6 232.9Z" fill="white"/>
    <path d="M314.9 246.599C314.9 227.999 315.1 209.299 314.8 190.699C314.7 183.499 316.4 180.099 324.4 180.499C337.6 181.099 350.8 180.399 363.9 180.699C382.6 181.099 391.3 190.199 391.4 208.999C391.4 217.699 391.5 226.399 391.4 234.999C391.1 249.599 383.9 256.699 369.2 256.899C360.2 257.099 351.2 257.299 342.2 256.899C335.3 256.599 333.3 259.399 333.4 265.999C333.7 279.799 333.2 293.599 333.6 307.499C333.8 314.299 330.3 315.499 324.7 315.399C319 315.399 314.7 314.999 314.9 307.399C315.1 287.099 314.9 266.899 314.9 246.599ZM333.5 219.099C333.5 223.299 333.8 227.499 333.4 231.599C332.7 239.099 335.6 242.199 343.2 241.699C349.6 241.299 356 241.499 362.5 241.599C369.6 241.699 373.3 238.499 373.1 231.199C372.9 225.399 373.2 219.599 373.1 213.899C373 198.599 371.1 196.799 355.8 196.699C333.5 196.599 333.5 196.599 333.5 219.099Z" fill="white"/>
    <path d="M221.9 247.799C221.9 233.999 221.8 220.099 221.9 206.299C222 191.599 230.4 181.899 245.2 180.799C254.5 180.099 263.9 180.099 273.2 180.799C286 181.799 294.7 191.699 294 204.199C293.9 206.699 290.5 210.999 288.6 210.999C284.4 210.999 277.1 209.399 276.7 207.299C274.8 197.899 269.2 196.699 261.2 196.699C240.3 196.799 240.3 196.599 240.3 217.399C240.3 240.199 240.2 263.099 240.3 285.899C240.4 297.799 242.5 299.999 254.5 299.799C263.3 299.699 273.8 302.899 276.8 288.999C277.2 287.199 285.1 286.099 289.4 286.399C291 286.499 293.7 291.399 293.6 293.999C293.3 305.999 284.8 314.399 272.7 314.899C263.4 315.299 254 315.399 244.7 314.899C230.7 314.099 221.9 304.399 221.8 290.299C221.9 276.099 221.9 261.899 221.9 247.799Z" fill="white"/>
    <path d="M413.1 248.6C413.1 229.3 413.2 210.1 413 190.8C412.9 184.1 415 180.5 422.3 180.6C429.5 180.6 431.8 184.2 431.8 190.9C431.7 229.7 431.6 268.6 431.9 307.4C431.9 314.2 428.6 315.3 422.9 315.2C417.3 315.1 412.9 315.2 413 307.3C413.3 287.7 413.1 268.2 413.1 248.6Z" fill="white"/>
    <path d="M333.5 219.1C333.5 196.6 333.5 196.6 355.7 196.6C371.1 196.7 372.9 198.5 373 213.8C373 219.6 372.8 225.4 373 231.1C373.2 238.5 369.5 241.6 362.4 241.5C356 241.4 349.5 241.2 343.1 241.6C335.5 242.1 332.6 239 333.3 231.5C333.8 227.5 333.5 223.3 333.5 219.1Z" fill="#1B578C"/>
</svg>
