<svg width="107" height="40" viewBox="0 0 107 40" fill="none" xmlns="http://www.w3.org/2000/svg">
    <path d="M68.6055 24.2578H66.0762V21.8789H63.6699V19.1309L66.0488 19.1855V16.752H68.7969L68.7148 19.2812L71.1758 19.3359V21.8516H68.6602L68.6055 24.2578ZM85.9961 20.7031C85.9961 22.1159 85.8913 23.3372 85.6816 24.3672C85.4811 25.388 85.2122 26.2585 84.875 26.9785C84.5378 27.6986 84.1549 28.2819 83.7266 28.7285C83.3073 29.1751 82.8789 29.5215 82.4414 29.7676C82.0039 30.0137 81.5801 30.1777 81.1699 30.2598C80.7598 30.3509 80.3997 30.3965 80.0898 30.3965L77.2871 30.1641C77.4056 28.3047 77.4967 26.4362 77.5605 24.5586C77.6243 22.6719 77.6562 20.7715 77.6562 18.8574C77.6562 17.4082 77.638 15.9727 77.6016 14.5508C77.5651 13.1289 77.5104 11.707 77.4375 10.2852C77.6562 10.2669 77.8704 10.2533 78.0801 10.2441C78.2897 10.235 78.4948 10.2305 78.6953 10.2305C80.2083 10.2305 81.4388 10.4902 82.3867 11.0098C83.3346 11.5202 84.0729 12.2402 84.6016 13.1699C85.1393 14.0905 85.5039 15.1934 85.6953 16.4785C85.8958 17.7546 85.9961 19.1628 85.9961 20.7031ZM83.207 20.334C83.207 19.8874 83.1979 19.4134 83.1797 18.9121C83.1615 18.4017 83.1204 17.8958 83.0566 17.3945C83.002 16.8932 82.9154 16.4056 82.7969 15.9316C82.6784 15.4577 82.5234 15.0247 82.332 14.6328C82.1406 14.2318 81.9036 13.89 81.6211 13.6074C81.3477 13.3249 81.015 13.1243 80.623 13.0059C80.5684 14.0085 80.5182 14.9883 80.4727 15.9453C80.4362 16.8932 80.4043 17.832 80.377 18.7617C80.3496 19.6914 80.3268 20.6165 80.3086 21.5371C80.2995 22.4486 80.2949 23.3646 80.2949 24.2852C80.2949 24.8867 80.2949 25.4974 80.2949 26.1172C80.2949 26.7279 80.304 27.3522 80.3223 27.9902C80.7415 27.9447 81.1061 27.7852 81.416 27.5117C81.7259 27.2383 81.9857 26.8965 82.1953 26.4863C82.4141 26.0671 82.5872 25.5977 82.7148 25.0781C82.8516 24.5495 82.9564 24.0117 83.0293 23.4648C83.1022 22.9089 83.1478 22.362 83.166 21.8242C83.1934 21.2865 83.207 20.7897 83.207 20.334ZM96.0039 16.5059C95.931 17.9733 95.8809 19.4271 95.8535 20.8672C95.8262 22.2982 95.8125 23.7383 95.8125 25.1875C95.8125 26.0443 95.8125 26.8919 95.8125 27.7305C95.8216 28.569 95.8398 29.4167 95.8672 30.2734L93.1465 30.3418V28.6328C92.873 29.0794 92.5677 29.4212 92.2305 29.6582C91.8932 29.8952 91.5697 30.0638 91.2598 30.1641C90.959 30.2734 90.6992 30.3327 90.4805 30.3418C90.2617 30.36 90.1341 30.3691 90.0977 30.3691C89.5234 30.2507 89.0449 30 88.6621 29.6172C88.2884 29.2253 87.9876 28.7422 87.7598 28.168C87.541 27.5846 87.3861 26.9284 87.2949 26.1992C87.2038 25.4701 87.1582 24.7044 87.1582 23.9023C87.1582 23.2096 87.1855 22.5033 87.2402 21.7832C87.2949 21.0632 87.3633 20.3568 87.4453 19.6641C87.5273 18.9622 87.6185 18.2878 87.7188 17.6406C87.819 16.9844 87.9193 16.3737 88.0195 15.8086L91 15.8633C90.918 16.401 90.8314 16.9844 90.7402 17.6133C90.6582 18.2422 90.5807 18.8848 90.5078 19.541C90.444 20.1973 90.3893 20.8581 90.3438 21.5234C90.3073 22.1797 90.2891 22.804 90.2891 23.3965C90.2891 23.9434 90.3118 24.4538 90.3574 24.9277C90.403 25.4017 90.4759 25.8164 90.5762 26.1719C90.6764 26.5182 90.804 26.7917 90.959 26.9922C91.123 27.1836 91.3236 27.2793 91.5605 27.2793C91.8704 27.2793 92.1257 27.0924 92.3262 26.7188C92.5267 26.3451 92.6816 25.8574 92.791 25.2559C92.9095 24.6452 92.987 23.9616 93.0234 23.2051C93.069 22.4486 93.0918 21.6875 93.0918 20.9219C93.0918 20.3477 93.0827 19.8008 93.0645 19.2812C93.0462 18.7617 93.028 18.2969 93.0098 17.8867C92.9824 17.4128 92.9551 16.9707 92.9277 16.5605L96.0039 16.5059ZM106.176 26.3359C106.139 27.4115 106.103 28.3639 106.066 29.1934C106.03 30.0137 105.957 30.7337 105.848 31.3535C105.738 31.9733 105.574 32.4928 105.355 32.9121C105.137 33.3314 104.831 33.6686 104.439 33.9238C104.057 34.179 103.564 34.3613 102.963 34.4707C102.37 34.5892 101.641 34.6484 100.775 34.6484C100.347 34.6484 99.8867 34.6302 99.3945 34.5938C98.9023 34.5664 98.3737 34.5026 97.8086 34.4023L97.918 31.3945C98.5924 31.4401 99.1849 31.4766 99.6953 31.5039C100.215 31.5312 100.648 31.554 100.994 31.5723C101.404 31.5996 101.76 31.6178 102.061 31.627C102.498 31.627 102.826 31.3717 103.045 30.8613C103.273 30.3509 103.4 29.6445 103.428 28.7422C103.264 29.1068 103.077 29.403 102.867 29.6309C102.667 29.8587 102.457 30.0365 102.238 30.1641C102.029 30.3008 101.819 30.3919 101.609 30.4375C101.409 30.4831 101.222 30.5059 101.049 30.5059C100.584 30.5059 100.124 30.3646 99.668 30.082C99.2122 29.7995 98.8021 29.3346 98.4375 28.6875C98.082 28.0312 97.7904 27.179 97.5625 26.1309C97.3346 25.0736 97.2207 23.7702 97.2207 22.2207C97.2207 21.0176 97.3164 19.9603 97.5078 19.0488C97.7083 18.1374 97.9727 17.3717 98.3008 16.752C98.6289 16.1322 99.0072 15.6673 99.4355 15.3574C99.8639 15.0384 100.311 14.8789 100.775 14.8789C100.994 14.8789 101.227 14.9154 101.473 14.9883C101.728 15.0612 101.983 15.1934 102.238 15.3848C102.493 15.5671 102.735 15.8177 102.963 16.1367C103.2 16.4466 103.405 16.8477 103.578 17.3398L103.551 15.6582L105.984 15.7812L106.176 26.3359ZM103.182 23.5332C103.182 23.2507 103.177 22.918 103.168 22.5352C103.168 22.1432 103.154 21.7422 103.127 21.332C103.109 20.9128 103.068 20.5026 103.004 20.1016C102.94 19.7005 102.849 19.3405 102.73 19.0215C102.621 18.7025 102.475 18.4473 102.293 18.2559C102.111 18.0553 101.883 17.9551 101.609 17.9551C101.263 17.9551 100.99 18.1009 100.789 18.3926C100.598 18.6842 100.452 19.0579 100.352 19.5137C100.26 19.9694 100.206 20.4707 100.188 21.0176C100.169 21.5645 100.16 22.0931 100.16 22.6035C100.16 22.959 100.165 23.3327 100.174 23.7246C100.192 24.1165 100.219 24.5085 100.256 24.9004C100.292 25.2832 100.347 25.6478 100.42 25.9941C100.493 26.3405 100.584 26.6504 100.693 26.9238C100.803 27.1882 100.935 27.3978 101.09 27.5527C101.254 27.7077 101.445 27.7852 101.664 27.7852C101.938 27.7852 102.17 27.6758 102.361 27.457C102.553 27.2292 102.708 26.9238 102.826 26.541C102.954 26.1582 103.045 25.7116 103.1 25.2012C103.154 24.6816 103.182 24.1257 103.182 23.5332Z"
          fill="black"/>
    <path d="M12.744 10.0261C12.744 10.0261 -0.338661 11.2435 0.00672015 26.5261C0.352101 41.8087 18.584 39.8739 18.584 39.8739L45.4505 39.95C58.6588 39.7652 62.6254 17.4609 46.1518 14.9935C44.1318 -0.691303 20.3005 -6.73478 12.744 10.0261Z"
          fill="#1B578C"/>
    <path d="M14.4813 25.2865C14.4813 27.9386 14.4604 30.58 14.4918 33.2321C14.5022 34.0256 14.2301 34.2539 13.487 34.2539C12.7125 34.2647 12.5137 33.9604 12.5137 33.1995C12.5346 29.08 12.5241 24.9495 12.5241 20.83C12.5241 20.2973 12.5137 19.7539 13.2044 19.6234C13.8533 19.5039 14.2615 19.743 14.565 20.3843C15.7477 22.8517 16.9827 25.2973 18.2072 27.7539C18.3747 28.0908 18.5526 28.4169 18.9399 28.7321C18.9608 28.3843 19.0027 28.0256 19.0027 27.6778C19.0131 25.3408 19.0236 22.993 18.9922 20.656C18.9817 19.906 19.191 19.5908 19.9655 19.5908C20.7086 19.5908 20.9703 19.83 20.9598 20.6126C20.9284 24.7756 20.9598 28.9278 20.918 33.0908C20.918 33.4713 20.6354 34.0365 20.3318 34.1778C19.7667 34.4495 19.3794 34.0582 19.0864 33.4821C17.8305 31.0147 16.5327 28.5582 15.2349 26.1126C15.0779 25.8191 14.8999 25.5256 14.7325 25.2321C14.6592 25.243 14.565 25.2647 14.4813 25.2865Z"
          fill="white"/>
    <path d="M32.9333 26.7761C32.9333 24.7544 32.9542 22.7218 32.9228 20.7C32.9123 19.9174 33.0902 19.5478 33.9275 19.5913C35.3091 19.6565 36.6906 19.5805 38.0616 19.6131C40.0188 19.6565 40.9294 20.6457 40.9398 22.6891C40.9398 23.6348 40.9503 24.5805 40.9398 25.5152C40.9084 27.1022 40.1549 27.8739 38.6164 27.8957C37.6744 27.9174 36.7325 27.9391 35.7905 27.8957C35.0683 27.8631 34.859 28.1674 34.8695 28.8848C34.9009 30.3848 34.8486 31.8848 34.8904 33.3957C34.9114 34.1348 34.545 34.2652 33.9589 34.2544C33.3624 34.2544 32.9123 34.2109 32.9333 33.3848C32.9542 31.1783 32.9333 28.9826 32.9333 26.7761ZM34.88 23.787C34.88 24.2435 34.9113 24.7 34.8695 25.1457C34.7962 25.9609 35.0997 26.2978 35.8952 26.2435C36.565 26.2 37.2348 26.2218 37.9151 26.2326C38.6582 26.2435 39.0455 25.8957 39.0245 25.1022C39.0036 24.4718 39.035 23.8413 39.0245 23.2218C39.0141 21.5587 38.8152 21.3631 37.2139 21.3522C34.88 21.3413 34.88 21.3413 34.88 23.787Z"
          fill="white"/>
    <path d="M23.1994 26.9061C23.1994 25.4061 23.189 23.8952 23.1994 22.3952C23.2099 20.7974 24.089 19.743 25.638 19.6235C26.6114 19.5474 27.5952 19.5474 28.5685 19.6235C29.9082 19.7322 30.8188 20.8083 30.7455 22.1669C30.735 22.4387 30.3792 22.9061 30.1803 22.9061C29.7407 22.9061 28.9767 22.7322 28.9349 22.5039C28.736 21.4822 28.1499 21.3517 27.3126 21.3517C25.1252 21.3626 25.1252 21.3409 25.1252 23.6017C25.1252 26.08 25.1147 28.5691 25.1252 31.0474C25.1357 32.3409 25.3554 32.58 26.6114 32.5583C27.5324 32.5474 28.6313 32.8952 28.9453 31.3843C28.9872 31.1887 29.814 31.0691 30.264 31.1017C30.4315 31.1126 30.7141 31.6452 30.7036 31.9278C30.6722 33.2322 29.7826 34.1452 28.5162 34.1996C27.5429 34.243 26.559 34.2539 25.5857 34.1996C24.1204 34.1126 23.1994 33.0583 23.189 31.5256C23.1994 29.9822 23.1994 28.4387 23.1994 26.9061Z"
          fill="white"/>
    <path d="M43.2108 26.9931C43.2108 24.8953 43.2212 22.8083 43.2003 20.7105C43.1898 19.9822 43.4096 19.5909 44.1737 19.6018C44.9272 19.6018 45.1679 19.9931 45.1679 20.7213C45.1575 24.9387 45.147 29.167 45.1784 33.3844C45.1784 34.1235 44.833 34.2431 44.2364 34.2322C43.6503 34.2213 43.1898 34.2322 43.2003 33.3735C43.2317 31.2431 43.2108 29.1235 43.2108 26.9931Z"
          fill="white"/>
    <path d="M34.8797 23.7865C34.8797 21.3408 34.8797 21.3408 37.2031 21.3408C38.8149 21.3517 39.0033 21.5473 39.0138 23.2104C39.0138 23.8408 38.9928 24.4713 39.0138 25.0908C39.0347 25.8952 38.6475 26.2321 37.9044 26.2213C37.2345 26.2104 36.5542 26.1886 35.8844 26.2321C35.089 26.2865 34.7855 25.9495 34.8587 25.1343C34.9111 24.6995 34.8797 24.243 34.8797 23.7865Z"
          fill="#1B578C"/>
</svg>
