<svg width="33" height="32" viewBox="0 0 33 32" fill="none" xmlns="http://www.w3.org/2000/svg">
<g clip-path="url(#clip0_1077_18111)">
<path d="M15.2778 5.68862e-06V0.0387248L15.3381 0.043103C15.3941 0.043103 15.4371 0.0602659 15.4672 0.0904077C15.4888 0.111935 15.4974 0.172187 15.4931 0.262637L15.4759 1.21424C15.4759 1.29602 15.4673 1.35203 15.4501 1.37355C15.4199 1.41231 15.3726 1.42953 15.308 1.42953L15.252 1.42524V1.46825L15.915 1.48113V1.43811H15.8547C15.7988 1.43811 15.7557 1.42087 15.7256 1.39072C15.704 1.36489 15.6955 1.30895 15.6998 1.2185L15.7084 0.787952C15.717 0.787952 15.7299 0.78794 15.7428 0.792245H15.7729H15.8633L16.3801 1.48977L16.7976 1.49407V1.45535C16.7159 1.44243 16.647 1.42515 16.591 1.39072C16.5393 1.35628 16.4791 1.29166 16.4059 1.19267L16.0916 0.766427C16.225 0.740593 16.3241 0.697497 16.3843 0.632935C16.4489 0.564068 16.4834 0.490897 16.4834 0.396142C16.4834 0.314363 16.4618 0.241129 16.4058 0.180808C16.3542 0.116245 16.2853 0.0732037 16.2078 0.0516829C16.1303 0.0258503 16.0097 0.012891 15.8461 0.00858553L15.2778 0L15.2778 5.68862e-06ZM14.8731 0.0258471L13.6761 0.124843V0.16794L13.732 0.163647C13.7966 0.155037 13.8441 0.167947 13.8742 0.193782C13.8957 0.211003 13.9086 0.266952 13.9215 0.361707L14.0119 1.31331C14.0162 1.38217 14.0162 1.42958 14.0119 1.45541C14.0033 1.47694 13.9904 1.49847 13.9689 1.51138C13.9345 1.52861 13.9 1.54152 13.8655 1.54152L13.8096 1.5501L13.8138 1.58882L15.0108 1.48983L15.1098 1.11087L15.0625 1.11525C15.0195 1.21 14.9764 1.27881 14.9333 1.32621C14.8989 1.36497 14.8645 1.39084 14.8257 1.40375C14.787 1.42097 14.7267 1.42957 14.6405 1.43818L14.3779 1.45973C14.3305 1.46403 14.3047 1.45974 14.2875 1.45543C14.2703 1.44682 14.2617 1.43822 14.2531 1.4253C14.2445 1.41239 14.2402 1.37356 14.2316 1.30896L14.1842 0.826706L14.5286 0.796573C14.5932 0.792266 14.6406 0.796633 14.675 0.805244C14.7095 0.818159 14.731 0.835382 14.7483 0.861219C14.7612 0.878438 14.7784 0.921436 14.7914 0.994648L14.8344 0.990355L14.787 0.486578L14.744 0.490871C14.7483 0.568346 14.731 0.62873 14.6923 0.663164C14.6665 0.688998 14.6105 0.710455 14.5201 0.714761L14.1756 0.744894L14.1239 0.167947L14.5501 0.13352C14.6276 0.129215 14.6793 0.129215 14.7137 0.13352C14.7524 0.146436 14.7826 0.167953 14.8041 0.193788C14.83 0.219621 14.8515 0.275567 14.873 0.348738L14.9204 0.344445L14.873 0.0258737L14.8731 0.0258471ZM16.8106 0.0258471L16.8063 0.0645662C16.8537 0.0731771 16.8882 0.0861491 16.914 0.103371C16.9398 0.120594 16.9613 0.137803 16.9786 0.163639C16.9872 0.18086 17.0044 0.219576 17.0259 0.288459L17.4392 1.61034L17.4823 1.61893L18.1841 0.439272C18.2229 0.370405 18.2658 0.318629 18.3133 0.2885C18.3434 0.271277 18.3865 0.258379 18.4424 0.254073L18.4467 0.215354L17.9731 0.159379L17.9688 0.198098C17.9774 0.202403 17.9817 0.206683 17.9903 0.206683C18.0377 0.219599 18.0765 0.236838 18.0937 0.258366C18.1152 0.279894 18.1238 0.301396 18.1195 0.322928C18.1152 0.353067 18.0894 0.409075 18.042 0.490854L17.5684 1.28744L17.2885 0.391858C17.2627 0.310079 17.2541 0.254125 17.2584 0.215324C17.2627 0.189489 17.2756 0.172265 17.2971 0.159349C17.323 0.142123 17.3703 0.1378 17.4392 0.1378L17.4435 0.0990812L16.8106 0.0258471H16.8106ZM15.8978 0.0904096C15.9968 0.0947144 16.0744 0.124837 16.1346 0.180797C16.1906 0.241078 16.2207 0.314289 16.2207 0.408981C16.2164 0.499432 16.1777 0.57697 16.1045 0.637291C16.027 0.697571 15.915 0.723375 15.7686 0.723375C15.7643 0.723375 15.7557 0.723302 15.7471 0.718996H15.7428H15.7385H15.7342H15.7299H15.7255H15.7212H15.717H15.7127H15.7084L15.7212 0.111919C15.7945 0.0990021 15.8547 0.0903703 15.8978 0.0903703L15.8978 0.0904096ZM13.2283 0.163644L13.1853 0.167936C13.1853 0.206687 13.1766 0.228248 13.1723 0.24117C13.1594 0.254087 13.1422 0.262706 13.125 0.267011C13.1077 0.271317 13.0733 0.266951 13.0303 0.25834C12.9312 0.236813 12.8408 0.232544 12.759 0.245463C12.6298 0.271295 12.5266 0.327242 12.4576 0.417692C12.3888 0.50808 12.3672 0.602835 12.3844 0.706135C12.3973 0.766415 12.4232 0.818106 12.4619 0.865452C12.5007 0.908506 12.5524 0.947294 12.617 0.977423C12.6773 1.00756 12.7849 1.04629 12.9313 1.09364C13.0777 1.13669 13.1638 1.16681 13.1982 1.18402C13.2499 1.20555 13.2886 1.2357 13.3145 1.26587C13.3446 1.30031 13.3618 1.3348 13.3704 1.36923C13.3833 1.43379 13.3661 1.49405 13.323 1.55C13.2757 1.61028 13.2068 1.64476 13.1121 1.66197C13.0303 1.67489 12.9528 1.67493 12.8796 1.6491C12.8021 1.63187 12.7461 1.59739 12.703 1.55004C12.6557 1.50268 12.6169 1.43376 12.5739 1.3304L12.5308 1.33907L12.6341 1.83418L12.6772 1.82559C12.6729 1.79114 12.6772 1.76957 12.6858 1.75666C12.6944 1.74374 12.7073 1.73512 12.7245 1.73082C12.7461 1.72651 12.7935 1.73088 12.871 1.73949C12.9528 1.75241 13.0001 1.75667 13.026 1.75237C13.069 1.75237 13.1078 1.7481 13.1551 1.73949C13.2929 1.71366 13.4005 1.65334 13.478 1.55859C13.5512 1.46383 13.5771 1.36053 13.5556 1.25287C13.5426 1.19689 13.5168 1.14096 13.478 1.09792C13.4392 1.04625 13.3876 1.01183 13.3274 0.981705C13.2671 0.951566 13.1594 0.912838 13.0001 0.865492C12.8064 0.809516 12.6816 0.757825 12.6255 0.71472C12.5825 0.684581 12.5609 0.645853 12.5523 0.602749C12.5394 0.546775 12.5523 0.490777 12.5953 0.434823C12.6384 0.383154 12.6987 0.344436 12.7805 0.331523C12.8494 0.318604 12.9183 0.322873 12.9872 0.344401C13.0604 0.365931 13.1207 0.404694 13.1681 0.452068C13.2154 0.503737 13.2542 0.572648 13.2843 0.667403L13.3273 0.658732L13.2283 0.163627L13.2283 0.163644ZM18.6879 0.275615L18.675 0.314334L18.731 0.322919C18.7654 0.331531 18.7999 0.344475 18.83 0.370309C18.8472 0.387532 18.8601 0.404766 18.8644 0.421991C18.8687 0.447826 18.8601 0.495162 18.8429 0.568396L18.6319 1.49841C18.6147 1.5845 18.5932 1.63621 18.5717 1.65773C18.5329 1.68356 18.4855 1.69211 18.4209 1.67919L18.3692 1.67061L18.3606 1.70941L19.0065 1.84284L19.0194 1.79983L18.9634 1.79116C18.929 1.78254 18.8945 1.76538 18.8687 1.74385C18.8472 1.72663 18.8343 1.70941 18.83 1.68788C18.83 1.66635 18.8342 1.61471 18.8514 1.54578L19.0625 0.611459C19.0797 0.52968 19.1012 0.473663 19.127 0.456383C19.1615 0.426244 19.2088 0.421919 19.2734 0.434834L19.3251 0.443505L19.3381 0.404701L18.6879 0.275576L18.6879 0.275615ZM11.2949 0.602795L10.7783 0.775088L10.7955 0.813807L10.8429 0.796551C10.9032 0.775023 10.9505 0.775023 10.985 0.796551C11.0151 0.809467 11.0453 0.856813 11.0797 0.942956L11.3768 1.7353L10.0938 1.00334L9.69336 1.13677L9.70624 1.17557C9.74928 1.15835 9.78377 1.15404 9.80529 1.14973C9.85264 1.14973 9.89144 1.154 9.91727 1.16261C9.94739 1.16692 9.99037 1.18844 10.0507 1.22288L10.4124 2.18302C10.4425 2.2605 10.4511 2.31221 10.4468 2.34234C10.4339 2.3854 10.3951 2.41982 10.3306 2.43703L10.2789 2.45429L10.2962 2.49301L10.8085 2.32078L10.7957 2.28206L10.7397 2.29931C10.6837 2.32084 10.6363 2.32084 10.5975 2.29931C10.5717 2.2864 10.5416 2.23469 10.5114 2.14854L10.1886 1.30031L11.575 2.08822L11.6137 2.07964L11.1746 0.912764C11.1444 0.835289 11.1315 0.779335 11.1401 0.75351C11.1574 0.710449 11.1918 0.680276 11.2564 0.658755L11.3076 0.637424L11.2943 0.602864L11.2949 0.602795ZM20.1849 0.609821C20.116 0.608206 20.0471 0.615692 19.9782 0.632915C19.8404 0.663054 19.7198 0.72767 19.6165 0.826666C19.5132 0.925725 19.4357 1.042 19.3927 1.18404C19.3367 1.35627 19.3367 1.52419 19.3969 1.68351C19.4787 1.89448 19.638 2.03658 19.8877 2.10544C20.0212 2.1442 20.1504 2.14846 20.2667 2.11832C20.3872 2.08819 20.5035 2.02357 20.6197 1.92027L20.5896 1.89013C20.4647 1.98052 20.3614 2.03223 20.2752 2.04945C20.1892 2.07098 20.0988 2.06663 19.9998 2.03649C19.8878 2.00635 19.7974 1.9504 19.7285 1.87723C19.6596 1.80406 19.6166 1.71361 19.6037 1.60594C19.5907 1.50258 19.6036 1.38637 19.6424 1.25724C19.694 1.10654 19.7587 0.981651 19.8361 0.891263C19.918 0.800876 20.0041 0.744795 20.0987 0.71897C20.1935 0.693137 20.2882 0.697514 20.3872 0.723349C20.5035 0.757795 20.5982 0.818041 20.6585 0.904124C20.723 0.990207 20.7532 1.11079 20.7532 1.2658L20.7876 1.27868L20.9081 0.792182L20.8652 0.779304C20.848 0.809443 20.8264 0.830944 20.8006 0.843866C20.779 0.852477 20.7618 0.856758 20.7446 0.852452C20.7273 0.848148 20.7101 0.835273 20.6843 0.80944C20.5982 0.727661 20.4991 0.675948 20.3915 0.641515C20.3226 0.622139 20.2538 0.611364 20.1848 0.609749L20.1849 0.609821ZM21.2527 0.94295L21.2354 0.981755L21.2871 0.998925C21.3474 1.02476 21.3818 1.05497 21.3948 1.08944C21.4034 1.11958 21.3904 1.17559 21.3517 1.25736L20.9599 2.13997C20.9255 2.20453 20.9039 2.24758 20.8867 2.26479C20.8695 2.28201 20.848 2.29493 20.8221 2.29493C20.7834 2.29493 20.7489 2.29066 20.7145 2.28205L20.6628 2.25621L20.6455 2.29493L21.7521 2.73414L22.0277 2.4457L21.9846 2.42844C21.8986 2.493 21.8253 2.53611 21.765 2.56193C21.7177 2.57916 21.6746 2.58341 21.6315 2.5791C21.5928 2.5748 21.5282 2.55765 21.4507 2.52751L21.2053 2.43275C21.1665 2.41553 21.1407 2.40266 21.132 2.38974C21.1191 2.37252 21.1149 2.35956 21.1149 2.34664C21.1192 2.32942 21.1278 2.29067 21.1579 2.23467L21.3559 1.78685L21.6745 1.91173C21.7305 1.93757 21.7736 1.96335 21.7952 1.98491C21.821 2.01074 21.8296 2.03658 21.8339 2.06675C21.8339 2.08828 21.8253 2.13568 21.808 2.20454L21.8468 2.21751L22.0577 1.75247L22.019 1.7353C21.9803 1.80847 21.933 1.85581 21.8856 1.86873C21.8468 1.88165 21.7865 1.87304 21.7047 1.83859L21.3903 1.71377L21.6272 1.17987L22.0233 1.33482C22.0922 1.36496 22.1396 1.39081 22.1654 1.41235C22.1956 1.43819 22.2128 1.46831 22.2171 1.50274C22.2214 1.53719 22.2171 1.59319 22.1999 1.67067L22.2429 1.68792L22.3591 1.3822L21.2526 0.942987L21.2527 0.94295ZM8.77892 1.51996L8.74879 1.53292L8.82202 2.84607C8.83063 2.96235 8.82637 3.04419 8.80915 3.09154C8.80054 3.11307 8.76605 3.14319 8.71439 3.18193L8.73165 3.22064L9.17516 3.00968L9.15361 2.97516C9.08475 3.001 9.03728 3.014 9.00715 3.00538C8.9813 3.00108 8.95978 2.98811 8.95117 2.96658C8.93826 2.94075 8.92964 2.89771 8.92533 2.83746L8.90816 2.58769L9.45498 2.33368L9.63588 2.48008C9.69613 2.52744 9.73493 2.56617 9.74785 2.5963C9.76076 2.61783 9.76076 2.6394 9.74785 2.66523C9.73493 2.68675 9.70476 2.71252 9.64879 2.74264L9.67034 2.78144L10.2172 2.51876L10.2 2.48433C10.1397 2.51017 10.0879 2.51451 10.0449 2.50159C9.99756 2.49298 9.93294 2.44995 9.84685 2.38107L8.77905 1.51993L8.77892 1.51996ZM23.0072 1.69928C22.9643 1.69772 22.9217 1.7024 22.8798 1.7137C22.7635 1.74384 22.6817 1.80409 22.6257 1.89448C22.5956 1.95045 22.5827 2.00215 22.5827 2.0624C22.5827 2.11838 22.5956 2.17868 22.6257 2.2433C22.6516 2.30359 22.7119 2.39395 22.7937 2.51877C22.8755 2.63935 22.9228 2.71683 22.9401 2.74696C22.9616 2.79431 22.9745 2.84171 22.9745 2.88045C22.9745 2.9235 22.9659 2.96223 22.9487 2.99242C22.9142 3.04839 22.8582 3.08717 22.785 3.10439C22.7162 3.12161 22.6344 3.10873 22.5526 3.06567C22.4793 3.03123 22.4191 2.97946 22.376 2.9192C22.333 2.85892 22.3114 2.79438 22.3071 2.73412C22.3028 2.67384 22.3201 2.59202 22.3545 2.48866L22.3201 2.47149L22.0616 2.91488L22.1004 2.93214C22.1263 2.90631 22.1392 2.88904 22.1564 2.88904C22.1736 2.88043 22.1866 2.88481 22.2038 2.89342C22.221 2.90203 22.2597 2.93215 22.3113 2.98381C22.3673 3.03978 22.4018 3.07419 22.4233 3.08711C22.4534 3.10864 22.4922 3.13453 22.531 3.15173C22.6559 3.21629 22.7807 3.23357 22.9013 3.20341C23.0261 3.17328 23.1123 3.10866 23.1682 3.00966C23.1984 2.9623 23.2112 2.902 23.2155 2.84174C23.2155 2.78576 23.2027 2.7254 23.1768 2.66514C23.1467 2.60917 23.0907 2.5145 22.9959 2.38537C22.8839 2.22605 22.8238 2.10971 22.8065 2.04085C22.7979 1.99349 22.8022 1.95046 22.8237 1.91172C22.8539 1.86005 22.9012 1.82558 22.9702 1.80836C23.039 1.79114 23.1122 1.79976 23.1811 1.8342C23.2457 1.86865 23.2975 1.91174 23.3362 1.972C23.3793 2.03227 23.4008 2.09688 23.4051 2.16144C23.4051 2.22601 23.3878 2.30779 23.3534 2.39824L23.3921 2.41978L23.6461 1.97196L23.6075 1.95471C23.5859 1.98054 23.5644 1.9935 23.5472 1.9978C23.53 2.00211 23.5128 2.00205 23.4955 1.98913C23.4783 1.98483 23.4567 1.96331 23.4309 1.92886C23.3664 1.85139 23.2975 1.79537 23.2243 1.75664C23.1516 1.72165 23.0789 1.70181 23.0073 1.6992L23.0072 1.69928ZM8.8688 1.85581L9.38543 2.27775L8.90317 2.50163L8.86875 1.85575L8.8688 1.85581ZM7.79239 2.02804L7.43072 2.26053L7.65472 3.50057L6.50938 2.85039L6.1391 3.08718L6.16494 3.12169C6.21659 3.08725 6.25963 3.06572 6.28976 3.06572C6.32419 3.06141 6.35005 3.06569 6.3716 3.07431C6.40173 3.09153 6.43623 3.12599 6.47496 3.18197L7.0476 3.97419C7.09497 4.04306 7.12084 4.08616 7.12084 4.11629C7.12084 4.16364 7.09501 4.20238 7.039 4.23681L6.99161 4.26694L7.01745 4.30137L7.46951 4.00862L7.44367 3.97849L7.39628 4.00862C7.3489 4.03875 7.30152 4.05166 7.25848 4.04305C7.22835 4.03444 7.18531 3.99142 7.13366 3.91823L6.54805 3.10873L7.77947 3.81056L7.8096 3.79339L7.56851 2.45429L8.154 3.26379C8.20137 3.33265 8.22723 3.38006 8.22723 3.40589C8.22723 3.45323 8.2014 3.49197 8.14539 3.52641L8.098 3.55654L8.12384 3.59097L8.67072 3.23796L8.64917 3.20783L8.60178 3.23367C8.5544 3.2681 8.50709 3.28101 8.46399 3.26809C8.43386 3.26379 8.39075 3.22076 8.3348 3.14758L7.76216 2.35523C7.71479 2.28637 7.68893 2.23902 7.68893 2.20883C7.68893 2.16577 7.71913 2.12274 7.77513 2.08831L7.81815 2.05818L7.7923 2.02804L7.79239 2.02804ZM23.9082 2.85469C23.779 2.85469 23.6801 2.94945 23.6801 3.07003C23.6801 3.18631 23.779 3.28524 23.9082 3.28524H23.9083H23.9169H23.9297L23.9427 3.28094H23.9513L23.9643 3.27665H23.9771L23.9857 3.27236L23.9944 3.26807L24.0073 3.26377L24.0158 3.25948L24.0245 3.2551L24.0374 3.24652L24.046 3.24223L24.0547 3.23364L24.0632 3.22926L24.0675 3.22068L24.0762 3.21209L24.0848 3.2078L24.0891 3.19913L24.0977 3.19054L24.102 3.18196L24.1063 3.17337L24.1149 3.1647L24.1192 3.15182L24.1235 3.14315V3.13457L24.1278 3.12169L24.1322 3.11302V3.10014L24.1365 3.09156V3.07859V3.07001C24.1365 2.94943 24.033 2.85467 23.9082 2.85467L23.9082 2.85469ZM25.1612 2.92362L25.1354 2.95376L25.1784 2.98819C25.2257 3.02263 25.2473 3.05711 25.2473 3.09585C25.2516 3.1303 25.2215 3.1863 25.1612 3.25517L24.778 3.69869C24.6574 3.83642 24.5886 3.93972 24.5628 4.00435C24.5283 4.0991 24.5283 4.19379 24.5585 4.28849C24.5886 4.38324 24.6704 4.4823 24.8038 4.58129C24.9244 4.67605 25.0406 4.72764 25.1483 4.73194C25.2603 4.74055 25.3507 4.7233 25.4325 4.68026C25.5099 4.63288 25.5961 4.55537 25.6951 4.4391L26.0912 3.97843C26.1471 3.91386 26.1902 3.87937 26.216 3.87076C26.2763 3.85355 26.328 3.86216 26.3753 3.90089L26.4184 3.93541L26.4442 3.90089L26.0223 3.57802L25.9965 3.61244V3.61253L26.0395 3.64266C26.0869 3.6814 26.1084 3.71583 26.1084 3.75888C26.1127 3.78904 26.0825 3.84065 26.0222 3.90952L25.6218 4.37026C25.5184 4.49514 25.4323 4.57262 25.3678 4.60274C25.2989 4.63719 25.2214 4.64579 25.131 4.63288C25.0405 4.61566 24.9545 4.58123 24.877 4.51667C24.8167 4.47359 24.7693 4.42198 24.7478 4.37026C24.722 4.31428 24.7134 4.26253 24.7177 4.21519C24.722 4.1635 24.7479 4.10758 24.7866 4.04296C24.8253 3.97839 24.8684 3.92668 24.9028 3.88364L25.3334 3.38423C25.3893 3.32397 25.4323 3.28517 25.4625 3.27656C25.5099 3.26362 25.5573 3.27655 25.6046 3.31099L25.6519 3.34541L25.6778 3.31528L25.1612 2.92348L25.1612 2.92362ZM5.92807 3.25948L5.52336 3.60394L5.5492 3.63407L5.59221 3.59535C5.63525 3.56089 5.67835 3.54365 5.7257 3.54796C5.75586 3.55226 5.80317 3.58672 5.8721 3.65563L6.29404 4.09902C6.40164 4.2153 6.47063 4.30575 6.49646 4.37031C6.51798 4.43918 6.51792 4.51241 6.48778 4.59419C6.45762 4.67597 6.40601 4.74914 6.32853 4.8137C6.27255 4.86535 6.21226 4.89554 6.15194 4.91276C6.09165 4.92568 6.03566 4.92566 5.98832 4.91705C5.93233 4.90414 5.88071 4.86969 5.81609 4.82666C5.7558 4.77929 5.70848 4.73191 5.66544 4.68887L5.21338 4.21522C5.15309 4.15066 5.12293 4.10755 5.11863 4.07742C5.11002 4.03008 5.1316 3.98697 5.17898 3.94824L5.22199 3.90952L5.19186 3.88368L4.70106 4.30137L4.7269 4.3315L4.76991 4.29708C4.81295 4.25831 4.856 4.24109 4.89473 4.24539C4.9335 4.2497 4.98518 4.28846 5.04981 4.35306L5.45452 4.7793C5.57941 4.91279 5.6741 4.99463 5.74296 5.02476C5.83335 5.07214 5.93247 5.08939 6.04007 5.07645C6.14337 5.05923 6.25965 4.99891 6.38453 4.89555C6.50081 4.79649 6.56961 4.69325 6.5955 4.59419C6.62562 4.49519 6.62135 4.40468 6.58691 4.32721C6.54818 4.24543 6.47931 4.15067 6.37595 4.04307L5.95402 3.59955C5.89373 3.53929 5.86357 3.49625 5.85926 3.46612C5.85065 3.41013 5.8679 3.36276 5.91094 3.32832L5.95833 3.2896L5.9282 3.25947L5.92807 3.25948ZM26.7246 4.27121C26.6041 4.27121 26.5094 4.30566 26.4276 4.37887C26.3845 4.42625 26.3501 4.47363 26.3329 4.52965C26.3156 4.58133 26.3113 4.64586 26.3199 4.71042C26.3285 4.77929 26.3544 4.88265 26.3974 5.02045C26.4405 5.15824 26.4664 5.24433 26.4707 5.27876C26.475 5.33475 26.4749 5.37788 26.462 5.42092C26.4491 5.45966 26.4276 5.4941 26.4017 5.51562C26.3544 5.56298 26.2898 5.58879 26.2165 5.58448C26.1391 5.58018 26.0702 5.55009 26.0013 5.48549C25.9411 5.42953 25.9023 5.36491 25.8765 5.29604C25.855 5.22711 25.8506 5.15824 25.8678 5.10229C25.8808 5.042 25.9238 4.9688 25.9841 4.87841L25.9539 4.84828L25.5793 5.20565L25.6095 5.23578C25.6396 5.21425 25.6612 5.20565 25.6784 5.20565C25.6956 5.20565 25.7085 5.20999 25.7214 5.22291C25.7343 5.23582 25.7602 5.27455 25.7989 5.33912C25.8334 5.40798 25.8592 5.45103 25.8721 5.46824C25.8936 5.49837 25.9238 5.5285 25.954 5.55863C26.0573 5.65769 26.1692 5.7051 26.2941 5.7094C26.419 5.71371 26.5223 5.67496 26.6084 5.59743C26.6515 5.55436 26.686 5.50698 26.7032 5.44666C26.7247 5.39067 26.729 5.33045 26.7204 5.26588C26.7118 5.20561 26.6859 5.09802 26.6343 4.94731C26.5783 4.76647 26.5481 4.63729 26.5567 4.56836C26.561 4.52101 26.5784 4.48227 26.6128 4.44784C26.6559 4.40907 26.7161 4.38756 26.785 4.39186C26.8583 4.39186 26.9228 4.41769 26.9788 4.47371C27.0304 4.52108 27.0648 4.57701 27.0863 4.64594C27.1078 4.7148 27.1078 4.77943 27.0906 4.84399C27.0734 4.90855 27.0347 4.98172 26.9701 5.0592L27.0002 5.08504L27.3835 4.72773L27.3491 4.6976C27.3189 4.71913 27.2931 4.72773 27.2802 4.72773C27.263 4.72773 27.2457 4.7191 27.2328 4.70618C27.2199 4.69327 27.2026 4.66744 27.1854 4.62434C27.151 4.53826 27.0993 4.46502 27.0433 4.409C26.9486 4.32286 26.8409 4.27551 26.7246 4.27121L26.7246 4.27121ZM4.52037 4.47793L4.08122 4.94721L4.11565 4.97306L4.15007 4.93434C4.1759 4.90849 4.20173 4.89128 4.24046 4.87836C4.26628 4.86975 4.28787 4.86976 4.30939 4.87407C4.33521 4.88268 4.37395 4.91283 4.43421 4.96015L4.77436 5.24005L4.30072 5.74813V5.74822L3.96056 5.47262C3.90458 5.42528 3.87018 5.39078 3.85726 5.36926C3.84434 5.34774 3.83998 5.32624 3.84859 5.30039C3.85723 5.26596 3.87445 5.23577 3.89598 5.20988L3.9347 5.17116L3.90027 5.14532L3.46543 5.61466L3.49557 5.6405L3.53428 5.60178C3.5558 5.58023 3.58596 5.55873 3.62037 5.54581C3.64619 5.5372 3.66777 5.53713 3.6893 5.54143C3.71512 5.55004 3.75816 5.58019 3.81412 5.62751L4.5762 6.25617C4.64943 6.31213 4.6838 6.35517 4.69241 6.381C4.70102 6.42404 4.68377 6.47145 4.64073 6.51879L4.6063 6.55751L4.63644 6.57906L5.07565 6.10972L5.04114 6.08388L5.00671 6.12259C4.98088 6.14844 4.95074 6.16996 4.91632 6.17857C4.89047 6.18718 4.869 6.18725 4.84746 6.18295C4.82594 6.17434 4.77853 6.14852 4.72257 6.09686L4.36527 5.80405L4.83885 5.29167L5.19622 5.58878C5.26515 5.64474 5.30382 5.68778 5.31243 5.7136C5.31673 5.75665 5.30379 5.80399 5.26075 5.84703L5.22632 5.88584L5.25645 5.91159L5.69567 5.44231L5.66124 5.41647L5.62681 5.45519C5.60099 5.48104 5.57076 5.49825 5.5363 5.51117C5.51048 5.51978 5.48897 5.51976 5.46743 5.51546C5.44161 5.50685 5.40287 5.4767 5.34261 5.42938L4.5804 4.80078C4.52445 4.75774 4.48571 4.7233 4.4771 4.70178C4.46419 4.68026 4.45991 4.65437 4.46852 4.63285C4.47285 4.59842 4.48999 4.56829 4.51582 4.54247L4.55102 4.50354L4.52082 4.47771L4.52037 4.47793ZM28.1931 5.59746L26.8497 5.95913C26.7334 5.99357 26.6473 6.00647 26.5914 5.99785C26.5655 5.99355 26.5268 5.97634 26.4794 5.93329L26.445 5.95905L26.755 6.31642L26.7894 6.29487C26.7464 6.23461 26.7249 6.19157 26.7249 6.16574C26.7249 6.13989 26.7334 6.11841 26.7506 6.10118C26.7721 6.08393 26.8152 6.06672 26.8798 6.0495L27.1338 5.98057L27.5214 6.42409V6.42417L27.4094 6.62653C27.3707 6.6911 27.3405 6.73414 27.3147 6.75566C27.2932 6.76857 27.2716 6.77293 27.2458 6.76862C27.2157 6.76432 27.1813 6.73843 27.1382 6.69539L27.1081 6.72123L27.4955 7.16905L27.53 7.14321C27.4912 7.09583 27.474 7.04852 27.4783 7.00111C27.4783 6.95807 27.5041 6.88907 27.5558 6.79438L28.2141 5.6227L28.1926 5.59681L28.1931 5.59746ZM27.883 5.77823L27.5644 6.34657L27.2243 5.95913L27.883 5.77823ZM29.4977 6.01503L29.4976 6.01511C29.4976 6.01514 29.4976 6.01517 29.4977 6.0152V6.01503ZM29.4977 6.0152V6.01932L29.4934 6.02799L29.4847 6.04087L29.4761 6.05812L29.4632 6.08396L29.446 6.10981L29.4244 6.14423L29.403 6.17866L29.3771 6.22167L29.347 6.26477L29.3125 6.31207L29.2781 6.36805L29.2393 6.41973L29.1963 6.48008L29.1532 6.54035L29.1058 6.60491L29.0542 6.67384L28.9982 6.74271L28.9422 6.81164L28.882 6.88487L28.8173 6.95804L28.7528 7.03558L28.6838 7.11312L28.6107 7.19496L28.5331 7.2725L28.4556 7.35422L28.3737 7.43606L28.2877 7.5179L28.2016 7.59974L28.1112 7.68159L28.0165 7.75913L27.9174 7.84097C27.164 8.45665 18.5439 13.7483 18.1224 14.0842C17.6962 14.4157 16.9211 15.307 16.2882 17.9335C15.7758 20.0519 15.4443 19.2595 13.7522 19.195C12.7618 19.1562 10.0149 18.4329 10.2258 20.5557C10.2258 20.5557 10.566 20.082 14.3162 20.5858C15.793 20.7881 16.9986 20.3059 17.3473 19.195C17.6961 18.0669 18.2042 16.1509 18.9663 15.1434C19.3194 14.6783 26.2257 10.433 28.129 9.30059C28.8223 8.89157 31.0524 7.54386 29.4983 6.01537L29.4977 6.0152ZM3.30198 6.70829L3.05222 7.09143L3.08656 7.11298C3.10378 7.09146 3.12966 7.07856 3.15549 7.07426C3.18992 7.06995 3.22435 7.07428 3.25448 7.09581C3.34923 7.14749 3.42677 7.27234 3.49133 7.46179C3.3105 7.4747 3.12536 7.47898 2.9273 7.47037C2.93591 7.31966 2.93157 7.20775 2.91005 7.13452C2.88852 7.05698 2.84112 7.00103 2.77225 6.96229C2.70339 6.92354 2.63452 6.91063 2.55705 6.93216C2.47957 6.9494 2.41925 6.99672 2.37184 7.06995C2.32017 7.14749 2.29867 7.22927 2.30297 7.31542C2.31159 7.42739 2.37184 7.51777 2.48375 7.57803C2.5225 7.60389 2.56989 7.62108 2.62154 7.6383C2.66891 7.65121 2.73776 7.66419 2.8239 7.67711C2.81098 7.87086 2.82822 8.0172 2.87558 8.11626C2.91864 8.21525 2.97888 8.28849 3.05636 8.3359C3.13814 8.38326 3.22434 8.39186 3.32334 8.36603C3.41809 8.3402 3.49987 8.27558 3.5645 8.17658C3.61187 8.10341 3.63767 8.03018 3.65058 7.95694C3.6635 7.87941 3.65916 7.78041 3.63332 7.6642C3.74529 7.64268 3.83138 7.61252 3.89594 7.57812C3.95623 7.54368 4.00367 7.5007 4.0381 7.44899C4.08117 7.38443 4.09839 7.31119 4.08978 7.23366C4.07687 7.16042 4.03379 7.08295 3.95629 7.00547L3.90461 7.02702C3.94768 7.06576 3.96924 7.1088 3.97354 7.15184C3.97784 7.19488 3.96486 7.23792 3.93903 7.28097C3.9132 7.32401 3.87016 7.3585 3.81421 7.38863C3.75822 7.41449 3.68078 7.43606 3.57311 7.45326C3.53004 7.32844 3.47405 7.2121 3.40519 7.09589C3.34063 6.97961 3.30613 6.90644 3.30183 6.8677C3.29749 6.83324 3.3104 6.78149 3.34054 6.72554L3.30183 6.70837L3.30198 6.70829ZM2.58889 7.03231C2.62542 7.03231 2.66257 7.04195 2.69485 7.06133C2.75941 7.10009 2.79821 7.14747 2.82403 7.2164L2.82833 7.22928L2.83262 7.24224V7.25512L2.83691 7.26808L2.84129 7.28525V7.29822L2.84558 7.3111V7.32835V7.34561L2.84987 7.35849V7.37574L2.84558 7.39291V7.41017V7.42734V7.44889L2.84129 7.46614C2.74654 7.44894 2.67336 7.43596 2.62596 7.42305C2.57859 7.41011 2.53987 7.39726 2.50974 7.38003C2.47099 7.35421 2.44088 7.31975 2.41936 7.27237C2.39783 7.22069 2.40638 7.1647 2.44082 7.11305C2.46666 7.06998 2.50538 7.04842 2.55279 7.03551C2.56463 7.03336 2.57676 7.03233 2.58894 7.03234L2.58889 7.03231ZM3.53016 7.67705H3.54742L3.54733 7.67713C3.56025 7.77189 3.56462 7.84075 3.55601 7.8838C3.5517 7.93114 3.53445 7.96988 3.50862 8.00862C3.46127 8.08179 3.39664 8.12483 3.31917 8.13344C3.23739 8.14638 3.16416 8.13346 3.09099 8.09472C3.02643 8.05595 2.97902 8.00427 2.94889 7.9354C2.92306 7.86653 2.91017 7.78039 2.91017 7.68139C3.01784 7.69 3.10398 7.69436 3.18146 7.69436H3.19433H3.21159H3.22876H3.24602H3.26327H3.27615H3.28474H3.29341H3.30628L3.31487 7.69006H3.32783H3.34071H3.34938H3.36226H3.37522L3.3881 7.68568H3.40098H3.41394H3.42682H3.44408L3.45695 7.68139H3.46992H3.48709H3.50005H3.51731L3.53018 7.6771L3.53016 7.67705ZM31.0785 8.25798C31.0769 8.25752 31.0806 8.26195 31.0845 8.26639L31.0864 8.2627C31.0822 8.25988 31.0796 8.2583 31.0785 8.25798ZM31.0845 8.26639L31.052 8.33146L31.0132 8.40039L30.9745 8.47363L30.9357 8.55104L30.8927 8.63288L30.8712 8.67169L30.8453 8.7147L30.8195 8.75779L30.7937 8.80081L30.7636 8.8439L30.7334 8.88692L30.7032 8.93431L30.6688 8.97732L30.6301 9.02471L30.5957 9.0721L30.5527 9.11511L30.5096 9.16679L30.4622 9.21418L30.4148 9.26157L30.3631 9.30888L30.3114 9.36056L30.2511 9.40795L30.1909 9.45963L30.1263 9.51131L30.0617 9.563L29.9885 9.61039L29.9153 9.66207C28.3738 10.6954 22.4191 14.3897 21.0456 15.2121C20.2706 15.6728 19.6506 16.5425 19.4611 16.9344C19.2502 17.3692 18.9358 18.45 18.7937 20.3057C18.7679 20.6631 17.8293 21.2529 17.9455 21.5156C18.0574 21.7697 18.7723 21.6448 18.7464 21.8428C18.7206 22.0151 18.5095 22.2777 18.5095 22.4456C18.5095 22.6437 18.9315 22.4628 18.8281 22.6781C18.6516 23.0312 18.9315 23.1087 19.0348 23.3756C19.1424 23.6383 19.0004 23.9397 19.0951 24.1636C19.2673 24.5511 19.8787 24.6242 20.8561 24.6027C21.8378 24.5855 22.2812 25.2615 22.066 25.8643C21.7861 26.6608 21.1316 26.6479 20.1155 27.3325C19.095 28.0128 19.052 28.8783 19.6462 29.6145C20.0983 30.1743 21.799 30.4455 22.8668 29.3605C23.0864 29.115 22.3845 29.4466 21.3641 28.9127C21.3641 28.9127 20.701 28.4348 21.0541 27.7933C21.4029 27.1474 21.9712 26.8675 22.5999 26.5015C23.2241 26.1312 24.0466 25.9288 24.0078 25.1366C23.9691 24.3487 23.1467 24.2368 22.8152 24.2153C22.4793 24.198 21.9627 24.2281 21.5019 24.2066C20.8044 24.1722 20.5935 23.8406 20.5505 22.5102C20.5375 22.0839 19.939 22.3121 20.2706 21.7481C20.4471 21.4553 19.939 21.5716 19.5946 21.4252C19.3018 21.2917 19.9347 20.676 20.3739 20.0904C20.5117 19.9053 20.2964 19.6686 20.3739 18.7945C20.4471 18.0324 20.8002 17.0378 21.8206 16.3402C22.3201 16.0001 24.4987 14.6438 25.1316 14.2821C26.0186 13.7697 30.3113 10.9925 31.0476 10.4371C32.3326 9.46629 31.1644 8.35822 31.0844 8.26638L31.0845 8.26639ZM1.52842 8.57693L1.27866 9.15394L1.32176 9.17111L1.33892 9.1238C1.35184 9.09368 1.37343 9.06352 1.40355 9.04196C1.42508 9.02474 1.44658 9.02041 1.46811 9.02041C1.49394 9.02041 1.54559 9.03329 1.61876 9.06342L2.03214 9.22274L1.76086 9.85134V9.85143L1.34329 9.6878C1.27443 9.66195 1.22702 9.64047 1.2098 9.62324C1.19258 9.60599 1.17967 9.58442 1.17967 9.56289C1.17536 9.52845 1.17963 9.49402 1.19255 9.46389L1.21409 9.4165L1.17537 9.39924L0.921368 9.97626L0.960087 9.99351L0.981635 9.94612C0.998855 9.91169 1.02036 9.88584 1.0462 9.86428C1.06773 9.84706 1.08923 9.83844 1.11076 9.83844C1.13659 9.83844 1.1883 9.85562 1.26153 9.88145L2.19584 10.2431C2.28193 10.2776 2.33357 10.3034 2.34649 10.3292C2.37232 10.368 2.37232 10.4153 2.34649 10.4713L2.32494 10.5187L2.36804 10.5317L2.6178 9.95465L2.579 9.93748L2.55753 9.98917C2.54462 10.0193 2.51872 10.0451 2.49291 10.0666C2.47138 10.0838 2.44988 10.0924 2.42835 10.0924C2.40252 10.0924 2.35087 10.0752 2.28194 10.0494L1.83843 9.88148L2.11402 9.25282L2.55317 9.42075C2.63925 9.45518 2.69103 9.48531 2.70394 9.50683C2.72977 9.5456 2.72977 9.59291 2.70394 9.64893L2.68239 9.69632L2.72111 9.71358L2.97512 9.13226L2.9364 9.11938L2.91056 9.16669C2.89764 9.19682 2.87612 9.22267 2.85029 9.24853C2.82876 9.26145 2.80726 9.27008 2.78573 9.27008C2.75989 9.27008 2.70819 9.25721 2.63496 9.22707L1.70064 8.86969C1.63178 8.83953 1.58437 8.81805 1.56715 8.80513C1.54562 8.78792 1.53702 8.76632 1.53702 8.74051C1.52841 8.70607 1.53707 8.67164 1.54998 8.64151L1.57182 8.59404L1.52871 8.57695L1.52842 8.57693ZM0.835206 10.2389L0.482204 11.3927L0.826661 11.5047L0.839625 11.4659C0.775063 11.4401 0.723287 11.4142 0.693158 11.3755C0.658711 11.3368 0.645868 11.3023 0.641562 11.2593C0.637257 11.2291 0.650181 11.1818 0.667403 11.1172L0.723378 10.945L1.86435 11.2593C1.94613 11.2809 1.99778 11.3067 2.0193 11.3282C2.04944 11.3627 2.05378 11.41 2.03656 11.4703L2.0193 11.5177L2.0624 11.5306L2.2476 10.9321L2.2045 10.9193L2.19163 10.9666C2.17441 11.0225 2.14419 11.0613 2.10542 11.0785C2.07528 11.0915 2.01503 11.0829 1.92464 11.0614L0.783671 10.747L0.843938 10.549C0.861158 10.493 0.886945 10.4456 0.917108 10.4155C0.94725 10.3853 0.990341 10.3681 1.03775 10.3552C1.06789 10.3509 1.11522 10.3509 1.17985 10.3595L1.19273 10.3208L0.835358 10.2389L0.835206 10.2389ZM1.57583 11.6727L1.55858 11.7027C1.64896 11.7587 1.70928 11.8105 1.74378 11.8535C1.78253 11.9009 1.80404 11.9439 1.80834 11.9913C1.81695 12.043 1.80832 12.1205 1.78679 12.2325L1.76095 12.3358C1.74373 12.4305 1.72655 12.4822 1.71794 12.4994C1.70503 12.5166 1.68776 12.5295 1.67485 12.5338C1.64471 12.5381 1.60161 12.5382 1.54135 12.5252L0.576913 12.3443C0.49083 12.3271 0.434813 12.3099 0.413293 12.2926C0.391763 12.2754 0.374602 12.2539 0.365989 12.2195C0.357378 12.185 0.361656 12.1333 0.374574 12.0559L0.335856 12.0473L0.19806 12.6975L0.236779 12.706L0.249743 12.6501C0.262658 12.5984 0.288428 12.5596 0.327154 12.5381C0.352988 12.5209 0.4133 12.5252 0.508054 12.5424L1.49832 12.7318C1.58447 12.7448 1.64042 12.7663 1.65764 12.7835C1.69639 12.818 1.70497 12.8653 1.69635 12.9256L1.68348 12.9773L1.72649 12.9859L1.96328 11.875L1.57584 11.6727L1.57583 11.6727ZM29.9628 12.62L29.9586 12.6243L29.9543 12.6286L29.95 12.6329L29.9414 12.6372L29.9328 12.6457L29.9242 12.6544L29.9112 12.663L29.8854 12.6846L29.8553 12.7147L29.8165 12.7448L29.7778 12.7792L29.7304 12.818L29.683 12.8567L29.6271 12.9041L29.5711 12.9515L29.5108 12.9989L29.4462 13.0505L29.3816 13.1065L29.3127 13.1625L29.2395 13.2185L29.1663 13.2788L29.0888 13.3391L29.0156 13.3994L28.8563 13.5199L28.6927 13.6404L28.5333 13.7609L28.3697 13.8729L28.2923 13.9288L28.2105 13.9805L28.1329 14.0322L28.0597 14.0839C27.2115 14.6135 23.4053 16.6372 22.5614 17.3347C21.7131 18.0323 21.7476 18.6264 21.7476 18.6264L21.6098 20.353C21.6098 20.353 21.0802 20.8869 21.0114 21.085C20.9425 21.283 21.3644 21.3175 21.6787 21.4811C21.9973 21.649 21.6185 21.7997 21.7476 21.9504C21.9974 22.2302 22.191 22.0021 22.0231 22.48C21.9973 22.5532 22.2341 22.7771 22.2083 22.9019C22.1652 23.1 22.0576 23.2335 22.2427 23.41C22.4537 23.6081 23.134 23.944 24.6927 23.6253C26.3848 23.2766 27.4956 24.5941 28.3395 24.818C28.628 24.8912 29.5839 25.1926 31.0909 24.0214C31.7411 23.5177 30.6904 23.974 29.1835 23.3411C27.5774 22.6694 27.0953 22.6263 26.0145 22.8287C25.0888 23.0009 24.4042 23.1517 24.0426 23.044C23.7325 22.9493 23.9909 22.4885 23.7584 22.4111C23.2934 22.256 23.612 22.0322 23.3365 21.8815C23.0566 21.7265 23.2203 21.6662 23.2117 21.3562C23.2074 21.1409 22.9705 21.2012 22.6304 21.0118C22.3677 20.8611 22.992 20.5855 23.0824 20.3659C23.1857 20.0946 23.0566 19.7157 23.1254 19.1603C23.2502 18.1829 24.7099 17.4983 25.485 17.0678C26.3332 16.6071 28.7529 15.1302 29.3256 14.7471C30.6646 13.8515 29.9629 12.62 29.9629 12.62L29.9628 12.62ZM1.66192 13.0591C1.6533 13.1194 1.63172 13.1625 1.59729 13.1926C1.56284 13.2228 1.48969 13.2572 1.38208 13.2873L0.0386891 13.6877V13.7222L1.26157 14.3508C1.36923 14.4068 1.44234 14.4542 1.47253 14.4929C1.48976 14.5144 1.50265 14.5532 1.50696 14.6134L1.55006 14.6177L1.59736 14.1571L1.55435 14.1528C1.54143 14.2217 1.52418 14.269 1.50696 14.2863C1.48543 14.3078 1.46394 14.3163 1.43809 14.312C1.41226 14.312 1.36916 14.2949 1.30891 14.2647L1.07642 14.1441L1.13239 13.5758L1.36058 13.5069C1.43805 13.4853 1.48976 13.4767 1.5242 13.4767C1.55003 13.481 1.57155 13.494 1.58446 13.5155C1.60169 13.5371 1.60601 13.5758 1.60601 13.6361L1.64902 13.6403L1.705 13.0633L1.66199 13.059L1.66192 13.0591ZM1.04193 13.6017L0.994541 14.1054L0.391773 13.7911L1.04195 13.6017H1.04193ZM1.16675 14.6995V14.7469C1.2615 14.7943 1.33468 14.8374 1.38208 14.8804C1.42083 14.9149 1.44231 14.9537 1.45525 14.9881C1.46817 15.0268 1.4725 15.0871 1.4768 15.1689L1.48109 15.4143C1.48109 15.4574 1.47683 15.4833 1.46822 15.4962C1.4596 15.5134 1.44672 15.522 1.4295 15.5306C1.41658 15.5349 1.37348 15.5392 1.30462 15.5392L0.792234 15.5436V15.2206C0.787928 15.1603 0.796573 15.1129 0.80949 15.0828C0.826712 15.0526 0.843912 15.0354 0.874052 15.0225C0.895582 15.0096 0.942918 14.9967 1.01615 14.9881V14.9493L0.477945 14.9536V14.9966C0.568332 14.9966 0.62859 15.0183 0.663023 15.0527C0.688858 15.0828 0.701815 15.1388 0.70612 15.2206V15.5435L0.0946801 15.5521L0.090388 15.1517C0.0860826 15.0742 0.0904348 15.0269 0.103351 14.9967C0.120574 14.958 0.142063 14.9321 0.172217 14.9149C0.202357 14.8976 0.2583 14.8761 0.344446 14.8632L0.340153 14.8201L0 14.8374L0.0128776 15.9697H0.0559746V15.918C0.0559746 15.8577 0.0688484 15.8147 0.0989861 15.7889C0.120515 15.7716 0.180828 15.7587 0.279886 15.7587L1.29604 15.7458C1.36921 15.7458 1.42086 15.7501 1.44244 15.7587C1.46828 15.7673 1.4898 15.7802 1.50271 15.806C1.51993 15.8362 1.52855 15.8664 1.52855 15.9008V15.9525H1.57165L1.55869 14.8201L1.16688 14.6995L1.16675 14.6995ZM1.57153 16.0602L1.52843 16.0645L1.53702 16.1119C1.54132 16.1463 1.53707 16.1808 1.51985 16.2153C1.51124 16.2368 1.49828 16.254 1.47675 16.2627C1.45522 16.2756 1.40358 16.2885 1.32611 16.2971L0.322863 16.4046C0.245389 16.4132 0.198044 16.4133 0.172219 16.409C0.146383 16.4047 0.124868 16.3917 0.111952 16.3702C0.0904228 16.3401 0.0775383 16.3099 0.0732329 16.2755L0.0645619 16.2238L0.0215504 16.2281L0.099088 16.8524L0.146392 16.8438L0.137806 16.7965C0.133501 16.7578 0.137768 16.7276 0.150684 16.6932C0.163604 16.6716 0.176557 16.6501 0.193781 16.6415C0.219614 16.6329 0.271256 16.6199 0.34873 16.6113L0.792245 16.564L0.878328 17.2356L0.430509 17.2873C0.357338 17.2959 0.305689 17.296 0.279864 17.2917C0.254031 17.2831 0.236819 17.2701 0.219597 17.2528C0.19807 17.2227 0.185098 17.1926 0.180792 17.1582L0.1765 17.1065L0.133489 17.1108L0.2109 17.7308L0.253997 17.7265L0.245412 17.6748C0.241107 17.6403 0.245361 17.6058 0.262582 17.5714C0.271193 17.5499 0.288458 17.5327 0.305679 17.5241C0.32721 17.5112 0.378849 17.5026 0.456324 17.494L1.45957 17.382C1.54995 17.3734 1.61451 17.3734 1.6361 17.3906C1.67915 17.4121 1.70072 17.4552 1.70933 17.5111L1.71792 17.5671L1.76093 17.5585L1.68352 16.9385L1.64042 16.9428L1.64471 16.9945C1.64902 17.0289 1.64475 17.0634 1.63183 17.0978C1.61892 17.1194 1.60596 17.1366 1.58874 17.1452C1.5629 17.1582 1.51126 17.1668 1.43809 17.1754L0.964449 17.2271L0.878366 16.5554L1.35201 16.5037C1.44246 16.4908 1.50266 16.495 1.52854 16.508C1.56729 16.5338 1.59317 16.5725 1.60178 16.6328L1.60607 16.6845L1.64908 16.6802L1.57167 16.0602L1.57153 16.0602ZM0.74906 18.5877L0.421883 18.6868L0.718931 19.7416L0.757736 19.7286L0.744773 19.6813C0.736162 19.6469 0.736162 19.6124 0.744773 19.578C0.753383 19.5521 0.762063 19.5349 0.779285 19.522C0.800815 19.5091 0.852455 19.4918 0.925688 19.4746L1.90298 19.2291C1.99343 19.2076 2.04945 19.2034 2.07957 19.212C2.12263 19.2292 2.15274 19.2679 2.16996 19.3282L2.18284 19.3755L2.22594 19.3669L2.05371 18.7598L2.0149 18.7684L2.02787 18.8201C2.03648 18.8545 2.03648 18.889 2.02787 18.9235C2.01926 18.9493 2.01066 18.9665 1.99344 18.9794C1.97191 18.9924 1.92014 19.0096 1.84697 19.0268L1.36915 19.1473L1.29592 18.889C1.283 18.8417 1.28301 18.8029 1.29163 18.7771C1.29593 18.7469 1.31311 18.7254 1.33464 18.7038C1.36047 18.6823 1.39926 18.6651 1.45952 18.6521L1.44656 18.6134L0.938479 18.7382L0.94715 18.7813C1.0333 18.7684 1.09349 18.7727 1.12792 18.7899C1.16237 18.8114 1.18823 18.8502 1.20546 18.9104L1.27863 19.1688L0.688776 19.3152L0.598389 19.0052C0.581164 18.932 0.572535 18.8717 0.576841 18.833C0.581145 18.7942 0.598411 18.7597 0.619938 18.7296C0.650077 18.6952 0.693171 18.6607 0.757733 18.6262L0.749062 18.5875L0.74906 18.5877ZM1.85244 19.7141C1.748 19.7136 1.64039 19.733 1.52842 19.7717C1.31315 19.8493 1.15814 19.9783 1.06776 20.1549L1.05917 20.1721L1.0505 20.1894L1.04192 20.2066L1.03333 20.2238L1.02895 20.2411L1.02466 20.2582L1.01607 20.2755L1.01178 20.2927L1.00749 20.3099L1.0032 20.3272L0.998817 20.3444L0.994525 20.3616V20.3788L0.990233 20.396V20.4133V20.4262V20.4434L0.98594 20.4606L0.990233 20.4779V20.4951V20.5123V20.5295L0.994525 20.5467V20.564L0.998817 20.5812L1.0032 20.5984L1.00749 20.6114L1.01178 20.6285L1.01607 20.6458L1.02037 20.663L1.02895 20.6802L1.03333 20.6975C1.1065 20.8783 1.22708 21.0075 1.40792 21.0936C1.61458 21.1883 1.82985 21.1969 2.06233 21.1151C2.29052 21.0376 2.44983 20.9041 2.54459 20.7276C2.63504 20.551 2.64364 20.3658 2.57043 20.1764C2.49726 19.9912 2.3594 19.8578 2.15704 19.776C2.05798 19.735 1.95684 19.7146 1.85246 19.7141L1.85244 19.7141ZM2.02948 19.918C2.09448 19.9175 2.15278 19.9262 2.20443 19.944C2.34653 19.9913 2.44122 20.0775 2.49287 20.2066C2.54023 20.3272 2.52733 20.4391 2.45844 20.5467C2.36799 20.6888 2.20443 20.8007 1.96764 20.8826C1.73516 20.9644 1.53704 20.9816 1.38203 20.9343L1.36915 20.93L1.35619 20.9257L1.3476 20.9214L1.33464 20.9171L1.32605 20.9127L1.31317 20.9041L1.3045 20.8998L1.29163 20.8956L1.28304 20.8869L1.27437 20.8826L1.26578 20.8783L1.25282 20.8697L1.24424 20.8611L1.23565 20.8567L1.22707 20.8482L1.2184 20.8396L1.2141 20.8353L1.20552 20.8266L1.19685 20.818L1.18826 20.8094L1.18397 20.8008L1.17538 20.7922L1.16671 20.7836L1.16242 20.7749L1.15384 20.7621L1.14954 20.7535L1.14525 20.7448L1.13658 20.7319L1.13229 20.7233L1.12799 20.7104L1.1237 20.7018L1.11941 20.6888C1.06774 20.5596 1.07636 20.4391 1.14525 20.3315C1.22703 20.1937 1.39919 20.0817 1.64896 19.9957C1.79429 19.9445 1.92113 19.9186 2.02943 19.918L2.02948 19.918ZM9.2313 20.7836C8.3387 20.7938 7.70023 21.192 7.83207 21.9805L7.84066 21.9762L7.84924 21.9719L7.85792 21.9634L7.87509 21.9547L7.89234 21.9418L7.91818 21.9288L7.94402 21.9203L7.97416 21.9074L8.00858 21.8901L8.0473 21.8773L8.09031 21.8643L8.13341 21.8557L8.18509 21.8427L8.24107 21.8342L8.29704 21.8256L8.3616 21.8169L8.43053 21.8126L8.50377 21.8083H8.57694L8.65878 21.8126L8.74486 21.8169L8.83538 21.8256L8.88268 21.8342L8.93436 21.8427L8.98175 21.847L9.03343 21.86L9.08512 21.8686L9.1368 21.8773L9.19277 21.8901L9.24875 21.9074L9.30481 21.9203L9.36507 21.9375L9.42105 21.9547L9.48561 21.9719L9.54596 21.9935L9.61053 22.015L9.67509 22.0365L9.73971 22.0623L9.80858 22.0839L9.87751 22.114C11.3543 22.7125 15.2553 24.4735 16.2888 25.2313C16.9217 25.6964 18.687 26.4929 18.1919 27.3584C17.6967 28.2195 15.3028 28.6199 15.7937 30.4757C16.2888 32.3357 18.898 31.5393 19.251 31.0742C19.5998 30.6092 18.0885 31.3454 17.5589 30.015C17.137 28.9515 17.8733 28.2454 18.898 27.5565C19.3889 27.225 20.0562 26.958 19.9528 26.0969C19.8837 25.4984 18.8288 25.0334 17.7696 24.4392C16.7104 23.8407 12.6244 21.916 11.0014 21.1841C10.3943 20.9112 9.76725 20.7776 9.23164 20.7837L9.2313 20.7836ZM3.26812 21.7567L3.22931 21.7782L3.25953 21.8256C3.28536 21.8729 3.29391 21.9203 3.28099 21.959C3.26808 21.9848 3.22073 22.0193 3.13459 22.0624L2.09261 22.6006L1.98494 22.4198C1.9548 22.3638 1.94193 22.3164 1.94193 22.2733C1.93763 22.2346 1.95051 22.1915 1.98065 22.1528C1.99787 22.127 2.03235 22.0968 2.08401 22.0624L2.06676 22.0237L1.75243 22.2045V22.2046L2.35956 23.2594L2.69105 23.1088L2.66958 23.07C2.60502 23.1001 2.549 23.1087 2.49736 23.1044C2.44569 23.1 2.40691 23.0872 2.37247 23.0571C2.35095 23.0399 2.32081 22.9967 2.28639 22.9364L2.196 22.7815L3.24229 22.2476C3.31982 22.2088 3.37147 22.1916 3.4016 22.1916C3.44895 22.1959 3.48768 22.226 3.52212 22.282L3.54796 22.3294L3.58668 22.3078L3.26811 21.7568L3.26812 21.7567ZM3.93981 22.8288L2.85473 23.5306C2.78156 23.578 2.73421 23.5995 2.70408 23.5995C2.65242 23.5995 2.61363 23.5737 2.5749 23.5221L2.54476 23.479L2.50605 23.5005L2.81607 23.9267L2.8505 23.9009L2.82036 23.8622C2.78592 23.8148 2.77303 23.7717 2.78164 23.733C2.79025 23.7029 2.83757 23.6598 2.91077 23.6082L3.65133 23.1345L3.2294 24.4908L3.47056 24.818L3.50498 24.7965C3.47914 24.762 3.46191 24.7319 3.4533 24.7146C3.44469 24.6716 3.43613 24.6371 3.43613 24.607C3.43613 24.5811 3.44475 24.5337 3.46197 24.4735L4.35748 23.8923C4.42635 23.8492 4.48243 23.8234 4.50825 23.8234C4.5599 23.8234 4.60295 23.8492 4.63738 23.9009L4.6718 23.944L4.70623 23.9224L4.39633 23.4962L4.36182 23.522L4.39204 23.5651C4.42647 23.6124 4.43938 23.6555 4.42647 23.6942C4.42216 23.7244 4.37907 23.7631 4.29728 23.8148L3.50937 24.3271L3.96143 22.8632L3.93997 22.8288L3.93981 22.8288ZM4.86982 24.1033L4.48656 24.2454L4.5167 24.2798C4.62 24.254 4.70621 24.2454 4.77514 24.254C4.82679 24.254 4.86983 24.2712 4.90426 24.2884C4.93869 24.3099 4.98604 24.353 5.04205 24.4176L5.21428 24.6027C5.2401 24.6328 5.25729 24.6587 5.25729 24.6759C5.2616 24.6888 5.26161 24.706 5.253 24.7189C5.24439 24.7318 5.21428 24.762 5.16262 24.8008L4.77505 25.1151L4.55118 24.8698C4.5081 24.8224 4.48237 24.7837 4.47376 24.7536C4.46515 24.7234 4.46514 24.6932 4.47806 24.6673C4.48667 24.6458 4.51678 24.6072 4.56844 24.5555L4.53831 24.5254L4.12923 24.8525L4.15936 24.8827C4.22829 24.8353 4.28855 24.8138 4.34026 24.8181C4.37903 24.8224 4.42634 24.8612 4.48667 24.9258L4.71054 25.1711L4.24127 25.5458L3.96568 25.2401C3.91399 25.1841 3.8839 25.141 3.87098 25.1109C3.85807 25.0764 3.85808 25.0378 3.86669 25.0076C3.8796 24.9731 3.9097 24.9258 3.96138 24.8655L3.93554 24.831L3.68153 25.0549L4.4652 25.916L4.49534 25.8902L4.46091 25.8471C4.41784 25.8041 4.40063 25.761 4.40494 25.7223C4.41354 25.6964 4.45227 25.6492 4.52545 25.5931L5.29614 24.9688C5.3564 24.9258 5.3952 24.8956 5.42103 24.887C5.44255 24.8784 5.46834 24.8784 5.4942 24.887C5.52863 24.8999 5.55876 24.9214 5.58028 24.9473L5.619 24.986L5.64922 24.9602L4.86985 24.1034L4.86982 24.1033ZM5.70938 25.0462L5.67925 25.0721L5.71796 25.1065C5.76534 25.1452 5.78689 25.184 5.78259 25.227C5.78259 25.2572 5.7524 25.3046 5.68784 25.3735L4.99468 26.0796C4.93873 26.1399 4.89132 26.17 4.86549 26.1786C4.81812 26.1872 4.76644 26.17 4.71909 26.1269L4.68037 26.0925L4.65024 26.1226L4.97311 26.4068L6.20884 25.9203L5.79545 27.1173L6.12269 27.4014L6.14853 27.3713C6.10549 27.3326 6.07536 27.2981 6.06245 27.2679C6.05384 27.2378 6.04955 27.2119 6.05816 27.1904C6.06677 27.1603 6.09685 27.1215 6.13987 27.0742L6.83309 26.368C6.89338 26.3078 6.93646 26.2733 6.96658 26.269C7.00966 26.2561 7.06128 26.2733 7.10868 26.3163L7.1474 26.3508L7.17754 26.3249L6.77712 25.9762L6.75128 26.0064L6.79009 26.0408C6.83315 26.0795 6.85465 26.1183 6.85465 26.1613C6.85465 26.1872 6.82017 26.2345 6.75559 26.3034L6.04946 27.0225L6.50152 25.7352L6.47568 25.7094L5.14096 26.2347L5.85171 25.5137C5.90766 25.4534 5.95077 25.419 5.9809 25.4147C6.02827 25.4018 6.07559 25.419 6.1273 25.462L6.16602 25.4964L6.19615 25.4663L5.70966 25.0444L5.70938 25.0462ZM7.53496 26.5489L7.50912 26.5833L7.55651 26.6135C7.60389 26.6479 7.62975 26.6824 7.63835 26.7254C7.63835 26.7556 7.61252 26.8072 7.55651 26.8761L6.85899 27.7846L6.67809 27.6641C6.62644 27.6296 6.59207 27.5908 6.57055 27.5521C6.55333 27.5176 6.54899 27.4746 6.55329 27.4273C6.5576 27.3971 6.57484 27.3584 6.60498 27.3024L6.57055 27.2766L6.3725 27.5693L7.4015 28.2712L7.62968 27.9999L7.59526 27.9783C7.54788 28.03 7.50487 28.0602 7.45746 28.0774C7.41012 28.0946 7.36277 28.0946 7.32403 28.086C7.29387 28.0774 7.2508 28.0515 7.19054 28.0127L7.03977 27.9052L7.73729 27.001C7.78894 26.9321 7.82768 26.8977 7.8535 26.8848C7.90088 26.8719 7.94819 26.8805 8.00415 26.9192L8.04724 26.9494L8.07309 26.9149L7.53488 26.549L7.53496 26.5489ZM8.26261 27.0613L8.24107 27.0957C8.30993 27.1431 8.36158 27.1904 8.38747 27.2464C8.41762 27.298 8.43491 27.3842 8.44782 27.5005L8.49951 28.0214C8.37032 27.9827 8.26265 27.9783 8.17226 28.0042C8.08188 28.03 8.01301 28.0817 7.9656 28.1592C7.91823 28.2324 7.90098 28.3056 7.91821 28.3874C7.93113 28.4649 7.96559 28.5338 8.02158 28.5898C8.07753 28.6457 8.17652 28.7146 8.31862 28.7921L8.80512 29.0677L8.82667 29.029L8.77928 29.0032C8.72329 28.9773 8.6975 28.9385 8.68889 28.8998C8.68458 28.8697 8.70177 28.8137 8.75345 28.7362L9.2659 27.9181C9.31324 27.845 9.34761 27.8062 9.37344 27.7933C9.42081 27.7718 9.47249 27.7761 9.52421 27.8062L9.57589 27.8364L9.59744 27.8019L9.02474 27.4833L9.00319 27.5178L9.05487 27.5479C9.10655 27.5737 9.13234 27.6082 9.14095 27.647C9.14956 27.6771 9.12377 27.7331 9.07639 27.8106L8.8439 28.1809C8.83529 28.1766 8.82667 28.1679 8.81806 28.1636C8.80515 28.1593 8.79654 28.155 8.78793 28.1464C8.77071 28.1378 8.74055 28.1206 8.71039 28.1033L8.62431 27.2594L8.26264 27.0614L8.26261 27.0613ZM9.66196 27.8363L9.64471 27.8752C9.70066 27.901 9.73946 27.9354 9.75668 27.9784C9.7782 28.0172 9.78681 28.0904 9.78681 28.1981L9.74809 29.5242L9.78252 29.5371L10.8116 28.6502C10.902 28.5683 10.9751 28.5209 11.0225 28.5037C11.0484 28.4951 11.0915 28.4995 11.156 28.5167L11.1732 28.478L10.7254 28.2885L10.7082 28.3229C10.7771 28.3574 10.8158 28.3875 10.8287 28.409C10.8417 28.4349 10.8416 28.4564 10.833 28.478C10.8201 28.5038 10.79 28.5382 10.7426 28.5813L10.5489 28.7449L9.99353 28.5124L9.99783 28.2885C10.0021 28.211 10.0065 28.1594 10.0194 28.1336C10.0323 28.112 10.0495 28.0948 10.0796 28.0905C10.1055 28.0818 10.1485 28.0905 10.2045 28.112L10.2217 28.0776L9.66199 27.8364L9.66196 27.8363ZM8.49611 28.1243C8.5734 28.1275 8.6598 28.1549 8.75341 28.2066C8.76203 28.2109 8.76634 28.2153 8.77925 28.2239H8.78363L8.78792 28.2282L8.79222 28.2325H8.79651L8.8008 28.2368H8.80509V28.2411H8.80939L8.47784 28.7621C8.40898 28.7406 8.35302 28.719 8.31428 28.6975C8.22814 28.6501 8.17649 28.5899 8.15497 28.5124C8.13345 28.4306 8.15069 28.353 8.19807 28.2756C8.24975 28.1937 8.32295 28.1464 8.42194 28.1291C8.44562 28.1248 8.47035 28.1233 8.49613 28.1243L8.49611 28.1243ZM11.5823 28.5941L11.5693 28.6329L11.6253 28.6501C11.677 28.6673 11.7158 28.6975 11.733 28.7362C11.7416 28.762 11.733 28.818 11.7028 28.9084L11.5522 29.3131H11.5521C11.5091 29.2873 11.4703 29.2657 11.4316 29.2442C11.3886 29.2313 11.3541 29.2141 11.3154 29.2012C11.1733 29.1538 11.0485 29.1539 10.9451 29.1969C10.8417 29.2443 10.7642 29.326 10.7255 29.438C10.6953 29.5241 10.6953 29.6016 10.7212 29.6792C10.7513 29.7567 10.803 29.8213 10.8676 29.8729C10.9322 29.9203 11.0313 29.9676 11.1647 30.0107L11.7029 30.1872L11.7158 30.1485L11.6598 30.1313C11.6038 30.1141 11.5693 30.0839 11.5521 30.0452C11.5392 30.0193 11.5478 29.9591 11.5823 29.8773L11.9095 28.9731C11.9396 28.8956 11.9655 28.8482 11.987 28.831C12.0258 28.8051 12.0774 28.8008 12.1377 28.818L12.1937 28.8353L12.2109 28.8008L11.5823 28.5942L11.5823 28.5941ZM9.98914 28.5984L10.4801 28.8051L9.97199 29.2443L9.98916 28.5984H9.98914ZM12.4434 28.8569L12.2195 29.184L12.2712 29.197C12.3401 29.1195 12.4047 29.0678 12.4606 29.0334C12.5037 29.0075 12.5467 28.9946 12.5898 28.9903C12.6285 28.9903 12.6931 28.9989 12.7792 29.0161L13.0332 29.0765C13.0763 29.0851 13.1021 29.0937 13.115 29.1066C13.128 29.1195 13.1366 29.1324 13.1366 29.1453C13.1409 29.1626 13.1323 29.197 13.1193 29.2659L12.9988 29.7308L12.663 29.6577C12.6027 29.6447 12.5554 29.6275 12.5295 29.606C12.5037 29.5845 12.4865 29.5586 12.4779 29.5327C12.4736 29.5112 12.4735 29.4639 12.4822 29.3906L12.4391 29.3821L12.3142 29.8772L12.353 29.8857C12.3788 29.8083 12.4176 29.7566 12.4606 29.7308C12.4994 29.7136 12.5597 29.7179 12.6458 29.7351L12.9773 29.8126L12.8352 30.3767L12.4175 30.282C12.3443 30.2604 12.2927 30.2432 12.2669 30.2303C12.2324 30.2045 12.2066 30.1743 12.1979 30.1442C12.185 30.1141 12.1808 30.0581 12.1851 29.9763L12.1377 29.9677L12.0774 30.2863L13.2442 30.5489L13.2529 30.5102L13.2012 30.4973C13.1409 30.4844 13.0979 30.4585 13.0807 30.4284C13.0678 30.4025 13.0677 30.3423 13.0936 30.2518L13.3304 29.3218C13.3476 29.2572 13.3648 29.2098 13.3777 29.1926C13.3906 29.1668 13.4122 29.1582 13.438 29.1539C13.4767 29.141 13.5112 29.141 13.5457 29.1496L13.6016 29.1626L13.6102 29.1238L12.4434 28.8568L12.4434 28.8569ZM14.4045 29.2431C14.2041 29.2494 14.0418 29.3035 13.9159 29.4036C13.7695 29.5241 13.6791 29.6835 13.6533 29.8858C13.6318 30.0408 13.6533 30.1743 13.7093 30.2992C13.7695 30.424 13.8557 30.5188 13.9676 30.5833C14.0795 30.6436 14.2518 30.691 14.4843 30.7211L15.1129 30.7944L15.1172 30.7513L15.0612 30.747C15.0053 30.7384 14.9622 30.7212 14.9364 30.6824C14.9192 30.6609 14.9148 30.6006 14.9277 30.5102L15.0526 29.5672C15.0655 29.4854 15.0827 29.4338 15.0999 29.4122C15.1301 29.3778 15.1817 29.3605 15.2463 29.3691L15.3024 29.3778L15.3067 29.3347L14.6177 29.2529C14.5424 29.2443 14.4714 29.241 14.4045 29.2431L14.4045 29.2431ZM11.2801 29.2788C11.3077 29.2792 11.3352 29.2835 11.3627 29.2916C11.3842 29.3002 11.4101 29.3089 11.4359 29.3218L11.4402 29.3261H11.4488L11.4531 29.3304L11.4574 29.3347H11.4617L11.4703 29.339L11.4746 29.3433H11.4789L11.4875 29.3477L11.4919 29.352H11.5005L11.5047 29.3563L11.5133 29.3605L11.5176 29.3648H11.5263L11.5306 29.3691L11.3196 29.9504C11.2551 29.9418 11.2077 29.9332 11.1732 29.9203C11.1129 29.9031 11.0612 29.873 11.0268 29.8299C10.988 29.7912 10.9665 29.7395 10.9579 29.6791C10.9493 29.6189 10.9578 29.5586 10.9794 29.4984C11.0138 29.4123 11.0655 29.3519 11.1387 29.3132C11.1871 29.2889 11.2339 29.2782 11.28 29.2788L11.2801 29.2788ZM14.5496 29.3295C14.5706 29.3303 14.5919 29.332 14.6134 29.3347H14.6264L14.6393 29.339H14.6522L14.6694 29.3433H14.6824L14.6952 29.3476L14.7082 29.352H14.7254L14.7383 29.3563L14.7555 29.3605L14.7728 29.3648L14.7856 29.3691L14.8029 29.3734L14.8201 29.3778L14.8373 29.3864L14.8546 29.3907L14.691 30.6307C14.6006 30.6393 14.5187 30.6436 14.4541 30.635C14.269 30.6135 14.1269 30.536 14.0279 30.4068C13.9246 30.2776 13.8901 30.114 13.9159 29.9117C13.9418 29.7093 14.0236 29.5586 14.1527 29.4553C14.2695 29.3649 14.4028 29.324 14.5496 29.3295L14.5496 29.3295Z" fill="black"/>
</g>
<defs>
<clipPath id="clip0_1077_18111">
<rect width="31.9991" height="32" fill="white" transform="translate(0.38147)"/>
</clipPath>
</defs>
</svg>
