<?xml version="1.0" standalone="no"?>
<!DOCTYPE svg PUBLIC "-//W3C//DTD SVG 20010904//EN"
 "http://www.w3.org/TR/2001/REC-SVG-20010904/DTD/svg10.dtd">
<svg version="1.0" xmlns="http://www.w3.org/2000/svg"
 width="260.000000pt" height="260.000000pt" viewBox="0 0 260.000000 260.000000"
 preserveAspectRatio="xMidYMid meet">
<metadata>
Created by potrace 1.14, written by Peter Selinger 2001-2017
</metadata>
<g transform="translate(0.000000,260.000000) scale(0.100000,-0.100000)"
fill="#000000" stroke="none">
<path d="M1100 2155 c-216 -50 -391 -181 -490 -366 -28 -53 -32 -57 -75 -63
-26 -3 -80 -19 -121 -36 -197 -79 -334 -233 -390 -440 -25 -93 -25 -313 0
-395 66 -219 226 -350 494 -405 96 -19 133 -20 869 -20 673 0 776 2 824 16
162 47 293 180 355 359 37 108 40 256 6 356 -64 187 -213 306 -443 353 -22 5
-28 13 -33 43 -14 79 -49 165 -97 238 -119 183 -314 312 -541 359 -92 19 -279
20 -358 1z m-458 -847 c8 -7 56 -92 107 -189 50 -97 98 -182 106 -189 13 -11
15 11 15 183 l0 195 24 6 c34 8 55 -2 63 -32 8 -32 -3 -561 -12 -584 -9 -22
-34 -31 -51 -17 -7 6 -55 88 -106 182 -136 250 -127 249 -128 20 0 -180 -1
-193 -19 -203 -27 -14 -37 -13 -55 6 -14 13 -16 55 -16 309 0 254 2 296 16
309 19 19 35 20 56 4z m680 2 c63 -18 103 -97 64 -129 -15 -13 -66 -5 -66 10
0 5 -9 18 -20 29 -23 23 -117 29 -138 8 -17 -17 -17 -449 0 -466 18 -18 118
-15 140 5 10 9 18 22 18 30 0 10 10 13 38 11 36 -3 37 -4 36 -42 -2 -55 -34
-81 -110 -90 -92 -10 -163 6 -196 43 l-28 31 0 241 c0 196 3 245 15 269 9 17
17 30 18 30 1 0 20 7 42 15 47 17 135 19 187 5z m495 -16 c41 -31 55 -84 51
-192 -4 -84 -6 -95 -31 -119 -24 -25 -34 -27 -134 -32 l-108 -6 -3 -128 c-2
-123 -3 -128 -26 -138 -17 -8 -29 -8 -45 0 -21 12 -21 16 -21 316 0 279 1 305
18 315 10 7 65 9 144 7 110 -2 131 -6 155 -23z m224 16 c18 -10 19 -24 19
-315 0 -280 -1 -305 -17 -313 -10 -5 -29 -6 -43 -2 l-25 6 -3 304 c-2 278 -1
306 15 318 20 15 29 15 54 2z"/>
<path d="M1606 1224 c-23 -23 -23 -179 0 -192 21 -11 144 -3 162 11 8 6 12 37
12 88 0 99 -9 109 -95 109 -44 0 -68 -5 -79 -16z"/>
</g>
</svg>
