<svg width="16" height="16" viewBox="0 0 16 16" fill="none" xmlns="http://www.w3.org/2000/svg">
<path d="M5.40625 12.9375C5.40625 13 5.34375 13.0312 5.25 13.0312C5.15625 13.0625 5.09375 13 5.09375 12.9375C5.09375 12.875 5.15625 12.8125 5.25 12.8125C5.34375 12.8125 5.40625 12.875 5.40625 12.9375ZM4.4375 12.7812C4.4375 12.8438 4.5 12.9375 4.59375 12.9375C4.65625 12.9688 4.75 12.9375 4.78125 12.875C4.78125 12.8125 4.75 12.75 4.65625 12.7188C4.5625 12.6875 4.46875 12.7188 4.4375 12.7812ZM5.84375 12.75C5.75 12.75 5.6875 12.8125 5.6875 12.9062C5.6875 12.9688 5.78125 13 5.875 12.9688C5.96875 12.9375 6.03125 12.9062 6 12.8438C6 12.7812 5.90625 12.7188 5.84375 12.75ZM7.875 0.75C3.5625 0.75 0.25 4.0625 0.25 8.375C0.25 11.8438 2.40625 14.8125 5.53125 15.875C5.9375 15.9375 6.0625 15.6875 6.0625 15.5C6.0625 15.2812 6.0625 14.2188 6.0625 13.5625C6.0625 13.5625 3.875 14.0312 3.40625 12.625C3.40625 12.625 3.0625 11.7188 2.5625 11.5C2.5625 11.5 1.84375 11 2.59375 11C2.59375 11 3.375 11.0625 3.8125 11.8125C4.5 13.0312 5.625 12.6875 6.09375 12.4688C6.15625 11.9688 6.34375 11.625 6.59375 11.4062C4.84375 11.2188 3.0625 10.9688 3.0625 7.96875C3.0625 7.09375 3.3125 6.6875 3.8125 6.125C3.71875 5.90625 3.46875 5.09375 3.90625 4C4.53125 3.8125 6.0625 4.84375 6.0625 4.84375C6.6875 4.65625 7.34375 4.59375 8 4.59375C8.6875 4.59375 9.34375 4.65625 9.96875 4.84375C9.96875 4.84375 11.4688 3.78125 12.125 4C12.5625 5.09375 12.2812 5.90625 12.2188 6.125C12.7188 6.6875 13.0312 7.09375 13.0312 7.96875C13.0312 10.9688 11.1875 11.2188 9.4375 11.4062C9.71875 11.6562 9.96875 12.125 9.96875 12.875C9.96875 13.9062 9.9375 15.2188 9.9375 15.4688C9.9375 15.6875 10.0938 15.9375 10.5 15.8438C13.625 14.8125 15.75 11.8438 15.75 8.375C15.75 4.0625 12.2188 0.75 7.875 0.75ZM3.28125 11.5312C3.21875 11.5625 3.25 11.6562 3.28125 11.7188C3.34375 11.75 3.40625 11.7812 3.46875 11.75C3.5 11.7188 3.5 11.625 3.4375 11.5625C3.375 11.5312 3.3125 11.5 3.28125 11.5312ZM2.9375 11.2812C2.90625 11.3438 2.9375 11.375 3 11.4062C3.0625 11.4375 3.125 11.4375 3.15625 11.375C3.15625 11.3438 3.125 11.3125 3.0625 11.2812C3 11.25 2.96875 11.25 2.9375 11.2812ZM3.9375 12.4062C3.90625 12.4375 3.90625 12.5312 4 12.5938C4.0625 12.6562 4.15625 12.6875 4.1875 12.625C4.21875 12.5938 4.21875 12.5 4.15625 12.4375C4.09375 12.375 4 12.3438 3.9375 12.4062ZM3.59375 11.9375C3.53125 11.9688 3.53125 12.0625 3.59375 12.125C3.65625 12.1875 3.71875 12.2188 3.78125 12.1875C3.8125 12.1562 3.8125 12.0625 3.78125 12C3.71875 11.9375 3.65625 11.9062 3.59375 11.9375Z" fill="#637381"/>
</svg>
