<svg width="180" height="24" viewBox="0 0 180 24" fill="none" xmlns="http://www.w3.org/2000/svg">
<g clip-path="url(#clip0_1077_18022)">
<path d="M26.5484 6.60554V17.2942H24.668V12.4695H19.8185V17.2942H17.9381V6.60554H19.8185V10.8612H24.6927V6.60554H26.5484ZM16.0577 17.2942H14.1773V6.60554H16.0577V17.2942ZM12.3464 17.2942H10.367L5.51749 9.42616H5.468V17.2942H3.68656V6.60554H5.66594L10.5402 14.4736H10.5649V6.60554H12.3464V17.2942ZM33.1299 11.9251L26.5237 -0.0253906H2.17728C0.964911 -0.0253906 -0.0247803 0.9643 -0.0247803 2.17667V21.6736C-0.0247803 22.886 0.964911 23.8756 2.17728 23.8756H26.4989L33.1299 11.9251Z" fill="#212B36"/>
<path d="M28.1566 23.8756L34.7875 11.9251L28.1814 -0.0253906H29.8391C30.7546 -0.0253906 31.8432 0.617908 32.2886 1.40966L38.103 11.9004L32.2886 22.4158C31.8432 23.2076 30.7546 23.8509 29.8391 23.8509H28.1566V23.8756Z" fill="#5FE0D4"/>
<path d="M42.8783 0.964844H44.4865L48.4948 7.39783H48.5195V0.964844H49.9793V9.72361H48.3711L44.3876 3.29062H44.3628V9.72361H42.903V0.964844H42.8783Z" fill="#212B36"/>
<path d="M56.6845 8.28702C56.6845 8.46021 56.7092 8.58392 56.7587 8.65815C56.8082 8.73238 56.8824 8.75712 57.0309 8.75712C57.0804 8.75712 57.1299 8.75712 57.1793 8.75712C57.2288 8.75712 57.303 8.75712 57.3773 8.73238V9.69733C57.3278 9.72207 57.2536 9.72207 57.1793 9.74681C57.1051 9.77155 57.0309 9.79629 56.9319 9.79629C56.8577 9.82104 56.7587 9.82104 56.6845 9.82104C56.6103 9.82104 56.536 9.82104 56.4866 9.82104C56.1896 9.82104 55.967 9.77155 55.769 9.64784C55.5711 9.52413 55.4474 9.32619 55.3979 9.05403C55.1257 9.32619 54.7793 9.52413 54.3835 9.64784C53.9876 9.77155 53.5917 9.82104 53.2206 9.82104C52.9237 9.82104 52.6515 9.77155 52.4041 9.69733C52.1319 9.6231 51.9092 9.49939 51.7113 9.35093C51.5134 9.20248 51.3402 9.00454 51.2412 8.78186C51.1175 8.55918 51.068 8.28702 51.068 7.96537C51.068 7.56949 51.1422 7.24784 51.2907 7.00042C51.4391 6.753 51.6123 6.55506 51.8597 6.43135C52.0824 6.28289 52.3546 6.18392 52.6515 6.13444C52.9484 6.08495 53.2453 6.03547 53.5175 5.98599C53.7649 5.9365 54.0123 5.91176 54.235 5.88702C54.4577 5.86227 54.6556 5.83753 54.8536 5.78805C55.0268 5.73856 55.1752 5.66434 55.2742 5.56537C55.3731 5.4664 55.4226 5.31794 55.4226 5.09526C55.4226 4.92207 55.3731 4.77361 55.2989 4.6499C55.2247 4.52619 55.101 4.45197 54.9773 4.37774C54.8536 4.32825 54.7051 4.27877 54.5567 4.25403C54.4082 4.22929 54.2597 4.22928 54.1113 4.22928C53.7154 4.22928 53.3938 4.30351 53.1463 4.47671C52.8989 4.6499 52.7505 4.89733 52.7257 5.24372H51.3402C51.3649 4.8231 51.4639 4.50145 51.6371 4.22928C51.8103 3.95712 52.0329 3.73444 52.3051 3.58599C52.5773 3.41279 52.8742 3.31382 53.1958 3.23959C53.5422 3.16537 53.8639 3.14062 54.235 3.14062C54.5567 3.14062 54.8536 3.16537 55.1505 3.23959C55.4474 3.31382 55.7195 3.41279 55.967 3.56124C56.2144 3.7097 56.4123 3.90764 56.5608 4.13032C56.7092 4.353 56.7835 4.6499 56.7835 4.97155V8.28702H56.6845ZM55.2989 6.53032C55.0762 6.67877 54.8288 6.753 54.5072 6.77774C54.1855 6.80248 53.8886 6.85197 53.567 6.90145C53.4185 6.92619 53.2701 6.95093 53.1463 7.00042C52.9979 7.0499 52.8742 7.09939 52.7752 7.17361C52.6762 7.24784 52.5773 7.34681 52.5278 7.47052C52.4783 7.59423 52.4288 7.74269 52.4288 7.94062C52.4288 8.08908 52.4783 8.23753 52.5525 8.3365C52.6515 8.43547 52.7505 8.53444 52.8742 8.58392C52.9979 8.63341 53.1463 8.68289 53.2948 8.70764C53.4433 8.73238 53.5917 8.73238 53.7154 8.73238C53.8639 8.73238 54.0371 8.70763 54.2103 8.68289C54.3835 8.63341 54.5567 8.58392 54.7298 8.48495C54.8783 8.38599 55.0268 8.26227 55.1257 8.11382C55.2247 7.96537 55.2742 7.76743 55.2742 7.54475V6.53032H55.2989Z" fill="#212B36"/>
<path d="M57.3278 3.36414H58.3917V1.45898H59.7772V3.36414H61.0391V4.40331H59.7772V7.793C59.7772 7.94146 59.7772 8.06517 59.802 8.16414C59.802 8.26311 59.8515 8.36208 59.8762 8.4363C59.9257 8.51053 59.9999 8.56001 60.0742 8.6095C60.1731 8.63424 60.2968 8.65898 60.4453 8.65898C60.5443 8.65898 60.6432 8.65898 60.7422 8.65898C60.8412 8.65898 60.9401 8.63424 61.0391 8.6095V9.69816C60.8906 9.7229 60.7422 9.7229 60.5937 9.74764C60.4453 9.77239 60.2968 9.77239 60.1484 9.77239C59.7772 9.77239 59.4803 9.74764 59.2577 9.67342C59.035 9.59919 58.8618 9.50022 58.7381 9.37651C58.6144 9.2528 58.5154 9.0796 58.4906 8.85692C58.4412 8.65898 58.4164 8.41156 58.4164 8.16414V4.40331H57.3525V3.36414H57.3278Z" fill="#212B36"/>
<path d="M61.8804 0.964844H63.2659V2.30093H61.8804V0.964844ZM61.8804 3.36484H63.2659V9.69886H61.8804V3.36484Z" fill="#212B36"/>
<path d="M67.4969 9.87117C67.002 9.87117 66.5319 9.79694 66.1361 9.62375C65.7402 9.45055 65.3938 9.22787 65.1216 8.93096C64.8495 8.63406 64.6515 8.28766 64.5031 7.86705C64.3546 7.44643 64.2804 7.00107 64.2804 6.50622C64.2804 6.03612 64.3546 5.59076 64.5031 5.17014C64.6515 4.74952 64.8495 4.40313 65.1216 4.10622C65.3938 3.80931 65.7402 3.58663 66.1361 3.41344C66.5319 3.24024 66.9773 3.16602 67.4969 3.16602C67.9917 3.16602 68.4618 3.24024 68.8577 3.41344C69.2536 3.58663 69.6 3.80931 69.8721 4.10622C70.1443 4.40313 70.3423 4.74952 70.4907 5.17014C70.6392 5.59076 70.7134 6.03612 70.7134 6.50622C70.7134 7.00107 70.6392 7.44643 70.4907 7.86705C70.3423 8.28766 70.1443 8.63406 69.8721 8.93096C69.6 9.22787 69.2536 9.45055 68.8577 9.62375C68.4371 9.79694 67.9917 9.87117 67.4969 9.87117ZM67.4969 8.78251C67.8185 8.78251 68.066 8.70828 68.3134 8.58457C68.5361 8.46086 68.734 8.28766 68.8825 8.06498C69.0309 7.8423 69.1299 7.61962 69.2041 7.34746C69.2783 7.07529 69.3031 6.80313 69.3031 6.53096C69.3031 6.2588 69.2783 5.98663 69.2041 5.71447C69.1299 5.4423 69.0309 5.19488 68.8825 4.99694C68.734 4.79901 68.5361 4.62581 68.3134 4.47736C68.0907 4.35364 67.8185 4.27942 67.4969 4.27942C67.1752 4.27942 66.9278 4.35364 66.6804 4.47736C66.4577 4.60107 66.2598 4.77426 66.1113 4.99694C65.9629 5.19488 65.8639 5.4423 65.7897 5.71447C65.7154 5.98663 65.6907 6.2588 65.6907 6.53096C65.6907 6.80313 65.7154 7.07529 65.7897 7.34746C65.8639 7.61962 65.9629 7.8423 66.1113 8.06498C66.2598 8.28766 66.4577 8.46086 66.6804 8.58457C66.9031 8.70828 67.1752 8.78251 67.4969 8.78251Z" fill="#212B36"/>
<path d="M71.6536 3.3633H72.9649V4.3035L72.9896 4.32825C73.2123 3.98185 73.4845 3.70969 73.8309 3.51175C74.1773 3.31381 74.5484 3.21484 74.969 3.21484C75.6618 3.21484 76.2061 3.38804 76.602 3.75917C76.9979 4.13031 77.1958 4.6499 77.1958 5.36742V9.72206H75.7855V5.71381C75.7608 5.21897 75.6618 4.84783 75.4639 4.62515C75.2659 4.40247 74.969 4.27876 74.5484 4.27876C74.301 4.27876 74.1031 4.32825 73.9051 4.40247C73.7072 4.4767 73.5587 4.60041 73.435 4.74886C73.3113 4.89732 73.2123 5.07051 73.1381 5.29319C73.0639 5.49113 73.0391 5.71381 73.0391 5.93649V9.67258H71.6536V3.3633Z" fill="#212B36"/>
<path d="M83.7773 8.28702C83.7773 8.46021 83.802 8.58392 83.8515 8.65815C83.901 8.73238 83.9752 8.75712 84.1237 8.75712C84.1731 8.75712 84.2226 8.75712 84.2721 8.75712C84.3216 8.75712 84.3958 8.75712 84.47 8.73238V9.69733C84.4206 9.72207 84.3463 9.72207 84.2721 9.74681C84.1979 9.77155 84.1237 9.79629 84.0247 9.79629C83.9505 9.82104 83.8515 9.82104 83.7773 9.82104C83.703 9.82104 83.6288 9.82104 83.5793 9.82104C83.2824 9.82104 83.0597 9.77155 82.8618 9.64784C82.6639 9.52413 82.5401 9.32619 82.4907 9.05403C82.2185 9.32619 81.8721 9.52413 81.4762 9.64784C81.0804 9.77155 80.6845 9.82104 80.3133 9.82104C80.0164 9.82104 79.7443 9.77155 79.4968 9.69733C79.2247 9.6231 79.002 9.49939 78.8041 9.35093C78.6061 9.20248 78.4329 9.00454 78.334 8.78186C78.2103 8.55918 78.1608 8.28702 78.1608 7.96537C78.1608 7.56949 78.235 7.24784 78.3834 7.00042C78.5319 6.753 78.7051 6.55506 78.9525 6.43135C79.1752 6.28289 79.4474 6.18392 79.7443 6.13444C80.0412 6.08495 80.3381 6.03547 80.6102 5.98599C80.8577 5.9365 81.1051 5.91176 81.3278 5.88702C81.5505 5.86227 81.7484 5.83753 81.9463 5.78805C82.1195 5.73856 82.268 5.66434 82.367 5.56537C82.4659 5.4664 82.5154 5.31794 82.5154 5.09526C82.5154 4.92207 82.4659 4.77361 82.3917 4.6499C82.3175 4.52619 82.1938 4.45197 82.07 4.37774C81.9463 4.32825 81.7979 4.27877 81.6494 4.25403C81.501 4.22929 81.3525 4.22928 81.2041 4.22928C80.8082 4.22928 80.4865 4.30351 80.2391 4.47671C79.9917 4.6499 79.8432 4.89733 79.8185 5.24372H78.4329C78.4577 4.8231 78.5566 4.50145 78.7298 4.22928C78.903 3.95712 79.1257 3.73444 79.3979 3.58599C79.67 3.41279 79.967 3.31382 80.2886 3.23959C80.635 3.16537 80.9566 3.14062 81.3278 3.14062C81.6494 3.14062 81.9463 3.16537 82.2432 3.23959C82.5401 3.31382 82.8123 3.41279 83.0597 3.56124C83.3072 3.7097 83.5051 3.90764 83.6536 4.13032C83.802 4.353 83.8762 4.6499 83.8762 4.97155V8.28702H83.7773ZM82.3917 6.53032C82.169 6.67877 81.9216 6.753 81.5999 6.77774C81.2783 6.80248 80.9814 6.85197 80.6597 6.90145C80.5113 6.92619 80.3628 6.95093 80.2391 7.00042C80.0907 7.0499 79.967 7.09939 79.868 7.17361C79.769 7.24784 79.67 7.34681 79.6206 7.47052C79.5711 7.59423 79.5216 7.74269 79.5216 7.94062C79.5216 8.08908 79.5711 8.23753 79.6453 8.3365C79.7443 8.43547 79.8432 8.53444 79.967 8.58392C80.0907 8.63341 80.2391 8.68289 80.3876 8.70764C80.536 8.73238 80.6845 8.73238 80.8082 8.73238C80.9566 8.73238 81.1298 8.70763 81.303 8.68289C81.4762 8.63341 81.6494 8.58392 81.8226 8.48495C81.9711 8.38599 82.1195 8.26227 82.2185 8.11382C82.3175 7.96537 82.367 7.76743 82.367 7.54475V6.53032H82.3917Z" fill="#212B36"/>
<path d="M85.1134 0.964844H86.499V9.72361H85.1134V0.964844Z" fill="#212B36"/>
<path d="M91.1505 0.964844H92.6845V4.4535H96.668V0.964844H98.2021V9.72361H96.668V5.76484H92.6845V9.72361H91.1505V0.964844Z" fill="#212B36"/>
<path d="M105.204 9.6973H103.818V8.80658H103.794C103.621 9.12823 103.373 9.37565 103.027 9.57359C102.68 9.77153 102.334 9.8705 101.988 9.8705C101.146 9.8705 100.553 9.67256 100.181 9.25194C99.8102 8.83132 99.6123 8.21277 99.6123 7.37153V3.36328H100.998V7.24782C100.998 7.79215 101.097 8.18802 101.32 8.43545C101.542 8.65813 101.839 8.78184 102.21 8.78184C102.507 8.78184 102.755 8.73235 102.953 8.65813C103.15 8.55916 103.299 8.46019 103.423 8.28699C103.546 8.13854 103.621 7.96534 103.695 7.74266C103.744 7.51998 103.769 7.2973 103.769 7.04988V3.36328H105.155V9.6973H105.204Z" fill="#212B36"/>
<path d="M106.466 3.3633H107.802V4.25402H107.852C107.95 4.10557 108.074 3.95711 108.198 3.8334C108.322 3.70969 108.445 3.58598 108.619 3.51175C108.767 3.41278 108.94 3.33856 109.138 3.28907C109.336 3.23959 109.559 3.21484 109.806 3.21484C110.202 3.21484 110.548 3.28907 110.87 3.46227C111.192 3.63546 111.439 3.90763 111.563 4.25402C111.81 3.93237 112.082 3.6602 112.379 3.48701C112.701 3.28907 113.072 3.21484 113.542 3.21484C114.21 3.21484 114.73 3.38804 115.101 3.70969C115.472 4.03134 115.67 4.57567 115.67 5.34268V9.72206H114.26V6.01072C114.26 5.7633 114.26 5.51587 114.235 5.31794C114.21 5.12 114.161 4.92206 114.087 4.77361C114.012 4.62515 113.889 4.50144 113.74 4.42721C113.592 4.35299 113.369 4.3035 113.097 4.3035C112.627 4.3035 112.28 4.45196 112.058 4.74886C111.835 5.04577 111.736 5.46639 111.736 6.01072V9.72206H110.35V5.63959C110.35 5.19423 110.276 4.87258 110.103 4.6499C109.955 4.42721 109.658 4.3035 109.237 4.3035C109.064 4.3035 108.891 4.32825 108.717 4.40247C108.544 4.4767 108.396 4.57567 108.272 4.72412C108.148 4.87258 108.049 5.04577 107.975 5.24371C107.901 5.44165 107.876 5.68907 107.876 5.93649V9.69732H106.466V3.3633Z" fill="#212B36"/>
<path d="M122.227 8.28702C122.227 8.46021 122.251 8.58392 122.301 8.65815C122.35 8.73238 122.425 8.75712 122.573 8.75712C122.623 8.75712 122.672 8.75712 122.722 8.75712C122.771 8.75712 122.845 8.75712 122.92 8.73238V9.69733C122.87 9.72207 122.796 9.72207 122.722 9.74681C122.647 9.77155 122.573 9.79629 122.474 9.79629C122.4 9.82104 122.301 9.82104 122.227 9.82104C122.153 9.82104 122.078 9.82104 122.029 9.82104C121.732 9.82104 121.509 9.77155 121.311 9.64784C121.113 9.52413 120.99 9.32619 120.94 9.05403C120.668 9.32619 120.322 9.52413 119.926 9.64784C119.53 9.77155 119.134 9.82104 118.763 9.82104C118.466 9.82104 118.194 9.77155 117.946 9.69733C117.674 9.6231 117.451 9.49939 117.254 9.35093C117.056 9.20248 116.882 9.00454 116.783 8.78186C116.66 8.55918 116.61 8.28702 116.61 7.96537C116.61 7.56949 116.684 7.24784 116.833 7.00042C116.981 6.753 117.155 6.55506 117.402 6.43135C117.625 6.28289 117.897 6.18392 118.194 6.13444C118.491 6.08495 118.788 6.03547 119.06 5.98599C119.307 5.9365 119.555 5.91176 119.777 5.88702C120 5.86227 120.198 5.83753 120.396 5.78805C120.569 5.73856 120.717 5.66434 120.816 5.56537C120.915 5.4664 120.965 5.31794 120.965 5.09526C120.965 4.92207 120.915 4.77361 120.841 4.6499C120.767 4.52619 120.643 4.45197 120.52 4.37774C120.396 4.32825 120.247 4.27877 120.099 4.25403C119.95 4.22929 119.802 4.22928 119.654 4.22928C119.258 4.22928 118.936 4.30351 118.689 4.47671C118.441 4.6499 118.293 4.89733 118.268 5.24372H116.858C116.882 4.8231 116.981 4.50145 117.155 4.22928C117.328 3.95712 117.55 3.73444 117.823 3.58599C118.095 3.41279 118.392 3.31382 118.713 3.23959C119.06 3.16537 119.381 3.14062 119.753 3.14062C120.074 3.14062 120.371 3.16537 120.668 3.23959C120.965 3.31382 121.237 3.41279 121.484 3.56124C121.732 3.7097 121.93 3.90764 122.078 4.13032C122.227 4.353 122.301 4.6499 122.301 4.97155V8.28702H122.227ZM120.841 6.53032C120.618 6.67877 120.371 6.753 120.049 6.77774C119.728 6.80248 119.431 6.85197 119.109 6.90145C118.961 6.92619 118.812 6.95093 118.689 7.00042C118.54 7.0499 118.416 7.09939 118.317 7.17361C118.218 7.24784 118.12 7.34681 118.07 7.47052C117.996 7.59423 117.971 7.74269 117.971 7.94062C117.971 8.08908 118.021 8.23753 118.095 8.3365C118.194 8.43547 118.293 8.53444 118.416 8.58392C118.54 8.63341 118.689 8.68289 118.837 8.70764C118.985 8.73238 119.134 8.73238 119.258 8.73238C119.406 8.73238 119.579 8.70763 119.753 8.68289C119.926 8.63341 120.099 8.58392 120.272 8.48495C120.421 8.38599 120.569 8.26227 120.668 8.11382C120.767 7.96537 120.816 7.76743 120.816 7.54475V6.53032H120.841Z" fill="#212B36"/>
<path d="M123.513 3.3633H124.825V4.3035L124.849 4.32825C125.072 3.98185 125.344 3.70969 125.691 3.51175C126.037 3.31381 126.408 3.21484 126.829 3.21484C127.522 3.21484 128.066 3.38804 128.462 3.75917C128.858 4.13031 129.056 4.6499 129.056 5.36742V9.72206H127.645V5.71381C127.621 5.21897 127.522 4.84783 127.324 4.62515C127.126 4.40247 126.829 4.27876 126.408 4.27876C126.161 4.27876 125.963 4.32825 125.765 4.40247C125.567 4.4767 125.418 4.60041 125.295 4.74886C125.171 4.89732 125.072 5.07051 124.998 5.29319C124.924 5.49113 124.899 5.71381 124.899 5.93649V9.67258H123.513V3.3633Z" fill="#212B36"/>
<path d="M141.377 9.69824H140.388L140.165 8.65907C139.744 9.12917 139.348 9.45082 138.928 9.62401C138.532 9.79721 138.037 9.89618 137.517 9.89618C136.874 9.89618 136.28 9.77247 135.761 9.52504C135.241 9.27762 134.796 8.95597 134.449 8.53535C134.078 8.11474 133.806 7.64463 133.633 7.07556C133.435 6.53123 133.336 5.93742 133.336 5.29412C133.336 4.67556 133.435 4.08175 133.633 3.53742C133.831 2.99309 134.103 2.49824 134.449 2.07762C134.821 1.657 135.241 1.33535 135.761 1.08793C136.28 0.840508 136.874 0.716797 137.517 0.716797C137.988 0.716797 138.433 0.791024 138.878 0.914735C139.299 1.03845 139.695 1.23638 140.016 1.48381C140.363 1.73123 140.635 2.05288 140.858 2.42401C141.08 2.79515 141.204 3.24051 141.278 3.73535H139.794C139.744 3.43845 139.67 3.19102 139.522 2.99309C139.398 2.77041 139.225 2.59721 139.002 2.44876C138.804 2.3003 138.557 2.20133 138.309 2.12711C138.062 2.05288 137.79 2.02814 137.517 2.02814C137.047 2.02814 136.652 2.12711 136.305 2.3003C135.959 2.49824 135.687 2.74566 135.489 3.04257C135.266 3.36422 135.117 3.71061 135.019 4.10649C134.92 4.50236 134.87 4.92298 134.87 5.3436C134.87 5.76422 134.92 6.1601 135.019 6.58071C135.117 6.97659 135.291 7.34772 135.489 7.64463C135.711 7.96628 135.983 8.21371 136.305 8.3869C136.652 8.58484 137.047 8.65907 137.517 8.65907C137.913 8.65907 138.26 8.60958 138.557 8.51061C138.854 8.41164 139.126 8.23845 139.324 8.04051C139.522 7.84257 139.695 7.57041 139.794 7.2735C139.893 6.97659 139.967 6.6302 139.967 6.25907H137.641V5.09618H141.377V9.69824Z" fill="#212B36"/>
<path d="M143.752 6.90275C143.752 7.15017 143.777 7.37285 143.851 7.62027C143.926 7.84295 144.025 8.04089 144.173 8.21409C144.322 8.38728 144.495 8.51099 144.693 8.63471C144.915 8.73367 145.163 8.78316 145.46 8.78316C145.88 8.78316 146.202 8.68419 146.449 8.51099C146.697 8.3378 146.895 8.06563 147.018 7.71924H148.33C148.256 8.06563 148.132 8.36254 147.959 8.63471C147.785 8.90687 147.563 9.12955 147.315 9.32749C147.068 9.50068 146.771 9.64914 146.474 9.74811C146.152 9.84708 145.831 9.89656 145.484 9.89656C144.99 9.89656 144.544 9.82233 144.173 9.64914C143.777 9.47594 143.456 9.25326 143.208 8.95636C142.936 8.65945 142.738 8.31306 142.614 7.89244C142.491 7.47182 142.416 7.02646 142.416 6.53161C142.416 6.08625 142.491 5.66563 142.639 5.24501C142.788 4.84914 142.985 4.478 143.258 4.1811C143.53 3.88419 143.851 3.63677 144.223 3.46357C144.594 3.29038 145.014 3.19141 145.509 3.19141C146.004 3.19141 146.449 3.29038 146.845 3.51306C147.241 3.71099 147.563 4.0079 147.835 4.32955C148.107 4.67594 148.28 5.07182 148.404 5.51718C148.528 5.96254 148.552 6.43264 148.503 6.90275H143.752ZM146.994 5.98728C146.969 5.7646 146.919 5.54192 146.845 5.34398C146.771 5.14605 146.672 4.97285 146.524 4.79965C146.4 4.6512 146.227 4.52749 146.029 4.42852C145.831 4.32955 145.633 4.28007 145.385 4.28007C145.138 4.28007 144.915 4.32955 144.717 4.40378C144.519 4.478 144.346 4.60172 144.198 4.75017C144.049 4.89862 143.95 5.07182 143.851 5.2945C143.777 5.49244 143.728 5.71512 143.703 5.96254H146.994V5.98728Z" fill="#212B36"/>
<path d="M149.245 3.3633H150.581V4.3035L150.606 4.32825C150.829 3.98185 151.101 3.70969 151.447 3.51175C151.794 3.31381 152.165 3.21484 152.586 3.21484C153.278 3.21484 153.823 3.38804 154.219 3.75917C154.614 4.13031 154.812 4.6499 154.812 5.36742V9.72206H153.427V5.71381C153.402 5.21897 153.303 4.84783 153.105 4.62515C152.907 4.40247 152.61 4.27876 152.19 4.27876C151.942 4.27876 151.744 4.32825 151.546 4.40247C151.348 4.4767 151.2 4.60041 151.076 4.74886C150.953 4.89732 150.854 5.07051 150.779 5.29319C150.705 5.49113 150.68 5.71381 150.68 5.93649V9.67258H149.27V3.3633H149.245Z" fill="#212B36"/>
<path d="M158.994 9.87117C158.499 9.87117 158.029 9.79694 157.633 9.62375C157.237 9.45055 156.891 9.22787 156.618 8.93096C156.346 8.63406 156.148 8.28766 156 7.86705C155.851 7.44643 155.777 7.00107 155.777 6.50622C155.777 6.03612 155.851 5.59076 156 5.17014C156.148 4.74952 156.346 4.40313 156.618 4.10622C156.891 3.80931 157.237 3.58663 157.633 3.41344C158.029 3.24024 158.474 3.16602 158.994 3.16602C159.513 3.16602 159.959 3.24024 160.355 3.41344C160.75 3.58663 161.097 3.80931 161.369 4.10622C161.641 4.40313 161.839 4.74952 161.988 5.17014C162.136 5.59076 162.21 6.03612 162.21 6.50622C162.21 7.00107 162.136 7.44643 161.988 7.86705C161.839 8.28766 161.641 8.63406 161.369 8.93096C161.097 9.22787 160.75 9.45055 160.355 9.62375C159.959 9.79694 159.489 9.87117 158.994 9.87117ZM158.994 8.78251C159.315 8.78251 159.563 8.70828 159.81 8.58457C160.033 8.46086 160.231 8.28766 160.379 8.06498C160.528 7.8423 160.627 7.61962 160.701 7.34746C160.775 7.07529 160.8 6.80313 160.8 6.53096C160.8 6.2588 160.775 5.98663 160.701 5.71447C160.627 5.4423 160.528 5.19488 160.379 4.99694C160.231 4.79901 160.033 4.62581 159.81 4.47736C159.588 4.35364 159.315 4.27942 158.994 4.27942C158.672 4.27942 158.425 4.35364 158.177 4.47736C157.955 4.60107 157.757 4.77426 157.608 4.99694C157.46 5.19488 157.361 5.4423 157.287 5.71447C157.212 5.98663 157.188 6.2588 157.188 6.53096C157.188 6.80313 157.212 7.07529 157.287 7.34746C157.361 7.61962 157.46 7.8423 157.608 8.06498C157.757 8.28766 157.955 8.46086 158.177 8.58457C158.4 8.70828 158.672 8.78251 158.994 8.78251Z" fill="#212B36"/>
<path d="M163.151 3.3633H164.462V4.25402H164.487C164.586 4.10557 164.709 3.95711 164.833 3.8334C164.957 3.70969 165.105 3.58598 165.254 3.51175C165.402 3.41278 165.575 3.33856 165.773 3.28907C165.971 3.23959 166.194 3.21484 166.441 3.21484C166.837 3.21484 167.183 3.28907 167.505 3.46227C167.827 3.63546 168.074 3.90763 168.198 4.25402C168.445 3.93237 168.718 3.6602 169.014 3.48701C169.336 3.28907 169.707 3.21484 170.177 3.21484C170.845 3.21484 171.365 3.38804 171.736 3.70969C172.107 4.03134 172.305 4.57567 172.305 5.34268V9.72206H170.895V6.01072C170.895 5.7633 170.895 5.51587 170.87 5.31794C170.845 5.12 170.796 4.92206 170.722 4.77361C170.647 4.62515 170.524 4.50144 170.375 4.42721C170.227 4.35299 170.004 4.3035 169.732 4.3035C169.262 4.3035 168.915 4.45196 168.693 4.74886C168.47 5.04577 168.371 5.46639 168.371 6.01072V9.72206H166.961V5.63959C166.961 5.19423 166.887 4.87258 166.713 4.6499C166.565 4.42721 166.268 4.3035 165.847 4.3035C165.674 4.3035 165.501 4.32825 165.328 4.40247C165.155 4.4767 165.006 4.57567 164.882 4.72412C164.759 4.87258 164.66 5.04577 164.586 5.24371C164.586 5.44165 164.536 5.68907 164.536 5.93649V9.69732H163.151V3.3633Z" fill="#212B36"/>
<path d="M174.705 6.90275C174.705 7.15017 174.73 7.37285 174.804 7.62027C174.878 7.84295 174.977 8.04089 175.126 8.21409C175.274 8.38728 175.447 8.51099 175.645 8.63471C175.868 8.73367 176.115 8.78316 176.412 8.78316C176.833 8.78316 177.155 8.68419 177.402 8.51099C177.649 8.3378 177.847 8.06563 177.971 7.71924H179.282C179.208 8.06563 179.084 8.36254 178.911 8.63471C178.738 8.90687 178.515 9.12955 178.268 9.32749C178.021 9.50068 177.724 9.64914 177.427 9.74811C177.105 9.84708 176.783 9.89656 176.437 9.89656C175.942 9.89656 175.497 9.82233 175.126 9.64914C174.73 9.47594 174.408 9.25326 174.161 8.95636C173.889 8.65945 173.691 8.31306 173.567 7.89244C173.443 7.47182 173.369 7.02646 173.369 6.53161C173.369 6.08625 173.443 5.66563 173.592 5.24501C173.74 4.84914 173.938 4.478 174.21 4.1811C174.482 3.88419 174.804 3.63677 175.175 3.46357C175.546 3.29038 175.967 3.19141 176.462 3.19141C176.957 3.19141 177.402 3.29038 177.798 3.51306C178.194 3.71099 178.515 4.0079 178.788 4.32955C179.06 4.67594 179.233 5.07182 179.357 5.51718C179.48 5.96254 179.505 6.43264 179.456 6.90275H174.705ZM177.946 5.98728C177.922 5.7646 177.872 5.54192 177.798 5.34398C177.724 5.14605 177.625 4.97285 177.476 4.79965C177.353 4.6512 177.179 4.52749 176.981 4.42852C176.783 4.32955 176.586 4.28007 176.338 4.28007C176.091 4.28007 175.868 4.32955 175.67 4.40378C175.472 4.478 175.299 4.60172 175.15 4.75017C175.002 4.89862 174.903 5.07182 174.804 5.2945C174.73 5.49244 174.68 5.71512 174.656 5.96254H177.946V5.98728Z" fill="#212B36"/>
<path d="M42.9277 14.1758H47.1092C48.0741 14.1758 48.7917 14.3737 49.2865 14.7943C49.7566 15.215 50.004 15.784 50.004 16.5263C50.004 16.9469 49.9545 17.2933 49.8308 17.5655C49.7071 17.8376 49.5587 18.0603 49.4102 18.2335C49.237 18.4067 49.0886 18.5304 48.9154 18.6046C48.7669 18.6789 48.6432 18.7284 48.569 18.7531V18.7778C48.6927 18.8026 48.8411 18.8273 48.9896 18.9016C49.138 18.9758 49.2865 19.0747 49.4102 19.2232C49.5339 19.3717 49.6576 19.5449 49.7319 19.7923C49.8061 20.015 49.8556 20.3119 49.8556 20.6583C49.8556 21.1778 49.9051 21.6479 49.9793 22.0686C50.0535 22.4892 50.1772 22.7861 50.3504 22.9593H48.7174C48.5937 22.7613 48.5442 22.5634 48.5195 22.3407C48.4947 22.118 48.4947 21.8954 48.4947 21.6727C48.4947 21.2768 48.47 20.9304 48.4205 20.6335C48.371 20.3366 48.2721 20.1139 48.1484 19.916C48.0246 19.718 47.8514 19.5943 47.604 19.4954C47.3566 19.3964 47.0844 19.3717 46.738 19.3717H44.4865V22.984H42.9525V14.1758H42.9277ZM44.4618 18.1593H46.9855C47.4803 18.1593 47.8514 18.0356 48.0989 17.8129C48.3463 17.5902 48.47 17.2191 48.47 16.7737C48.47 16.5016 48.4205 16.2789 48.3463 16.1057C48.2721 15.9325 48.1484 15.784 47.9999 15.6851C47.8514 15.5861 47.703 15.5119 47.5051 15.4871C47.3319 15.4624 47.1339 15.4376 46.936 15.4376H44.437V18.1593H44.4618Z" fill="#212B36"/>
<path d="M52.2309 20.1137C52.2309 20.3611 52.2556 20.6085 52.3298 20.8312C52.4041 21.0539 52.503 21.2518 52.6515 21.425C52.7999 21.5982 52.9731 21.7219 53.1711 21.8456C53.3937 21.9446 53.6412 21.9941 53.9381 21.9941C54.3587 21.9941 54.6803 21.8951 54.9278 21.7219C55.1752 21.5487 55.3731 21.2766 55.4968 20.9302H56.8329C56.7587 21.2766 56.635 21.5735 56.4618 21.8456C56.2886 22.1178 56.0659 22.3405 55.8185 22.5384C55.5711 22.7116 55.2742 22.8601 54.9772 22.959C54.6556 23.058 54.334 23.1075 53.9876 23.1075C53.4927 23.1075 53.0474 23.0333 52.6515 22.8601C52.2556 22.6869 51.9339 22.4642 51.6865 22.1673C51.4144 21.8704 51.2164 21.524 51.0927 21.1034C50.969 20.6828 50.8948 20.2374 50.8948 19.7425C50.8948 19.2972 50.969 18.8766 51.1175 18.456C51.2659 18.0601 51.4638 17.6889 51.736 17.392C52.0082 17.0951 52.3298 16.8477 52.701 16.6745C53.0721 16.5013 53.4927 16.4023 53.9876 16.4023C54.4824 16.4023 54.9278 16.5013 55.3236 16.724C55.7195 16.9219 56.0412 17.2188 56.3133 17.5405C56.5855 17.8869 56.7587 18.2828 56.8824 18.7281C57.0061 19.1735 57.0309 19.6436 56.9814 20.1137H52.2309ZM55.4968 19.1982C55.4721 18.9755 55.4226 18.7529 55.3484 18.5549C55.2742 18.357 55.1752 18.1838 55.0267 18.0106C54.903 17.8621 54.7298 17.7384 54.5319 17.6395C54.3339 17.5405 54.136 17.491 53.8886 17.491C53.6412 17.491 53.4185 17.5405 53.2206 17.6147C53.0226 17.6889 52.8494 17.8127 52.701 17.9611C52.5525 18.1096 52.4535 18.2828 52.3546 18.5054C52.2803 18.7034 52.2309 18.9261 52.2061 19.1735H55.4968V19.1982Z" fill="#212B36"/>
<path d="M58.8122 20.9054C58.8617 21.326 59.0102 21.5982 59.2823 21.7714C59.5545 21.9446 59.8762 22.0188 60.2473 22.0188C60.371 22.0188 60.5195 22.0188 60.6927 21.9941C60.8659 21.9693 61.0143 21.9446 61.1628 21.8704C61.3112 21.8209 61.4349 21.7219 61.5339 21.623C61.6329 21.524 61.6823 21.3755 61.6576 21.1776C61.6576 21.0044 61.5834 20.8559 61.4597 20.7322C61.336 20.6085 61.1875 20.5343 60.9896 20.4601C60.7916 20.3858 60.5689 20.3364 60.3215 20.2869C60.0741 20.2374 59.8267 20.1879 59.5793 20.1384C59.3071 20.0889 59.0597 20.0147 58.837 19.9405C58.5896 19.8663 58.3669 19.7425 58.1937 19.6188C57.9957 19.4704 57.8473 19.2972 57.7236 19.0745C57.5999 18.8518 57.5504 18.5797 57.5504 18.2827C57.5504 17.9364 57.6246 17.6394 57.7978 17.4168C57.971 17.1941 58.1689 16.9962 58.4411 16.8477C58.6885 16.6992 58.9854 16.6003 59.3071 16.5508C59.6287 16.5013 59.9256 16.4766 60.1978 16.4766C60.5195 16.4766 60.8411 16.5013 61.138 16.5755C61.4349 16.6498 61.7071 16.7487 61.9545 16.9219C62.2019 17.0704 62.3999 17.2683 62.5483 17.5405C62.6968 17.7879 62.7957 18.0848 62.8452 18.4312H61.3854C61.3112 18.0848 61.1628 17.8621 60.9153 17.7632C60.6679 17.6395 60.3957 17.59 60.0988 17.59C59.9999 17.59 59.8762 17.59 59.7524 17.6147C59.6287 17.6394 59.4803 17.6642 59.3813 17.7137C59.2576 17.7632 59.1586 17.8126 59.0844 17.9116C59.0102 17.9858 58.9607 18.1096 58.9607 18.258C58.9607 18.4312 59.0102 18.5797 59.1339 18.6786C59.2576 18.7776 59.4061 18.8766 59.604 18.9508C59.8019 19.025 60.0246 19.0745 60.272 19.124C60.5195 19.1735 60.7669 19.223 61.039 19.2724C61.2865 19.3219 61.5339 19.3961 61.7813 19.4704C62.0287 19.5446 62.2514 19.6683 62.4494 19.792C62.6473 19.9405 62.7957 20.1137 62.9195 20.3116C63.0432 20.5343 63.0927 20.7817 63.0927 21.1034C63.0927 21.4745 63.0184 21.7961 62.8452 22.0683C62.672 22.3405 62.4494 22.5384 62.1772 22.7116C61.905 22.8848 61.6081 22.9838 61.2617 23.058C60.9153 23.1322 60.5937 23.157 60.272 23.157C59.8762 23.157 59.505 23.1075 59.1586 23.0333C58.8122 22.9343 58.5153 22.8106 58.2679 22.6126C58.0205 22.4394 57.8226 22.192 57.6741 21.9199C57.5256 21.6477 57.4514 21.326 57.4514 20.9549H58.8122V20.9054Z" fill="#212B36"/>
<path d="M64.9978 20.1137C64.9978 20.3611 65.0226 20.6085 65.0968 20.8312C65.171 21.0539 65.27 21.2518 65.4184 21.425C65.5669 21.5982 65.7401 21.7219 65.938 21.8456C66.1607 21.9446 66.4081 21.9941 66.705 21.9941C67.1257 21.9941 67.4473 21.8951 67.6947 21.7219C67.9422 21.5487 68.1401 21.2766 68.2638 20.9302H69.5999C69.5257 21.2766 69.4019 21.5735 69.2288 21.8456C69.0556 22.1178 68.8329 22.3405 68.5855 22.5384C68.338 22.7116 68.0411 22.8601 67.7442 22.959C67.4226 23.058 67.1009 23.1075 66.7545 23.1075C66.2597 23.1075 65.8143 23.0333 65.4184 22.8601C65.0226 22.6869 64.7009 22.4642 64.4535 22.1673C64.1813 21.8704 63.9834 21.524 63.8597 21.1034C63.736 20.6828 63.6617 20.2374 63.6617 19.7425C63.6617 19.2972 63.736 18.8766 63.8844 18.456C64.0329 18.0601 64.2308 17.6889 64.503 17.392C64.7752 17.0951 65.0968 16.8477 65.4679 16.6745C65.8391 16.5013 66.2597 16.4023 66.7545 16.4023C67.2494 16.4023 67.6947 16.5013 68.0906 16.724C68.4865 16.9219 68.8081 17.2188 69.0803 17.5405C69.3525 17.8869 69.5257 18.2828 69.6494 18.7281C69.7731 19.1735 69.7978 19.6436 69.7483 20.1137H64.9978ZM68.2391 19.1982C68.2143 18.9755 68.1648 18.7529 68.0906 18.5549C68.0164 18.357 67.9174 18.1838 67.769 18.0106C67.6452 17.8621 67.4721 17.7384 67.2741 17.6395C67.0762 17.5405 66.8782 17.491 66.6308 17.491C66.3834 17.491 66.1607 17.5405 65.9628 17.6147C65.7648 17.6889 65.5916 17.8127 65.4432 17.9611C65.2947 18.1096 65.1958 18.2828 65.0968 18.5054C65.0226 18.7034 64.9731 18.9261 64.9483 19.1735H68.2391V19.1982Z" fill="#212B36"/>
<path d="M75.8102 21.5233C75.8102 21.6965 75.835 21.8203 75.8844 21.8945C75.9339 21.9687 76.0082 21.9934 76.1566 21.9934C76.2061 21.9934 76.2556 21.9934 76.3051 21.9934C76.3545 21.9934 76.4288 21.9934 76.503 21.9687V22.9337C76.4535 22.9584 76.3793 22.9584 76.3051 22.9831C76.2308 23.0079 76.1566 23.0326 76.0576 23.0326C75.9834 23.0574 75.8844 23.0574 75.8102 23.0574C75.736 23.0574 75.6618 23.0574 75.6123 23.0574C75.3154 23.0574 75.0927 23.0079 74.8948 22.8842C74.6968 22.7605 74.5731 22.5625 74.5236 22.2904C74.2515 22.5625 73.9051 22.7605 73.5092 22.8842C73.1133 23.0079 72.7174 23.0574 72.3463 23.0574C72.0494 23.0574 71.7772 23.0079 71.5298 22.9337C71.2576 22.8594 71.035 22.7357 70.837 22.5873C70.6391 22.4388 70.4659 22.2409 70.3669 22.0182C70.2432 21.7955 70.1937 21.5233 70.1937 21.2017C70.1937 20.8058 70.268 20.4842 70.4164 20.2367C70.5649 19.9893 70.7381 19.7914 70.9855 19.6677C71.2082 19.5192 71.4803 19.4203 71.7772 19.3708C72.0741 19.3213 72.371 19.2718 72.6432 19.2223C72.8906 19.1728 73.1381 19.1481 73.3607 19.1233C73.5834 19.0986 73.7814 19.0739 73.9793 19.0244C74.1525 18.9749 74.3009 18.9007 74.3999 18.8017C74.4989 18.7027 74.5484 18.5543 74.5484 18.3316C74.5484 18.1584 74.4989 18.0099 74.4246 17.8862C74.3504 17.7625 74.2267 17.6883 74.103 17.6141C73.9793 17.5646 73.8308 17.5151 73.6824 17.4904C73.5339 17.4656 73.3855 17.4656 73.237 17.4656C72.8411 17.4656 72.5195 17.5398 72.2721 17.713C72.0247 17.8862 71.8762 18.1337 71.8515 18.48H70.4659C70.4906 18.0594 70.5896 17.7378 70.7628 17.4656C70.936 17.1934 71.1587 16.9708 71.4061 16.8223C71.6783 16.6491 71.9752 16.5501 72.2968 16.4759C72.6432 16.4017 72.9649 16.377 73.336 16.377C73.6576 16.377 73.9545 16.4017 74.2515 16.4759C74.5484 16.5501 74.8205 16.6491 75.0679 16.7976C75.3154 16.946 75.5133 17.144 75.6618 17.3666C75.8102 17.5893 75.8844 17.8862 75.8844 18.2079V21.5233H75.8102ZM74.3999 19.7666C74.1772 19.9151 73.9298 19.9893 73.6082 20.0141C73.2865 20.0388 72.9896 20.0883 72.668 20.1378C72.5195 20.1625 72.371 20.1873 72.2473 20.2367C72.0989 20.2862 71.9752 20.3357 71.8762 20.4099C71.7772 20.4842 71.6783 20.5831 71.6288 20.7069C71.5545 20.8306 71.5298 20.979 71.5298 21.177C71.5298 21.3254 71.5793 21.4739 71.6535 21.5728C71.7525 21.6718 71.8515 21.7708 71.9752 21.8203C72.0989 21.8697 72.2473 21.9192 72.3958 21.944C72.5442 21.9687 72.6927 21.9687 72.8164 21.9687C72.9649 21.9687 73.138 21.944 73.3112 21.9192C73.4844 21.8697 73.6576 21.8203 73.8308 21.7213C73.9793 21.6223 74.1277 21.4986 74.2267 21.3502C74.3257 21.2017 74.3752 21.0038 74.3752 20.7811V19.7666H74.3999Z" fill="#212B36"/>
<path d="M77.0968 16.5996H78.4081V17.8367H78.4329C78.4824 17.6635 78.5566 17.4903 78.6803 17.3419C78.804 17.1687 78.9525 17.0202 79.1009 16.8965C79.2741 16.7728 79.4473 16.6491 79.67 16.5749C79.8679 16.5007 80.0906 16.4512 80.2886 16.4512C80.4617 16.4512 80.5607 16.4512 80.6349 16.4512C80.6844 16.4512 80.7587 16.4759 80.8329 16.4759V17.812C80.7339 17.7873 80.6349 17.7873 80.536 17.7625C80.437 17.7625 80.338 17.7378 80.2391 17.7378C79.9916 17.7378 79.769 17.7873 79.571 17.8862C79.3731 17.9852 79.1751 18.1089 79.0267 18.3068C78.8782 18.48 78.7545 18.7275 78.6556 18.9749C78.5566 19.247 78.5319 19.544 78.5319 19.9151V22.9336H77.1463V16.5996H77.0968Z" fill="#212B36"/>
<path d="M85.2618 18.704C85.2123 18.3081 85.0391 18.0112 84.7917 17.8133C84.5442 17.6154 84.1978 17.5164 83.8267 17.5164C83.6535 17.5164 83.4556 17.5411 83.2576 17.6154C83.0597 17.6648 82.8618 17.7886 82.6886 17.9618C82.5154 18.135 82.3669 18.3576 82.268 18.6545C82.1442 18.9514 82.0948 19.3473 82.0948 19.8174C82.0948 20.0896 82.1195 20.337 82.1937 20.6092C82.2432 20.8813 82.3422 21.104 82.4906 21.302C82.6143 21.4999 82.7875 21.6731 83.0102 21.7968C83.2329 21.9205 83.4803 21.9947 83.7772 21.9947C84.1979 21.9947 84.5195 21.871 84.7917 21.6236C85.0638 21.3762 85.2123 21.0051 85.2865 20.5597H86.6721C86.5484 21.3762 86.2267 22.0195 85.7319 22.4648C85.237 22.9102 84.5937 23.1329 83.7525 23.1329C83.2576 23.1329 82.8123 23.0587 82.4412 22.8855C82.07 22.7123 81.7484 22.4896 81.4762 22.1927C81.204 21.8958 81.0061 21.5494 80.8824 21.1535C80.7587 20.7576 80.6844 20.3123 80.6844 19.8422C80.6844 19.3721 80.7587 18.9267 80.8824 18.5061C81.0061 18.0855 81.204 17.7391 81.4762 17.4174C81.7484 17.1205 82.07 16.8731 82.4412 16.6999C82.837 16.5267 83.2824 16.4277 83.802 16.4277C84.1731 16.4277 84.5195 16.4772 84.8411 16.5762C85.1628 16.6752 85.4597 16.7989 85.7319 16.9968C85.9793 17.1947 86.202 17.4174 86.3752 17.7143C86.5484 18.0112 86.6473 18.3329 86.6721 18.7288H85.2618V18.704Z" fill="#212B36"/>
<path d="M87.5627 14.1758H88.9483V17.417H88.9731C89.1463 17.1201 89.3937 16.8974 89.7401 16.6995C90.0865 16.5016 90.4576 16.4026 90.8782 16.4026C91.571 16.4026 92.1153 16.5758 92.5112 16.9469C92.9071 17.318 93.105 17.8376 93.105 18.5552V22.9098H91.6947V18.951C91.67 18.4562 91.571 18.0851 91.3731 17.8624C91.1751 17.6397 90.8782 17.516 90.4576 17.516C90.2102 17.516 90.0122 17.5655 89.8143 17.6397C89.6164 17.7139 89.4679 17.8376 89.3442 17.9861C89.2205 18.1345 89.1215 18.3077 89.0473 18.5304C88.9731 18.7284 88.9483 18.951 88.9483 19.1737V22.9098H87.5627V14.1758Z" fill="#212B36"/>
<path d="M97.7814 14.1758H99.3154V22.9345H97.7814V14.1758Z" fill="#212B36"/>
<path d="M100.775 16.5996H102.086V17.5398L102.111 17.5646C102.334 17.2182 102.606 16.946 102.952 16.7481C103.299 16.5501 103.67 16.4512 104.091 16.4512C104.783 16.4512 105.328 16.6244 105.724 16.9955C106.119 17.3666 106.317 17.8862 106.317 18.6037V22.9584H104.907V18.9501C104.882 18.4553 104.783 18.0842 104.585 17.8615C104.388 17.6388 104.091 17.5151 103.67 17.5151C103.423 17.5151 103.225 17.5646 103.027 17.6388C102.829 17.713 102.68 17.8367 102.557 17.9852C102.433 18.1336 102.334 18.3068 102.26 18.5295C102.185 18.7275 102.161 18.9501 102.161 19.1728V22.9089H100.775V16.5996Z" fill="#212B36"/>
<path d="M108.643 20.9054C108.693 21.326 108.841 21.5982 109.113 21.7714C109.385 21.9446 109.707 22.0188 110.078 22.0188C110.202 22.0188 110.35 22.0188 110.524 21.9941C110.697 21.9693 110.845 21.9446 110.994 21.8704C111.142 21.8209 111.266 21.7219 111.365 21.623C111.464 21.524 111.513 21.3755 111.489 21.1776C111.464 20.9797 111.414 20.8559 111.291 20.7322C111.167 20.6085 111.018 20.5343 110.821 20.4601C110.623 20.3858 110.4 20.3364 110.177 20.2869C109.93 20.2374 109.682 20.1879 109.435 20.1384C109.163 20.0889 108.915 20.0147 108.693 19.9405C108.445 19.8663 108.223 19.7425 108.049 19.6188C107.851 19.4704 107.703 19.2972 107.579 19.0745C107.456 18.8518 107.406 18.5797 107.406 18.2827C107.406 17.9364 107.48 17.6394 107.654 17.4168C107.827 17.1941 108.025 16.9962 108.297 16.8477C108.544 16.6992 108.841 16.6003 109.163 16.5508C109.484 16.5013 109.781 16.4766 110.054 16.4766C110.375 16.4766 110.697 16.5013 110.994 16.5755C111.291 16.6498 111.563 16.7487 111.81 16.9219C112.058 17.0704 112.256 17.2683 112.404 17.5405C112.552 17.7879 112.651 18.0848 112.701 18.4312H111.241C111.167 18.0848 111.018 17.8621 110.771 17.7632C110.524 17.6395 110.251 17.59 109.955 17.59C109.856 17.59 109.732 17.59 109.608 17.6147C109.484 17.6394 109.336 17.6642 109.237 17.7137C109.113 17.7632 109.014 17.8126 108.94 17.9116C108.866 17.9858 108.816 18.1096 108.816 18.258C108.816 18.4312 108.866 18.5797 108.99 18.6786C109.113 18.7776 109.262 18.8766 109.46 18.9508C109.658 19.025 109.88 19.0745 110.128 19.124C110.375 19.1735 110.623 19.223 110.895 19.2724C111.142 19.3219 111.39 19.3961 111.637 19.4704C111.884 19.5446 112.107 19.6683 112.305 19.792C112.503 19.9405 112.651 20.1137 112.775 20.3116C112.899 20.5343 112.948 20.7817 112.948 21.1034C112.948 21.4745 112.874 21.7961 112.701 22.0683C112.528 22.3405 112.305 22.5384 112.033 22.7116C111.761 22.8848 111.464 22.9838 111.117 23.058C110.771 23.1322 110.449 23.157 110.128 23.157C109.732 23.157 109.361 23.1075 109.014 23.0333C108.668 22.9343 108.371 22.8106 108.124 22.6126C107.876 22.4394 107.678 22.192 107.53 21.9199C107.381 21.6477 107.307 21.326 107.307 20.9549H108.643V20.9054Z" fill="#212B36"/>
<path d="M113.122 16.6005H114.185V14.6953H115.596V16.6005H116.858V17.6396H115.596V21.0293C115.596 21.1778 115.596 21.3015 115.621 21.4005C115.621 21.4994 115.67 21.5984 115.695 21.6726C115.744 21.7469 115.818 21.7963 115.893 21.8458C115.992 21.8706 116.115 21.8953 116.264 21.8953C116.363 21.8953 116.462 21.8953 116.561 21.8953C116.66 21.8953 116.759 21.8706 116.858 21.8458V22.9345C116.709 22.9592 116.561 22.9592 116.412 22.984C116.264 23.0087 116.115 23.0087 115.967 23.0087C115.596 23.0087 115.299 22.984 115.076 22.9097C114.854 22.8355 114.68 22.7365 114.557 22.6128C114.433 22.4891 114.334 22.3159 114.309 22.0933C114.284 21.8706 114.235 21.6479 114.235 21.4005V17.6396H113.171V16.6005H113.122Z" fill="#212B36"/>
<path d="M117.649 14.1758H119.06V15.5119H117.649V14.1758ZM117.649 16.6005H119.06V22.9345H117.649V16.6005Z" fill="#212B36"/>
<path d="M119.728 16.6005H120.792V14.6953H122.177V16.6005H123.439V17.6396H122.177V21.0293C122.177 21.1778 122.177 21.3015 122.202 21.4005C122.227 21.4994 122.251 21.5984 122.276 21.6726C122.326 21.7469 122.4 21.7963 122.474 21.8458C122.573 21.8706 122.697 21.8953 122.845 21.8953C122.944 21.8953 123.043 21.8953 123.142 21.8953C123.241 21.8953 123.34 21.8706 123.439 21.8458V22.9345C123.291 22.9592 123.142 22.9592 122.994 22.984C122.845 23.0087 122.697 23.0087 122.548 23.0087C122.177 23.0087 121.88 22.984 121.658 22.9097C121.435 22.8355 121.262 22.7365 121.138 22.6128C121.014 22.4891 120.915 22.3159 120.891 22.0933C120.866 21.8706 120.816 21.6479 120.816 21.4005V17.6396H119.753V16.6005H119.728Z" fill="#212B36"/>
<path d="M129.798 22.9336H128.412V22.0429C128.239 22.3646 127.992 22.612 127.645 22.8099C127.299 23.0079 126.952 23.1068 126.606 23.1068C125.765 23.1068 125.171 22.9089 124.8 22.4883C124.429 22.0677 124.231 21.4491 124.231 20.6079V16.5996H125.616V20.4841C125.616 21.0285 125.715 21.4244 125.938 21.6718C126.161 21.8945 126.458 22.0182 126.829 22.0182C127.126 22.0182 127.373 21.9687 127.571 21.8945C127.769 21.7955 127.917 21.6965 128.041 21.5233C128.165 21.3749 128.264 21.2017 128.313 20.979C128.363 20.7563 128.388 20.5336 128.388 20.2862V16.5996H129.798V22.9336Z" fill="#212B36"/>
<path d="M130.416 16.6005H131.48V14.6953H132.866V16.6005H134.128V17.6396H132.866V21.0293C132.866 21.1778 132.866 21.3015 132.891 21.4005C132.915 21.4994 132.94 21.5984 132.965 21.6726C133.014 21.7469 133.089 21.7963 133.163 21.8458C133.262 21.8706 133.385 21.8953 133.534 21.8953C133.633 21.8953 133.732 21.8953 133.831 21.8953C133.93 21.8953 134.029 21.8706 134.128 21.8458V22.9345C133.979 22.9592 133.831 22.9592 133.682 22.984C133.534 23.0087 133.385 23.0087 133.237 23.0087C132.866 23.0087 132.569 22.984 132.346 22.9097C132.124 22.8355 131.95 22.7365 131.827 22.6128C131.703 22.4891 131.604 22.3159 131.579 22.0933C131.53 21.8953 131.505 21.6479 131.505 21.4005V17.6396H130.441V16.6005H130.416Z" fill="#212B36"/>
<path d="M136.033 20.1137C136.033 20.3611 136.058 20.6085 136.132 20.8312C136.206 21.0539 136.305 21.2518 136.453 21.425C136.602 21.5982 136.775 21.7219 136.973 21.8456C137.196 21.9446 137.443 21.9941 137.74 21.9941C138.161 21.9941 138.482 21.8951 138.73 21.7219C138.977 21.5487 139.175 21.2766 139.299 20.9302H140.61C140.536 21.2766 140.412 21.5735 140.239 21.8456C140.066 22.1178 139.843 22.3405 139.596 22.5384C139.348 22.7116 139.051 22.8601 138.754 22.959C138.433 23.058 138.111 23.1075 137.765 23.1075C137.27 23.1075 136.825 23.0333 136.453 22.8601C136.058 22.6869 135.736 22.4642 135.489 22.1673C135.216 21.8704 135.018 21.524 134.895 21.1034C134.771 20.6828 134.697 20.2374 134.697 19.7425C134.697 19.2972 134.771 18.8766 134.919 18.456C135.068 18.0601 135.266 17.6889 135.538 17.392C135.81 17.0951 136.132 16.8477 136.503 16.6745C136.874 16.5013 137.295 16.4023 137.79 16.4023C138.284 16.4023 138.73 16.5013 139.126 16.724C139.522 16.9219 139.843 17.2188 140.115 17.5405C140.387 17.8869 140.561 18.2828 140.684 18.7281C140.808 19.1735 140.833 19.6436 140.783 20.1137H136.033ZM139.299 19.1982C139.274 18.9755 139.225 18.7529 139.15 18.5549C139.076 18.357 138.977 18.1838 138.829 18.0106C138.705 17.8621 138.532 17.7384 138.334 17.6395C138.136 17.5405 137.938 17.491 137.691 17.491C137.443 17.491 137.22 17.5405 137.023 17.6147C136.825 17.6889 136.651 17.8127 136.503 17.9611C136.355 18.1096 136.256 18.2828 136.157 18.5054C136.082 18.7034 136.033 18.9261 136.008 19.1735H139.299V19.1982Z" fill="#212B36"/>
</g>
<defs>
<clipPath id="clip0_1077_18022">
<rect width="179.381" height="24" fill="white"/>
</clipPath>
</defs>
</svg>
