<?xml version="1.0" encoding="UTF-8"?>
<svg width="545px" height="368px" viewBox="0 0 545 368" version="1.1" xmlns="http://www.w3.org/2000/svg" xmlns:xlink="http://www.w3.org/1999/xlink">
    <!-- Generator: Sketch 59.1 (86144) - https://sketch.com -->
    <title>ncpi-cloud-in-a-square</title>
    <desc>Created with Sketch.</desc>
    <g id="Page-1" stroke="none" stroke-width="1" fill="none" fill-rule="evenodd">
        <g id="ncpi-cloud-in-a-square" fill-rule="nonzero">
            <path d="M122,92.5 C122,92.5 -3,103.7 0.3,244.3 C3.6,384.9 177.8,367.1 177.8,367.1 C177.8,367.1 434.5,367.8 434.5,367.8 C560.7,366.1 598.6,160.9 441.2,138.2 C421.9,-6.1 194.2,-61.7 122,92.5 Z" id="Path" fill="#1B578C"></path>
            <path d="M138.6,232.9 C138.6,257.3 138.4,281.6 138.7,306 C138.8,313.3 136.2,315.4 129.1,315.4 C121.7,315.5 119.8,312.7 119.8,305.7 C120,267.8 119.9,229.8 119.9,191.9 C119.9,187 119.8,182 126.4,180.8 C132.6,179.7 136.5,181.9 139.4,187.8 C150.7,210.5 162.5,233 174.2,255.6 C175.8,258.7 177.5,261.7 181.2,264.6 C181.4,261.4 181.8,258.1 181.8,254.9 C181.9,233.4 182,211.8 181.7,190.3 C181.6,183.4 183.6,180.5 191,180.5 C198.1,180.5 200.6,182.7 200.5,189.9 C200.2,228.2 200.5,266.4 200.1,304.7 C200.1,308.2 197.4,313.4 194.5,314.7 C189.1,317.2 185.4,313.6 182.6,308.3 C170.6,285.6 158.2,263 145.8,240.5 C144.3,237.8 142.6,235.1 141,232.4 C140.3,232.5 139.4,232.7 138.6,232.9 Z" id="Path" fill="#FFFFFF"></path>
            <path d="M314.9,246.6 C314.9,228 315.1,209.3 314.8,190.7 C314.7,183.5 316.4,180.1 324.4,180.5 C337.6,181.1 350.8,180.4 363.9,180.7 C382.6,181.1 391.3,190.2 391.4,209 C391.4,217.7 391.5,226.4 391.4,235 C391.1,249.6 383.9,256.7 369.2,256.9 C360.2,257.1 351.2,257.3 342.2,256.9 C335.3,256.6 333.3,259.4 333.4,266 C333.7,279.8 333.2,293.6 333.6,307.5 C333.8,314.3 330.3,315.5 324.7,315.4 C319,315.4 314.7,315 314.9,307.4 C315.1,287.1 314.9,266.9 314.9,246.6 Z M333.5,219.1 C333.5,223.3 333.8,227.5 333.4,231.6 C332.7,239.1 335.6,242.2 343.2,241.7 C349.6,241.3 356,241.5 362.5,241.6 C369.6,241.7 373.3,238.5 373.1,231.2 C372.9,225.4 373.2,219.6 373.1,213.9 C373,198.6 371.1,196.8 355.8,196.7 C333.5,196.6 333.5,196.6 333.5,219.1 Z" id="Shape" fill="#FFFFFF"></path>
            <path d="M221.9,247.8 C221.9,234 221.8,220.1 221.9,206.3 C222,191.6 230.4,181.9 245.2,180.8 C254.5,180.1 263.9,180.1 273.2,180.8 C286,181.8 294.7,191.7 294,204.2 C293.9,206.7 290.5,211 288.6,211 C284.4,211 277.1,209.4 276.7,207.3 C274.8,197.9 269.2,196.7 261.2,196.7 C240.3,196.8 240.3,196.6 240.3,217.4 C240.3,240.2 240.2,263.1 240.3,285.9 C240.4,297.8 242.5,300 254.5,299.8 C263.3,299.7 273.8,302.9 276.8,289 C277.2,287.2 285.1,286.1 289.4,286.4 C291,286.5 293.7,291.4 293.6,294 C293.3,306 284.8,314.4 272.7,314.9 C263.4,315.3 254,315.4 244.7,314.9 C230.7,314.1 221.9,304.4 221.8,290.3 C221.9,276.1 221.9,261.9 221.9,247.8 Z" id="Path" fill="#FFFFFF"></path>
            <path d="M413.1,248.6 C413.1,229.3 413.2,210.1 413,190.8 C412.9,184.1 415,180.5 422.3,180.6 C429.5,180.6 431.8,184.2 431.8,190.9 C431.7,229.7 431.6,268.6 431.9,307.4 C431.9,314.2 428.6,315.3 422.9,315.2 C417.3,315.1 412.9,315.2 413,307.3 C413.3,287.7 413.1,268.2 413.1,248.6 Z" id="Path" fill="#FFFFFF"></path>
            <path d="M333.5,219.1 C333.5,196.6 333.5,196.6 355.7,196.6 C371.1,196.7 372.9,198.5 373,213.8 C373,219.6 372.8,225.4 373,231.1 C373.2,238.5 369.5,241.6 362.4,241.5 C356,241.4 349.5,241.2 343.1,241.6 C335.5,242.1 332.6,239 333.3,231.5 C333.8,227.5 333.5,223.3 333.5,219.1 Z" id="Path" fill="#1B578C"></path>
        </g>
    </g>
</svg>