<svg width="14" height="15" viewBox="0 0 14 15" fill="none" xmlns="http://www.w3.org/2000/svg">
<path d="M2.9375 9.375C2.9375 10.1562 2.25 10.8438 1.46875 10.8438C0.65625 10.8438 0 10.1562 0 9.375C0 8.5625 0.65625 7.90625 1.46875 7.90625H2.9375V9.375ZM3.65625 9.375C3.65625 8.5625 4.34375 7.90625 5.125 7.90625C5.9375 7.90625 6.59375 8.5625 6.59375 9.375V13.0312C6.59375 13.8438 5.9375 14.5 5.125 14.5C4.34375 14.5 3.65625 13.8438 3.65625 13.0312V9.375ZM5.125 3.46875C4.34375 3.46875 3.65625 2.78125 3.65625 2C3.65625 1.1875 4.34375 0.5 5.125 0.5C5.9375 0.5 6.59375 1.1875 6.59375 2V3.46875H5.125ZM5.125 4.1875C5.9375 4.1875 6.59375 4.84375 6.59375 5.65625C6.59375 6.46875 5.9375 7.125 5.125 7.125H1.46875C0.65625 7.125 0 6.46875 0 5.65625C0 4.84375 0.65625 4.1875 1.46875 4.1875H5.125ZM11.0312 5.65625C11.0312 4.84375 11.7188 4.1875 12.5 4.1875C13.3125 4.1875 14 4.84375 14 5.65625C14 6.46875 13.3125 7.125 12.5 7.125H11.0312V5.65625ZM10.3125 5.65625C10.3125 6.46875 9.65625 7.125 8.84375 7.125C8.03125 7.125 7.375 6.46875 7.375 5.65625V2C7.375 1.1875 8.03125 0.5 8.84375 0.5C9.65625 0.5 10.3125 1.1875 10.3125 2V5.65625ZM8.84375 11.5625C9.65625 11.5625 10.3125 12.25 10.3125 13.0312C10.3125 13.8438 9.65625 14.5 8.84375 14.5C8.03125 14.5 7.375 13.8438 7.375 13.0312V11.5625H8.84375ZM8.84375 10.8438C8.03125 10.8438 7.375 10.1562 7.375 9.375C7.375 8.5625 8.03125 7.90625 8.84375 7.90625H12.5C13.3125 7.90625 14 8.5625 14 9.375C14 10.1562 13.3125 10.8438 12.5 10.8438H8.84375Z" fill="#637381"/>
</svg>
