<svg width="18" height="13" viewBox="0 0 18 13" fill="none" xmlns="http://www.w3.org/2000/svg">
<path d="M17.1562 2.40625C16.9688 1.65625 16.375 1.0625 15.6562 0.875C14.3125 0.5 9 0.5 9 0.5C9 0.5 3.65625 0.5 2.3125 0.875C1.59375 1.0625 1 1.65625 0.8125 2.40625C0.4375 3.71875 0.4375 6.53125 0.4375 6.53125C0.4375 6.53125 0.4375 9.3125 0.8125 10.6562C1 11.4062 1.59375 11.9688 2.3125 12.1562C3.65625 12.5 9 12.5 9 12.5C9 12.5 14.3125 12.5 15.6562 12.1562C16.375 11.9688 16.9688 11.4062 17.1562 10.6562C17.5312 9.3125 17.5312 6.53125 17.5312 6.53125C17.5312 6.53125 17.5312 3.71875 17.1562 2.40625ZM7.25 9.0625V4L11.6875 6.53125L7.25 9.0625Z" fill="#637381"/>
</svg>
