<?xml version="1.0" standalone="no"?>
<!DOCTYPE svg PUBLIC "-//W3C//DTD SVG 20010904//EN"
 "http://www.w3.org/TR/2001/REC-SVG-20010904/DTD/svg10.dtd">
<svg version="1.0" xmlns="http://www.w3.org/2000/svg"
 width="260.000000pt" height="260.000000pt" viewBox="0 0 260.000000 260.000000"
 preserveAspectRatio="xMidYMid meet">
<metadata>
Created by potrace 1.14, written by Peter Selinger 2001-2017
</metadata>
<g transform="translate(0.000000,260.000000) scale(0.100000,-0.100000)"
fill="#000000" stroke="none">
<path d="M1014 2379 c-5 -8 -9 -34 -10 -59 -1 -57 -65 -174 -125 -230 -83 -77
-148 -184 -170 -278 -13 -59 -3 -154 22 -206 10 -22 19 -43 19 -46 0 -4 -163
-6 -362 -5 -200 0 -369 -1 -376 -3 -8 -3 -12 -24 -12 -61 l1 -56 117 -57 c155
-75 260 -146 357 -243 239 -237 233 -470 -19 -733 -78 -81 -80 -85 -81 -133 0
-27 4 -50 10 -52 5 -1 331 -2 724 -2 l715 1 1 44 c1 25 -1 52 -4 61 -3 9 -45
59 -92 110 -205 222 -282 346 -282 454 0 107 62 160 313 264 36 15 124 44 195
65 350 101 618 200 640 236 19 31 -15 33 -480 33 l-465 1 0 35 0 36 -169 -1
-170 -1 26 50 c47 93 39 278 -14 352 -21 29 -51 32 -60 8 -11 -31 -43 -72 -73
-93 l-29 -21 30 65 c67 144 36 259 -113 420 -43 47 -57 56 -64 45z m133 -215
l27 -51 -25 -30 c-13 -17 -49 -49 -79 -71 -59 -44 -288 -167 -296 -159 -11 11
49 106 106 167 71 77 142 180 161 233 l14 39 32 -39 c18 -21 45 -61 60 -89z
m26 -156 c-14 -76 -74 -173 -155 -251 -34 -32 -209 -127 -236 -127 -18 0 -33
56 -30 109 l3 52 85 38 c107 48 243 128 295 175 22 19 41 35 42 36 1 0 0 -15
-4 -32z m141 -162 c12 -49 11 -58 -4 -84 -31 -50 -161 -137 -280 -187 -57 -24
-204 -30 -221 -8 -7 7 -10 15 -8 16 2 2 58 29 123 61 144 70 254 142 321 211
28 29 51 51 53 50 2 -2 9 -28 16 -59z m-6 -188 c-14 -42 -38 -80 -58 -93 -8
-5 -46 -10 -84 -11 l-68 -2 78 46 c44 25 92 56 107 69 37 30 38 29 25 -9z"/>
</g>
</svg>
