<?xml version="1.0" encoding="utf-8"?>
<!-- Generator: Adobe Illustrator 23.0.1, SVG Export Plug-In . SVG Version: 6.00 Build 0)  -->
<svg version="1.1" id="Layer_1" xmlns="http://www.w3.org/2000/svg" xmlns:xlink="http://www.w3.org/1999/xlink" x="0px" y="0px"
	 viewBox="0 0 145 160.6" style="enable-background:new 0 0 145 160.6;" xml:space="preserve">
<style type="text/css">
	.st0{fill:#359348;}
	.st1{opacity:0.6;}
	.st2{fill:#73AD43;}
	.st3{opacity:0.75;}
	.st4{fill-rule:evenodd;clip-rule:evenodd;fill:#AFD139;}
	.st5{fill:#FFFFFF;}
</style>
<g>
	<path class="st0" d="M1,50.5v59.3c0,7.1,3.8,13.7,10,17.3l51.4,29.7c6.2,3.6,13.8,3.6,19.9,0l51.4-29.7c6.2-3.6,10-10.1,10-17.3
		V50.5c0-7.1-3.8-13.7-10-17.3L82.3,3.5C76.1,0,68.5,0,62.3,3.5L10.9,33.2C4.8,36.8,1,43.4,1,50.5z"/>
	<g class="st1">
		<path class="st2" d="M18.8,38.8L5.2,88.6c-1.6,6,0,12.4,4.4,16.8L46,142.2c4.4,4.4,10.7,6.2,16.7,4.6l50-13.1
			c6-1.6,10.7-6.2,12.3-12.2l13.6-49.9c1.6-6,0-12.4-4.4-16.8L97.9,18c-4.4-4.4-10.7-6.2-16.7-4.6l-50,13.1
			C25.2,28.2,20.5,32.8,18.8,38.8z"/>
	</g>
	<g class="st3">
		<path class="st4" d="M66.1,132.1c-2.7-0.9-5.7-1.8-9.2-2.9c-33.6-10.2-27.3-3.5-35.2-37.7c-7.9-34.2-10.6-25.4,15-49.3
			c25.6-24,16.6-21.9,50.2-11.7c33.6,10.2,27.3,3.5,35.2,37.7c7.9,34.2,10.6,25.4-15,49.3C86.4,136.9,88.3,139.2,72,134L66.1,132.1z
			"/>
	</g>
	<g>
		<path class="st5" d="M43.9,61.6H26.2c-0.6,0-0.9,0.3-0.9,0.9v2.7c0,0.6,0.3,0.9,0.9,0.9h6c0.3,0,0.5,0.2,0.5,0.5v28.1
			c0,0.6,0.3,0.9,0.9,0.9h3c0.5,0,0.8-0.3,0.8-0.9V66.6c0-0.4,0.2-0.5,0.5-0.5h6c0.6,0,0.9-0.3,0.9-0.9v-2.7
			C44.7,61.9,44.4,61.6,43.9,61.6z"/>
		<path class="st5" d="M56.7,68.7h-4.5c-2.3,0-4.2,0.7-5.4,2.1c-1.3,1.4-1.9,3.4-1.9,6.1v10.6c0,2.6,0.6,4.6,1.9,6
			c1.3,1.4,3.1,2.2,5.4,2.2h10.9c0.6,0,0.9-0.3,0.9-0.8v-2.6c0-0.6-0.3-1-0.9-1H52.9c-2.3,0-3.5-1.3-3.5-3.9V85
			c0-0.4,0.2-0.5,0.5-0.5h13.4c0.6,0,0.9-0.3,0.9-1v-6.7c0-2.6-0.7-4.6-2-6.1C60.9,69.4,59.1,68.7,56.7,68.7z M59.5,80.4
			c0,0.4-0.2,0.5-0.5,0.5h-9.2c-0.3,0-0.5-0.2-0.5-0.5V77c0-1.3,0.3-2.3,0.8-2.9c0.5-0.6,1.4-0.9,2.6-0.9h3.3c1.2,0,2.1,0.3,2.6,0.9
			c0.5,0.6,0.8,1.6,0.8,2.9V80.4z"/>
		<path class="st5" d="M115.2,70.8c-1.3-1.4-3.1-2.2-5.4-2.2h-9.3c-0.6,0-0.9,0.3-0.9,0.8v2.6c0,0.6,0.3,1,0.9,1h8.6
			c2.3,0,3.5,1.3,3.5,3.9v2H106c-2.6,0-4.6,0.7-6.1,2c-1.4,1.3-2.1,3.1-2.1,5.5v1.9c0,2.3,0.7,4.2,2.1,5.4c1.4,1.3,3.4,1.9,6.1,1.9
			h11.1c0-1.7,0-4.7,0-5.1v-3.2v-7.6v-3C117.1,74.3,116.4,72.3,115.2,70.8z M112.5,90.8c0,0.3-0.2,0.5-0.5,0.5h-5.9
			c-1.3,0-2.3-0.3-2.9-0.8c-0.6-0.5-0.9-1.6-0.9-2.8V86c0-1.2,0.3-2.1,0.9-2.6c0.6-0.5,1.6-0.8,2.9-0.8h5.9c0.4,0,0.5,0.2,0.5,0.5
			V90.8z"/>
		<path class="st5" d="M79.7,68.7h-1.8c-1.1,0-2.1,0.3-3,0.8c-0.9,0.5-1.5,1.2-1.8,2.1h-0.2v-2c0-0.6-0.3-0.9-0.8-0.9h-3
			c-0.5,0-0.8,0.3-0.8,0.9v25.2c0,0.6,0.3,0.9,0.8,0.9h3c0.5,0,0.8-0.3,0.8-0.9V78c0-3.2,1.3-4.8,3.9-4.8h2.9
			c0.5,0.1,0.8-0.2,0.8-0.8v-2.7C80.5,69,80.2,68.7,79.7,68.7z"/>
		<path class="st5" d="M95.2,68.7h-1.8c-1.1,0-2.1,0.3-3,0.8c-0.9,0.5-1.5,1.2-1.8,2.1h-0.2v-2c0-0.6-0.3-0.9-0.8-0.9h-3
			c-0.5,0-0.8,0.3-0.8,0.9v25.2c0,0.6,0.3,0.9,0.8,0.9h3c0.5,0,0.8-0.3,0.8-0.9V78c0-3.2,1.3-4.8,3.9-4.8h2.9
			c0.5,0.1,0.8-0.2,0.8-0.8v-2.7C96,69,95.7,68.7,95.2,68.7z"/>
	</g>
</g>
</svg>
